<svg version="1.2" xmlns="http://www.w3.org/2000/svg" viewBox="0 0 1024 245" width="1024" height="245"><defs><linearGradient id="P" gradientUnits="userSpaceOnUse"/><linearGradient id="g1" x1="753.5" y1="261.5" x2="753.5" y2="168.2" href="#P"><stop stop-color="#fff"/><stop offset="1"/></linearGradient><linearGradient id="g2" x1="784.8" y1="261.6" x2="784.8" y2="168.2" href="#P"><stop stop-color="#fff"/><stop offset="1"/></linearGradient><linearGradient id="g3" x1="786.3" y1="257.5" x2="786.3" y2="183.2" href="#P"><stop stop-color="#fff"/><stop offset="1"/></linearGradient><linearGradient id="g4" x1="832.3" y1="257.6" x2="832.3" y2="183.2" href="#P"><stop stop-color="#fff"/><stop offset="1"/></linearGradient><linearGradient id="g5" x1="972.6" y1="241.6" x2="972.1" y2="191" href="#P"><stop stop-color="#fff"/><stop offset="1"/></linearGradient><linearGradient id="g6" x1="972.4" y1="241.7" x2="971.9" y2="191.1" href="#P"><stop stop-color="#fff"/><stop offset="1"/></linearGradient></defs><style>.a{fill:#012a52}.b{fill:#022140}.c{fill:#012240}.d{fill:#01528c}.e{fill:#d2e4ff}.f{mix-blend-mode:soft-light;fill:#d2e4ff}.g{mix-blend-mode:soft-light;fill:#fff}.h{fill:#023b73}.i{fill:#4d4d4d}.j{fill:#fff}.k{opacity:.8;fill:#40b0ff}.l{fill:#024280}.m{fill:#023566}.n{fill:#0178cc}.o{fill:#2c70d9}.p{fill:#001e4d}.q{fill:#0196ff}.r{fill:#2865c4}.s{fill:#022b52}.t{fill:#025899}.u{fill:#014373}.v{mix-blend-mode:multiply;fill:url(#g1)}.w{mix-blend-mode:multiply;fill:url(#g2)}.x{mix-blend-mode:multiply;fill:url(#g3)}.y{mix-blend-mode:multiply;fill:url(#g4)}.z{mix-blend-mode:multiply;fill:url(#g5)}.A{mix-blend-mode:multiply;fill:url(#g6)}.B{fill:#94d2ff}.C{fill:#011a26}.D{fill:#014363}.E{opacity:.4;fill:#012b40}.F{fill:#025880}.G{fill:#f7a58e}.H{fill:#e67a5c}.I{fill:#723917}.J{fill:#b55c41}.K{fill:#0b80c0}.L{fill:#3996d2}.M{fill:#011e33}.N{fill:#026fbf}.O{fill:#012b40}.P{fill:#b3644f}.Q{fill:#f7cec3}.R{fill:#f0f0f0}.S{fill:#0e0e0e}.T{fill:#0d0d0d}.U{fill:#ff9c80}.V{fill:#de7759}.W{fill:#ffa88f}.X{fill:#038ccc}.Y{fill:#c2674e}.Z{fill:#282828}.a0{fill:#b35a24}</style><path class="a" d="m-18.6 0l1045.1 0.6-1.4 244.4-1045.1-0.6z"/><g style="opacity:.7"><path class="b" d="m741.4 30.7l115.5 0.3-0.2 84.8-115.5-0.2z"/><path class="b" d="m830.4 117.8l112 0.2-0.2 82.2-112-0.2z"/><path class="b" d="m884.4 22.8l83.2 0.2-0.1 61.1-83.2-0.2z"/><path class="c" d="m898.7 50.1l59.9 0.1v36.7l-60-0.1z"/><path class="d" d="m900.4 51.8l56.5 0.1-0.1 33.3-56.4-0.1z"/><g style="mix-blend-mode:soft-light"><path fill-rule="evenodd" class="e" d="m928.4 69.7c-3.4 0-6.2-2.8-6.2-6.3 0-3.5 2.8-6.3 6.3-6.2 3.4 0 6.2 2.8 6.2 6.2 0 3.5-2.8 6.3-6.3 6.3zm5.9-6.3c0-3.2-2.6-5.8-5.8-5.8-3.3 0-5.9 2.6-5.9 5.8 0 3.3 2.6 5.9 5.8 5.9 3.3 0 5.9-2.6 5.9-5.9z"/><path class="e" d="m922.4 63.2h12.1v0.4h-12.1z"/><path class="e" d="m934.7 63.4h-0.4c0-1.1-0.9-1.8-1.8-2.2-1-0.5-2.5-0.8-4-0.8-2.9 0-5.9 1-5.9 3h-0.4c0-2.3 3.2-3.4 6.3-3.4 3 0 6.2 1.1 6.2 3.4z"/><path class="e" d="m928.4 67.2c-1.6 0-3.1-0.4-4.2-0.9-1.3-0.7-2-1.7-2-2.9h0.4c0 2.3 3 3.4 5.9 3.4 2.8 0 5.8-1.1 5.8-3.4h0.4c0 2.6-3.2 3.8-6.3 3.8z"/><path fill-rule="evenodd" class="e" d="m928.4 69.7c-3.4 0-6.2-2.8-6.2-6.3 0-3.5 2.8-6.3 6.3-6.2 3.4 0 6.2 2.8 6.2 6.2 0 3.5-2.8 6.3-6.3 6.3zm5.9-6.3c0-3.2-2.6-5.8-5.8-5.8-3.3 0-5.9 2.6-5.9 5.8 0 3.3 2.6 5.9 5.8 5.9 3.3 0 5.9-2.6 5.9-5.9z"/><path class="e" d="m928.3 57.4h0.4l-0.1 12.1h-0.4z"/><path class="e" d="m928.4 69.7v-0.4c1.2 0 1.9-1 2.3-1.8 0.5-1.1 0.8-2.5 0.8-4.1 0-2.9-1-5.8-3-5.8v-0.4c2.3 0 3.4 3.2 3.4 6.2 0 3.1-1.1 6.3-3.5 6.3z"/><path class="e" d="m928.4 69.7c-2.5 0-3.7-3.3-3.7-6.3 0-1.6 0.3-3.1 0.9-4.2 0.7-1.4 1.7-2 2.9-2v0.4c-2.3 0-3.4 3-3.4 5.8 0 2.8 1.1 5.9 3.3 5.9z"/></g><g style="mix-blend-mode:soft-light"><path fill-rule="evenodd" class="e" d="m910.1 69.7c-3.5 0-6.3-2.9-6.2-6.3 0-3.5 2.8-6.3 6.2-6.3 3.5 0 6.3 2.8 6.3 6.3 0 3.5-2.8 6.3-6.3 6.3zm5.9-6.3c0-3.2-2.6-5.9-5.9-5.9-3.2 0-5.8 2.6-5.8 5.9 0 3.2 2.6 5.8 5.8 5.8 3.3 0.1 5.9-2.6 5.9-5.8z"/><path class="e" d="m909.9 57.3h0.4v12.2h-0.4z"/><path class="e" d="m910.1 69.7v-0.5c1.2 0.1 1.9-0.9 2.3-1.7 0.5-1.1 0.7-2.5 0.7-4.1 0.1-2.9-1-5.9-3-5.9v-0.4c2.4 0 3.5 3.3 3.5 6.3 0 3-1.1 6.3-3.5 6.3z"/><path class="e" d="m910.1 69.7c-2.6 0-3.7-3.3-3.7-6.3 0-1.6 0.3-3.2 0.9-4.3 0.7-1.3 1.7-2 2.8-2v0.4c-2.3 0-3.3 3.1-3.3 5.9 0 2.8 1 5.8 3.3 5.8z"/><path fill-rule="evenodd" class="e" d="m910.1 69.7c-3.5 0-6.3-2.9-6.2-6.3 0-3.5 2.8-6.3 6.2-6.3 3.5 0 6.3 2.8 6.3 6.3 0 3.5-2.8 6.3-6.3 6.3zm5.9-6.3c0-3.2-2.6-5.9-5.9-5.9-3.2 0-5.8 2.6-5.8 5.9 0 3.2 2.6 5.8 5.8 5.8 3.3 0.1 5.9-2.6 5.9-5.8z"/><path class="e" d="m904.1 63.2h12.1v0.4h-12.1z"/><path class="e" d="m910.1 66.8c-1.6 0-3.1-0.3-4.2-0.8-1.4-0.6-2-1.5-2-2.6h0.4c0 2 2.9 3 5.8 3 2.9 0 5.9-1 5.9-3h0.4c0 2.4-3.3 3.4-6.3 3.4z"/><path class="e" d="m916.4 63.4h-0.4c0-2.3-3-3.3-5.9-3.3-2.8-0.1-5.8 1-5.8 3.3h-0.4c0-2.6 3.2-3.8 6.2-3.8 3 0 6.3 1.2 6.3 3.8z"/></g><g style="mix-blend-mode:soft-light"><path fill-rule="evenodd" class="e" d="m947.7 69.7c-3.5 0-6.3-2.8-6.3-6.2 0-3.5 2.8-6.3 6.3-6.3 3.5 0 6.3 2.8 6.2 6.3 0 3.4-2.8 6.2-6.2 6.2zm5.8-6.2c0-3.3-2.6-5.9-5.8-5.9-3.3 0-5.9 2.6-5.9 5.9 0 3.2 2.6 5.8 5.9 5.8 3.2 0 5.8-2.6 5.8-5.8z"/><path class="e" d="m941.6 63.2l12.1 0.1v0.4h-12.1z"/><path class="e" d="m953.9 63.5h-0.4c0-1.2-0.9-1.9-1.7-2.3-1.1-0.5-2.6-0.8-4.1-0.8-2.9 0-5.9 1.1-5.9 3.1h-0.4c0-2.4 3.3-3.5 6.3-3.5 3 0 6.2 1.1 6.2 3.5z"/><path class="e" d="m947.7 67.2c-1.7 0-3.2-0.3-4.3-0.9-1.3-0.7-2-1.7-2-2.8h0.4c0 2.2 3 3.3 5.9 3.3 2.8 0 5.8-1 5.8-3.3h0.4c0 2.6-3.2 3.7-6.2 3.7z"/><path fill-rule="evenodd" class="e" d="m947.7 69.7c-3.5 0-6.3-2.8-6.3-6.2 0-3.5 2.8-6.3 6.3-6.3 3.5 0 6.3 2.8 6.2 6.3 0 3.4-2.8 6.2-6.2 6.2zm5.8-6.2c0-3.3-2.6-5.9-5.8-5.9-3.3 0-5.9 2.6-5.9 5.9 0 3.2 2.6 5.8 5.9 5.8 3.2 0 5.8-2.6 5.8-5.8z"/><path class="e" d="m947.5 57.4h0.4v12.1h-0.4z"/><path class="e" d="m947.7 69.7v-0.4c1.1 0 1.8-0.9 2.2-1.7 0.5-1.1 0.8-2.6 0.8-4.1 0-2.9-1-5.9-3-5.9v-0.4c2.4 0 3.4 3.3 3.4 6.3 0 3-1.1 6.2-3.4 6.2z"/><path class="e" d="m947.7 69.7c-2.6 0-3.8-3.2-3.8-6.2 0-1.7 0.4-3.2 0.9-4.3 0.7-1.3 1.7-2 2.9-2v0.4c-2.3 0-3.4 3-3.4 5.9 0 2.8 1.1 5.8 3.4 5.8z"/></g><path class="f" d="m903.7 73.4l12.5 0.1v1.1h-12.5z"/><path class="f" d="m903.7 75.4l8 0.1v1.1h-8z"/><path class="f" d="m903.7 77.4l11.3 0.1v1.1h-11.4z"/><path class="c" d="m903.6 81h11.4v1.1h-11.4z"/><path class="f" d="m922.4 73.5h12.5v1.1h-12.5z"/><path class="f" d="m922.4 75.5h8v1.1h-8.1z"/><path class="f" d="m922.3 77.5h11.4v1.1h-11.4z"/><path class="c" d="m922.3 81h11.4v1.1h-11.4z"/><path class="f" d="m941.4 73.5h12.5v1.2l-12.5-0.1z"/><path class="f" d="m941.4 75.5h8v1.1h-8z"/><path class="f" d="m941.4 77.5h11.4v1.2l-11.4-0.1z"/><path class="c" d="m941.4 81.1h11.4v1.1h-11.4z"/><path class="c" d="m908 128.3l52.6 0.1-0.1 32.1-52.5-0.1z"/><path class="d" d="m909.6 129.8l49.4 0.1v29.1l-49.5-0.1z"/><path class="g" d="m946.5 148.1l-23.4-0.1c-0.9 0-1.7-0.7-1.7-1.6 0-0.9 0.8-1.7 1.7-1.7l23.5 0.1c0.9 0 1.6 0.7 1.6 1.6 0 0.9-0.7 1.7-1.7 1.7z"/><path class="g" d="m946.5 154.3h-23.4c-1 0-1.7-0.8-1.7-1.7 0-0.9 0.8-1.7 1.7-1.7l23.4 0.1c1 0 1.7 0.7 1.7 1.7 0 0.9-0.8 1.6-1.7 1.6z"/><path class="h" d="m926.4 153.3c-0.3 0-0.5-0.2-0.5-0.5 0-0.4 0.2-0.6 0.6-0.6 0.3 0 0.5 0.2 0.5 0.6 0 0.3-0.2 0.5-0.6 0.5z"/><path class="h" d="m928.4 153.3c-0.3 0-0.5-0.2-0.5-0.5 0-0.4 0.2-0.6 0.5-0.6 0.4 0 0.6 0.2 0.6 0.6 0 0.3-0.2 0.5-0.6 0.5z"/><path class="h" d="m930.4 153.3c-0.3 0-0.5-0.2-0.5-0.5 0-0.4 0.2-0.6 0.5-0.6 0.4 0 0.6 0.2 0.6 0.6 0 0.3-0.2 0.5-0.6 0.5z"/><path class="h" d="m932.4 153.4c-0.3 0-0.5-0.3-0.5-0.6 0-0.4 0.2-0.6 0.5-0.6 0.4 0 0.6 0.2 0.6 0.6 0 0.3-0.2 0.6-0.6 0.6z"/><path class="h" d="m934.4 153.4c-0.3 0-0.5-0.3-0.5-0.6 0-0.4 0.2-0.6 0.5-0.6 0.4 0 0.6 0.3 0.6 0.6 0 0.3-0.2 0.6-0.6 0.6z"/><path class="h" d="m936.4 153.4c-0.3 0-0.5-0.3-0.5-0.6 0-0.3 0.2-0.6 0.5-0.6 0.4 0 0.6 0.3 0.6 0.6 0 0.3-0.2 0.6-0.6 0.6z"/><path class="h" d="m938.4 153.4c-0.3 0-0.5-0.3-0.5-0.6 0-0.3 0.2-0.6 0.5-0.6 0.4 0 0.6 0.3 0.6 0.6 0 0.3-0.2 0.6-0.6 0.6z"/><path class="h" d="m940.4 153.4c-0.3 0-0.5-0.3-0.5-0.6 0-0.3 0.2-0.6 0.5-0.6 0.4 0 0.6 0.3 0.6 0.6 0 0.3-0.2 0.6-0.6 0.6z"/><path class="h" d="m942.4 153.4c-0.3 0-0.5-0.3-0.5-0.6 0-0.3 0.2-0.6 0.5-0.6 0.4 0 0.6 0.3 0.6 0.6 0 0.3-0.2 0.6-0.6 0.6z"/><path class="g" d="m934.1 141c-1.9 0-3.5-1.6-3.4-3.5 0-1.9 1.5-3.5 3.4-3.5 1.9 0 3.5 1.6 3.5 3.5 0 1.9-1.6 3.5-3.5 3.5z"/><path class="h" d="m934.1 137.4c0.4 0 0.7-0.2 0.9-0.4q0.2-0.3 0.2-0.7c0-0.6-0.5-1.1-1.1-1.1-0.6 0-1.1 0.5-1.1 1.1q0 0.4 0.3 0.6c0.2 0.3 0.5 0.5 0.8 0.5z"/><path class="h" d="m936 139.3c0 0.7-3.8 0.7-3.8 0v-0.8c0.1-1.1 3.5-1.1 3.8 0z"/><path fill-rule="evenodd" class="i" d="m924.5 152.3v1.2c0 0.2-1.5 0.2-1.5 0v-1.2h0.1v-0.1c0-0.4 0.3-0.6 0.7-0.6 0.3 0 0.6 0.3 0.6 0.6v0.1zm-1.1 0h0.8v-0.1c0-0.2-0.1-0.4-0.4-0.4-0.3 0-0.4 0.2-0.4 0.4zm0.6 0.4c0-0.1-0.1-0.2-0.2-0.2-0.1 0-0.2 0.1-0.2 0.2q0 0.1 0.1 0.2v0.3q0 0.1 0.1 0.1 0.1 0 0.1-0.1v-0.3q0.1-0.1 0.1-0.2z"/><path class="h" d="m923.8 146.3q0.2-0.1 0.3-0.2 0.1-0.1 0.1-0.3c0-0.2-0.2-0.4-0.4-0.4-0.2 0-0.4 0.2-0.4 0.4q0 0.2 0.1 0.3 0.1 0.1 0.3 0.2z"/><path class="h" d="m924.6 147c0 0.3-1.6 0.3-1.6 0l0.1-0.3c0-0.4 1.3-0.4 1.5 0z"/><path class="h" d="m932.5 146.9h-6.1c-0.3 0-0.5-0.3-0.5-0.5 0-0.3 0.2-0.5 0.5-0.5h6.1c0.2 0 0.4 0.2 0.4 0.5 0 0.3-0.2 0.5-0.4 0.5z"/><path class="h" d="m928.7 143.3h-5.9c-0.3 0-0.5-0.2-0.5-0.5 0-0.2 0.2-0.5 0.5-0.5h5.9c0.3 0.1 0.5 0.3 0.5 0.5 0 0.3-0.2 0.5-0.5 0.5z"/><path class="h" d="m940.5 146.9h-6.1c-0.3 0-0.5-0.2-0.5-0.5 0-0.3 0.2-0.5 0.5-0.5h6.1c0.3 0 0.5 0.2 0.5 0.5 0 0.3-0.2 0.5-0.5 0.5z"/><path class="c" d="m735.4 133.9l68.8 0.1-0.1 42.1-68.8-0.1z"/><path class="d" d="m737.4 135.8l64.8 0.2-0.1 38.2-64.8-0.2z"/><g style="mix-blend-mode:soft-light"><path class="j" d="m743.1 140.8l41.3 0.1v0.2l-41.3-0.1z"/><path class="j" d="m743.1 146.6l41.3 0.1v0.1h-41.3z"/><path class="j" d="m743.1 152.1l41.3 0.1v0.2l-41.3-0.1z"/><path class="j" d="m743.1 157.7l41.3 0.1v0.2l-41.3-0.1z"/><path class="j" d="m743.1 163.3l41.3 0.1v0.1h-41.3z"/><path class="j" d="m784.4 169.3l-41.3-0.1v-0.2l41.1 0.1 0.1-28.1h0.2z"/><path class="j" d="m743 140.9h0.2v28.2h-0.2z"/><path class="j" d="m749 140.9h0.2l-0.1 28.3h-0.2z"/><path class="j" d="m754.9 140.9h0.2v28.3h-0.2z"/><path class="j" d="m760.9 140.9h0.2l-0.1 28.3h-0.2z"/><path class="j" d="m766.8 141h0.2v28.2h-0.2z"/><path class="j" d="m772.8 141h0.2l-0.1 28.2h-0.2z"/><path class="j" d="m778.7 141h0.2l-0.1 28.2h-0.1z"/><path class="j" d="m742.3 144.7h-0.2v-4.8l4.6 0.1v0.1h-4.4z"/><path class="j" d="m785.1 170h-4.5v-0.2l4.4 0.1v-4.6h0.2z"/><path class="k" d="m743.1 152.2c0 0 1.9 7.8 3 7.8 1.2 0 2.5-9.7 4-9.8 1.5 0 1.8 9.5 3 9.5 1.2 0 2.1-7.8 3.6-7.9 1.6-0.1 2.5 8.4 4.1 8.4 1.5 0 2.2-4.5 3.7-4.5 1.5 0 1.4 8.2 2.4 8.2 1 0 1.6-12.4 2.5-12.4 0.9 0 2 7.4 2.9 7.4 0.8 0 2-10.5 3.3-10.6 1.3-0.1 2.1 15.7 3.2 15.5 1.1-0.2 2.3-12.6 3.2-12.7 1.3 0 2.4 9.2 2.4 9.2l-0.1 8.9-41.2-0.1z"/></g><path class="c" d="m713.1 51.2l73.3 0.1-0.1 43.3-73.3-0.1z"/><path class="l" d="m741.3 53.1l42.7 0.1-0.1 38.1-42.7-0.1z"/><path class="m" d="m715.8 52.2l25.8 0.1-0.1 38.1h-25.8z"/><path class="n" d="m719.9 55h14.4v1.2h-14.4z"/><path class="n" d="m719.9 57h11v1.1h-11z"/><path class="n" d="m719.8 58.9h13.3v1.2l-13.3-0.1z"/><path class="n" d="m719.8 60.8h10.7v1.2h-10.7z"/><path class="n" d="m723.3 62.8h12.1v1.1h-12.1z"/><path class="n" d="m723.3 65.1h11v1.2l-11-0.1z"/><path class="n" d="m719.8 67h11.1v1.2h-11.1z"/><path class="n" d="m719.8 69h13.2v1.1h-13.2z"/><path class="n" d="m719.8 70.9h10.7v1.2l-10.7-0.1z"/><path class="n" d="m719.8 72.8l15.6 0.1v1.1h-15.6z"/><path class="n" d="m724.6 75.1h13.2v1.1h-13.2z"/><path class="n" d="m719.8 77.3h15.5v1.1h-15.5z"/><path class="n" d="m719.8 80.5h14.5v1.2l-14.5-0.1z"/><path class="n" d="m719.8 82.4l11.1 0.1v1.1h-11.1z"/><path class="n" d="m719.8 84.4h13.2v1.1h-13.2z"/><path class="n" d="m719.8 86.3h10.7v1.2h-10.7z"/><path class="n" d="m723.2 88.3h12.1v1.1h-12.1z"/><path class="n" d="m744.9 65.3h14.4v1.2l-14.4-0.1z"/><path class="n" d="m744.9 67.2l11 0.1v1.1h-11z"/><path class="n" d="m744.9 69.2h13.2v1.1h-13.2z"/><path class="n" d="m744.9 71.1h10.7v1.2h-10.7z"/><path class="n" d="m748.3 73.1h12.1v1.1h-12.1z"/><path class="n" d="m748.3 75.4h11v1.1h-11z"/><path class="n" d="m744.9 77.3h11v1.2h-11z"/><path class="n" d="m744.8 79.3h13.3v1.1h-13.3z"/><path class="n" d="m744.8 81.2h10.7v1.1h-10.7z"/><path class="n" d="m744.8 83.1l15.6 0.1v1.1h-15.6z"/><path class="n" d="m749.6 85.4h13.2v1.1h-13.2z"/><path class="n" d="m744.8 87.6h15.6v1.1h-15.6z"/><path class="n" d="m744.9 55.1h14.5v1.1h-14.5z"/><path class="n" d="m744.9 57h11v1.2l-11-0.1z"/><path class="n" d="m744.9 58.9l13.2 0.1v1.1h-13.2z"/><path class="n" d="m744.9 60.9h10.7v1.1h-10.7z"/><path class="n" d="m748.3 62.8h12.1v1.2h-12.1z"/><path class="m" d="m764.1 55.1h14.5v1.2l-14.5-0.1z"/><path class="m" d="m764.1 57l11 0.1v1.1h-11z"/><path class="m" d="m764.1 59h13.2v1.1h-13.2z"/><path class="m" d="m764.1 60.9h10.7v1.2h-10.7z"/><path class="m" d="m767.5 62.9h12.1v1.1h-12.1z"/><path class="m" d="m767.5 65.2h11v1.1h-11z"/><path class="m" d="m764.1 67.1h11v1.2h-11z"/><path class="m" d="m764.1 69.1h13.2v1.1h-13.2z"/><path class="m" d="m764.1 71h10.7v1.1h-10.7z"/><path class="m" d="m764.1 72.9l15.5 0.1v1.1h-15.5z"/><path class="m" d="m768.8 75.2h13.2v1.1h-13.2z"/><path class="m" d="m764.1 77.4h15.5v1.1h-15.5z"/><path class="m" d="m764 80.6h14.5v1.2l-14.5-0.1z"/><path class="m" d="m764 82.5l11.1 0.1v1.1h-11.1z"/><path class="m" d="m764 84.5h13.3v1.1h-13.3z"/><path class="m" d="m764 86.4h10.7v1.2l-10.7-0.1z"/><path class="m" d="m767.5 88.4h12.1v1.1h-12.1z"/><path class="c" d="m810.9 14l65 0.1-0.1 39.8-65-0.2z"/><path class="d" d="m812.8 15.8l61.2 0.2-0.1 36-61.2-0.1z"/><path class="n" d="m817.1 19.6h31l-0.1 17.8-30.9-0.1z"/><path class="n" d="m817.5 39.4h14.3v9.6l-14.4-0.1z"/><path class="n" d="m833.8 39.4l14.3 0.1v9.5h-14.3z"/><path class="h" d="m851.6 19.6l18.6 0.1-0.1 30.3h-18.5z"/><path class="n" d="m852.9 21.7l12.5 0.1v1.2h-12.5z"/><path class="n" d="m852.9 23.9h9.5v1.3h-9.5z"/><path class="n" d="m852.9 26.1h11.4v1.2h-11.4z"/><path class="n" d="m852.9 28.2h9.2v1.3h-9.2z"/><path class="n" d="m852.9 30.4h13.4v1.3l-13.4-0.1z"/><path class="n" d="m852.8 33h12.6l-0.1 1.3-12.5-0.1z"/><path class="n" d="m852.8 35.1h9.6v1.3h-9.6z"/><path class="n" d="m852.8 37.3h11.5v1.3h-11.5z"/><path class="n" d="m852.8 39.4l9.3 0.1v1.2h-9.3z"/><path class="n" d="m852.8 41.6h13.5v1.3h-13.5z"/><path class="n" d="m856.9 44.1h11.5l-0.1 1.3h-11.4z"/><path class="n" d="m852.8 46.6h13.5l-0.1 1.2h-13.4z"/><path class="h" d="m818 35.7l0.3-10.6c0 0 1.9 6.5 3.9 6.5 2 0 2.5-7.5 4.8-7.1 2.3 0.3 3.2 9.1 5.4 9.1 2.8 0 2.1-5.1 4.4-5.1 2.2 0 2.1 3.1 4.2 3.1 3.3 0 5.8-8.6 5.8-8.6l-0.1 13z"/><path class="o" d="m920.2 107.7v9.7c0 1.1 13.2 1.1 13.2 0v-9.7z"/><path class="p" d="m926.8 113c-0.9 0-1.6-0.8-1.6-1.7 0-0.9 0.7-1.6 1.6-1.6 0.9 0 1.6 0.7 1.6 1.7 0 0.9-0.7 1.6-1.6 1.6z"/><path class="p" d="m926.8 116.3c-0.4 0-0.7-0.3-0.7-0.7v-3.7h1.4v3.7c0 0.4-0.3 0.7-0.7 0.7z"/><path class="o" d="m932.3 107.1h-1.4v-3.4c0-2.2-1.8-4.1-4.1-4.1-2.2 0-4.1 1.8-4.1 4.1v0.7h-1.3v-0.7c0-3 2.4-5.4 5.4-5.4 3 0 5.5 2.4 5.5 5.4z"/><path class="d" d="m933.8 121.6c-2.5-0.1-4.5-2.1-4.5-4.6 0-2.4 2-4.5 4.5-4.4 2.5 0 4.5 2 4.5 4.5 0 2.5-2 4.5-4.5 4.5z"/><path fill-rule="evenodd" d="m933.8 120.9c-2.2 0-3.9-1.7-3.9-3.9 0-2.1 1.7-3.8 3.9-3.8 2.1 0 3.9 1.7 3.9 3.9 0 2.1-1.8 3.9-3.9 3.8zm3.6-3.8c0-2-1.6-3.6-3.6-3.6-2 0-3.6 1.6-3.6 3.5 0 2 1.6 3.6 3.6 3.6 2 0 3.6-1.6 3.6-3.5z"/><path  d="m933.8 118.4c-0.3 0-0.5-0.2-0.6-0.5l-0.1-2.4c0-0.4 0.3-0.8 0.7-0.8 0.4 0 0.7 0.4 0.7 0.8l-0.2 2.4c0 0.3-0.2 0.5-0.5 0.5z"/><path  d="m933.8 120c-0.3 0-0.6-0.3-0.6-0.6 0-0.3 0.3-0.5 0.6-0.5 0.3 0 0.5 0.2 0.5 0.5 0 0.3-0.2 0.6-0.5 0.6z"/><path class="d" d="m740.9 111.4c0-1.1 0.9-2 2-2h17.6c1.1 0 2 0.9 2 2v9c0 1.1-0.9 2-2 2h-17.6c-1.1 0-2-0.9-2-2z"/><path class="n" d="m740.9 111.8l21.6 0.1v2.2h-21.6z"/><path class="n" d="m745.8 119.9h-3.2c-0.2 0-0.3 0.1-0.3 0.3 0 0.2 0.1 0.4 0.3 0.4h3.2c0.2 0 0.4-0.1 0.4-0.3 0-0.3-0.2-0.4-0.4-0.4z"/><path class="n" d="m750.7 119.9h-3.2c-0.2 0-0.3 0.1-0.3 0.4 0 0.2 0.1 0.3 0.3 0.3h3.2c0.2 0 0.4-0.1 0.4-0.3 0-0.2-0.2-0.4-0.4-0.4z"/><path class="n" d="m755.6 119.9h-3.2c-0.2 0-0.3 0.2-0.3 0.4 0 0.2 0.1 0.3 0.3 0.3h3.2c0.2 0 0.4-0.1 0.4-0.3 0-0.2-0.2-0.4-0.4-0.4z"/><path class="n" d="m760.5 119.9h-3.2c-0.2 0-0.3 0.2-0.3 0.4 0 0.2 0.1 0.3 0.3 0.3h3.2c0.2 0 0.4-0.1 0.4-0.3 0-0.2-0.2-0.4-0.4-0.4z"/><path class="n" d="m742.5 110.1c-0.2 0-0.4 0.1-0.4 0.4v0.1c0 0.2 0.2 0.4 0.4 0.4 0.2 0 0.4-0.2 0.4-0.4v-0.1c0-0.3-0.2-0.4-0.4-0.4z"/><path class="n" d="m743.4 110.5c0 0.3 0.2 0.5 0.5 0.5h1.6c0.3 0 0.5-0.2 0.5-0.5 0-0.2-0.2-0.4-0.5-0.4h-1.6c-0.3 0-0.5 0.2-0.5 0.4z"/><path class="n" d="m742.5 116.9c0-0.9 0.7-1.6 1.6-1.6h0.3c0.9 0 1.6 0.7 1.6 1.6 0 0.8-0.8 1.5-1.6 1.5h-0.3c-0.9 0-1.6-0.7-1.6-1.5z"/><path class="d" d="m889.6 30.8c0-1.1 0.9-2 2-2h16.1c1.1 0 2 0.9 2 2v8.1c0 1.1-0.9 2-2 2l-16.1-0.1c-1.1 0-2-0.9-2-2z"/><path class="n" d="m909.7 33.2l-20.1-0.1v-2h20.1z"/><path class="n" d="m894.2 38.5h-3c-0.1 0-0.3 0.2-0.3 0.4 0 0.1 0.2 0.3 0.3 0.3h3c0.2 0 0.3-0.1 0.3-0.3 0-0.2-0.1-0.4-0.3-0.4z"/><path class="n" d="m898.8 38.5h-3c-0.2 0-0.3 0.2-0.3 0.4 0 0.2 0.1 0.3 0.3 0.3h3c0.1 0 0.3-0.1 0.3-0.3 0-0.2-0.2-0.4-0.3-0.4z"/><path class="n" d="m903.3 38.5h-3c-0.1 0-0.3 0.2-0.3 0.4 0 0.2 0.2 0.3 0.3 0.3h3c0.2 0 0.3-0.1 0.3-0.3 0-0.2-0.1-0.4-0.3-0.4z"/><path class="n" d="m907.9 38.5h-3c-0.2 0-0.3 0.2-0.3 0.4 0 0.2 0.1 0.3 0.3 0.3h3c0.1 0 0.3-0.1 0.3-0.3 0-0.2-0.2-0.4-0.3-0.4z"/><path class="n" d="m891.1 29.4c-0.2 0-0.3 0.2-0.3 0.4v0.1c0 0.2 0.1 0.4 0.3 0.4 0.2 0 0.4-0.2 0.4-0.4v-0.1c0-0.2-0.2-0.4-0.4-0.4z"/><path class="n" d="m891.9 29.8c0 0.3 0.2 0.5 0.5 0.5h1.5c0.3 0 0.5-0.2 0.5-0.5 0-0.2-0.2-0.4-0.5-0.4h-1.5c-0.3 0-0.5 0.2-0.5 0.4z"/><path class="n" d="m891.1 35.3c0-0.6 0.5-1 1-1h1.2c0.6 0 1 0.4 1 1v0.9c0 0.5-0.4 1-1 1h-1.2c-0.5 0-1-0.5-1-1z"/><path class="n" d="m770 25h25l-0.1 15-24.9-0.1z"/><path class="q" d="m786.5 32.5h-2c-0.2-1.5-1.4-2.6-3-2.6v-2.1c2.7 0 4.9 2.1 5 4.7z"/><path class="h" d="m786.5 32.8c0 2.8-2.2 5-5 5-2.8 0-5-2.2-5-5 0-2.8 2.3-5 5-5v2.1c-1.6 0-2.9 1.3-2.9 2.9 0 1.6 1.3 3 2.9 3 1.6 0 3-1.3 3-3q0-0.1 0-0.3h2q0 0.2 0 0.3z"/><path fill-rule="evenodd" class="r" d="m931.2 169.7h15.8l-0.1 19.6-15.7-0.1zm0.4 19.1h14.8v-18.5l-14.7-0.1z"/><path class="r" d="m934.3 172.7l15.3 0.1-0.1 19h-15.2z"/><path class="s" d="m936.7 175.9h7.9v1.2h-7.9z"/><path class="s" d="m936.7 178.8h10.2v1.2h-10.2z"/><path class="s" d="m936.7 181.7h10.2v1.3l-10.2-0.1z"/><path class="s" d="m936.7 184.6h10.2v1.3h-10.2z"/><path class="s" d="m936.7 187.5h10.2v1.3h-10.2z"/><path class="n" d="m731.9 164.9l-10 17.2c-0.5 0.9 0.1 2 1.1 2h19.9c1.1 0 1.7-1.1 1.2-2l-9.9-17.2c-0.5-0.9-1.8-0.9-2.3 0z"/><path fill-rule="evenodd" d="m742.9 183.3l-19.9-0.1q-0.2 0-0.4-0.2-0.1-0.2 0-0.5l10-17.2q0.1-0.2 0.4-0.2 0.3 0 0.4 0.2l9.9 17.3q0.2 0.2 0 0.4-0.1 0.3-0.4 0.3zm-19.7-0.6h19.6l-9.8-17zm19.7 0.2q0 0 0 0z"/><path  d="m733 178c-0.5 0-1-0.4-1.1-1l-0.3-4.9c0-0.8 0.6-1.5 1.4-1.5 0.9 0 1.5 0.7 1.5 1.6l-0.4 4.8c0 0.6-0.5 1-1.1 1z"/><path  d="m733 181c-0.6 0-1.1-0.5-1-1.1 0-0.5 0.4-1 1-1 0.6 0 1.1 0.5 1.1 1.1 0 0.5-0.5 1-1.1 1z"/></g><path class="t" d="m769.7 196.8l-0.1 59.4c-0.1 42.1 153.3 42.4 153.4 0.3l0.1-59.4z"/><path class="u" d="m923.1 197.1c0 12.6-28.4 23.1-65.4 24.8q-5.6 0.2-11.4 0.2c-42.3-0.1-76.7-11.4-76.6-25.3 0-14 34.4-25.2 76.7-25.1q5.8 0 11.4 0.3c37 1.9 65.3 12.4 65.3 25.1z"/><path class="d" d="m871.2 173.1l-0.1 47.7c30.2-3.3 52-12.6 52-23.7 0-11.1-21.7-20.5-51.9-24z"/><g style="opacity:.5"><path class="v" d="m783.5 191.5l-0.1 33.7h17.1l0.1-36.2z"/><path class="w" d="m831.9 191.6l-0.1 33.7-17.1-0.1 0.1-36.2z"/><path class="x" d="m834.7 208.7v38.5h-19.2l0.5-37.3z"/><path class="y" d="m878.3 209.9v36.4l-19.2-0.1 0.5-37.2z"/><path class="z" d="m907.4 191.2v37.2h-10.1l0.3-37.3h0.8l1.3 4.3 2.2-4.2z"/><path class="A" d="m881.3 191.5l-0.1 37.3-7.4-0.1 0.2-37.2h0.7l0.8 4.3 1.1-4.4z"/></g><path class="B" d="m794.8 88.4c0 0 7.1-6.8 16.1-5.5 8.9 1.3 10.2 11.5 10.2 11.5z"/><path class="C" d="m803.7 119.4l11.6 64.2c0.4 2 7.8 1.5 7.2-0.4l-4.8-63.8z"/><path class="C" d="m793.5 119.3l-1 64.5c0.4 1.1 5.6 2.2 6.7 0l8.6-64.4z"/><path class="C" d="m785.2 187l4.6-3.6c1.3-2.6 7-2.3 6.2 0.9 2.3 0.3 3.4-0.8 3.4-0.8l0.8 6-5.8 1.7z"/><path class="C" d="m794.5 191.2q0-0.1 0-0.1c0-3.1-2.5-5.5-5.6-5.5-3 0-5.5 2.4-5.4 5.5q0 0 0 0c0.9 1.6 3.8 2 11 0.1z"/><path class="C" d="m829.8 187.1l-4.6-3.6c-1.3-2.6-7-2.3-6.2 0.9-2.3 0.3-3.4-0.8-3.4-0.8l-0.8 6 5.7 1.6z"/><path class="C" d="m820.5 191.2q0 0 0-0.1c0-3 2.6-5.5 5.6-5.5 3 0 5.5 2.5 5.4 5.6q0 0 0 0c-0.9 1.6-3.9 2-11 0z"/><path class="D" d="m817.7 106.8q-0.3 7.2 0 12.6c-3.3 4.9-23.6 1.6-24.3-0.1 0.4-4.9 0.8-9.7 1.3-14.2q0.5-4.1 1.1-7.8 0.4-2.4 0.9-4.7c2-7.5 7.2-9.6 12.4-9.5 5.3 0 9.6 3.3 9.6 9.5q-0.5 4.3-0.7 8.2-0.2 3.2-0.3 6z"/><path class="E" d="m818 100.8q-0.2 3.2-0.3 6c-2.5-1.1-6.9-2.7-13.1-2.6-5.2 0-8.2 0.5-9.9 0.9q0.5-4.1 1.1-7.8z"/><path class="F" d="m812.5 98.8c-0.8 0.6-1.9 1.1-3.1 1.5-3.6 1.2-8.7 2-13 1.7-3.6-0.3-6.7-1.3-7.7-3.6-1.4-5.6 9.3-13.4 14.2-14.1-3 3.5-4 6.7-4.4 8.6-0.2 1.3-0.2 2.1-0.2 2.1 0 0 1.3-0.3 3.2-0.4 2.5-0.2 6-0.2 9.2 1 1.3 0.8 2.5 2 1.8 3.2z"/><path class="E" d="m809.4 100.3c-3.6 1.2-8.7 2-13 1.7 1.8-0.5 2.4-2 1.2-3.2-2.8-3-0.1-5.2 0.9-5.9-0.2 1.3-0.2 2.1-0.2 2.1 0 0 1.3-0.3 3.2-0.4z"/><path class="G" d="m800.7 93.5c0 0-0.7-0.4-0.9-0.5-1.7-1.1-3.3 1.2-2.2 3.4 0 0 2.2 0.8 3.1-0.4 1-1.3 0-2.5 0-2.5z"/><path class="F" d="m816.3 86c-3.8 0.7-2.8 11.2-2.8 11.2 0 0-7.6-3.5-12.8-3.7-1.3 0.3-3.4 2.1-3.1 3 5.6 5.6 23.7 11.8 24.1 4.1 0.3-10.5-5.4-14.6-5.4-14.6z"/><path class="G" d="m812.5 97.2c0.6 0 1.7-0.4 1.9-0.5 0.5-0.1 0.6-0.7 0.4-0.6l-1.9 0.1c0 0 0.7-0.4 1-0.8 0.3-0.4 0-0.6 0-0.6l-1.7 0.8c0.3-0.3 1.2-1.4 0.5-1.6-0.5 0.8-1.3 1.3-1.9 1.8 0.4 0 1.3 0.7 1.7 1.4z"/><path class="F" d="m805.1 83.5c0 0-3.3 3.4 1.8 4.5 5.1 1.1 7.2-2.6 6.5-4.1-2.4-1.1-5.8-1.3-8.3-0.4z"/><path class="G" d="m813.5 76.2l-1.1 8.7c-0.5 2.4-8.3 2.6-7.1-0.5l0.1-0.4 0.8-3.3 1.5-5.6z"/><path class="H" d="m812.5 79.8c0 0-0.4 5.2-7.1 4.2l0.8-3.3z"/><path class="G" d="m803 70.8c-3.4 4.3-0.5 10 3.8 11 4.4 1 9.6-2.1 10.9-7.2 1.2-5.1-1.4-10-5.7-11-4.4-1-8.6 1.5-9 7.2z"/><path class="I" d="m805 71.7c-0.2 0-0.4-0.1-0.4-0.4 0-0.2 0.2-0.4 0.5-0.4 0.2 0 0.4 0.2 0.3 0.4 0 0.3-0.1 0.4-0.4 0.4z"/><path class="I" d="m812.1 73.3c-0.2 0-0.4-0.1-0.4-0.4 0-0.2 0.2-0.4 0.4-0.4 0.3 0 0.4 0.2 0.4 0.4 0 0.3-0.1 0.4-0.4 0.4z"/><path class="I" d="m819.2 73.8c-0.5 0.8-1.1 1.5-1.6 2-1.5-2.3-1.2-6.9-1.2-6.9 0 0-2.9 1.8-8.9 0.7-5.5-1-7-3-5.7-6.2q0 0 0 0c1.1 0.5 3-0.8 5.3-1.6 3-1 10.1-2.1 10.6 5.2 3 2.1 2.6 4.8 1.5 6.8z"/><path class="I" d="m801.5 75.5c0 0 0.7 3.8 5.7 4.2 3.6 0.2 6.8-1.4 8.2-2.5q0.2 0.4 0.4 0.8c-1.9 4.9-11.8 4.5-11.8 4.5-1.8-1.8-3-4.1-2.5-7z"/><path class="I" d="m816.4 71c0 0 0.4 3.4-0.3 4.9 1.4-1.1 2.3-0.9 2.3-0.9 0-0.1 1.2-3.7-2-4z"/><path fill-rule="evenodd" class="I" d="m802 77.8c0.2-1.1 1.8-2.9 4.8-2 2.9 1 3.5 4.2 3.4 4.3-4.7 2.5-8.4-0.6-8.2-2.3zm6.2 1.1c0.1-0.9-0.1-1.7-1.9-2.2-1.8-0.6-2.7-0.1-2.9 0.5-0.8 2 4.6 2.6 4.8 1.7z"/><path  d="m803.3 68.2c0 0 0.8 1 5.8 2.9 4.8 2 8.3 2.7 8.8 3.4 1 1.6-0.2 1.7-0.7 0.7-1.2-0.5-6.1 1.3-8.4-0.2-1.5-1-1.1-2.6-1.1-2.6 0 0-1.9 1.7-3.3 1-1.3-0.8-1.5-3.1-1.5-3.1 0 0 0-1.3 0.4-2.1z"/><path class="G" d="m815.4 77.6c0.4 1 1.5 1.4 2.4 0.9 0.9-0.4 1.3-1.5 0.9-2.4-0.4-0.9-1.5-1.3-2.4-0.9-0.9 0.4-1.3 1.5-0.9 2.4z"/><path class="I" d="m815.8 76.9q0 0 0 0 0 0 0-0.1c0 0 0.6-0.6 1.4-0.8q0.4 0 0.7 0.2c0.2 0.2 0.2 0.5 0.2 0.5q0 0-0.1 0 0 0 0 0c0 0 0-0.3-0.2-0.4q-0.2-0.2-0.6-0.2c-0.8 0.2-1.3 0.8-1.3 0.8q0 0-0.1 0z"/><path class="I" d="m806.2 75.4q0 0 0 0c-0.3-0.1-0.8-0.5-0.6-1 0.2-0.6 1.5-0.8 1.5-0.8q0.1 0 0.1 0 0 0.1 0 0.1c-0.1 0-1.3 0.2-1.5 0.7-0.2 0.6 0.5 0.9 0.5 0.9q0 0 0 0.1 0 0 0 0z"/><path class="J" d="m827 196.8l-0.5 6.1 7.1 2.5 1-8.5z"/><path class="K" d="m817.8 206.9l5.8-4.7c1.9-2.9 5.5-2.5 5.9 0.6 1.2 1 4.7-0.7 4.7-0.7l0.5 6.8-10.7 2.1z"/><path class="L" d="m825.1 210.7q0 0 0 0c0-2.6-2.1-4.7-4.7-4.7-2.5 0-4.4 1.3-4.4 3.8q0 0.1 0 0.1c0 1.2 5.3 2 9.1 0.8z"/><path class="M" d="m849.8 127c-4.6 26.6-8.9 64.8-14.9 69.8l-0.5 4.3-7.9-0.9 0.2-3.5c-3.6-5.3 2.9-42.6 5.7-69.7z"/><path class="J" d="m867.2 196.8l0.6 6.2-7.2 2.4-0.9-8.5z"/><path class="M" d="m845.6 127c2.7 28 7.8 64.9 13.8 69.9l0.5 4.2 7.9-0.8-0.2-3.6c3.6-5.3-3.1-42.5-5.7-69.7z"/><path class="d" d="m863.7 134.2c0.5 2 0.5 3.3 0 4.1-4.4 2.4-28.8 2.5-33.6 0.5-0.2-1.2-0.5-2.4 0.3-4.3-1.7-0.8-1.8-6.1-1.3-12.3 0.5-4.9 1.4-10.5 2.4-15 0.5-2.4 1.1-4.4 1.6-6 2.4-7.1 4.3-13.7 14-13.7 9.9 0 12.2 7.5 14.2 12.6 0.6 1.5 1.2 4.1 1.7 7.2 0.8 4.2 1.4 9.4 1.7 14.1 0.4 6.2 0.3 11.6-1 12.8z"/><path class="N" d="m828.9 96.8c0 0 4.4-11.3 18.1-11 13.7 0.3 16.7 11.1 16.7 11.1 0 0-4.8-9.4-16.1-9.5-9.4 0-15.7 4.2-18.7 9.4z"/><path class="E" d="m864.7 121.4c-4-1-11.2-2.4-19.3-2.5-8-0.1-13.4 1.9-16.3 3.3 0.5-4.9 1.4-10.5 2.4-15l31.5 0.1c0.8 4.2 1.4 9.4 1.7 14.1z"/><path class="d" d="m853.5 112c-9 4.8-18.9 6-23.3 3.5-2.3-1.3-3.6-3.4-4.1-5.9-1.6-7.7 4.7-19.2 12.8-21.3 2.9-0.8-2.5 17.7-2.5 17.7 9.2-2.4 13.3-2.6 16.1-1.6 1.3 0.4 2.2 1.8 2.5 3.3 0.4 1.6 0 3.4-1.5 4.3z"/><path class="O" d="m836.4 106.1q0 0 0 0-0.1-0.1 0-0.1c0-0.1 0.9-1.3 1.2-6q0-0.1 0.1-0.1 0.1 0 0.1 0.1c-0.3 4.8-1.2 6-1.3 6.1q0 0-0.1 0z"/><path class="O" d="m853.5 112c-9 4.8-18.9 6-23.3 3.5-2.3-1.3-3.6-3.4-4.1-5.9 1.7 1.8 4.7 4.3 8.9 4.2 5.3 0 16.8-4.7 20-6.1 0.4 1.6 0 3.4-1.5 4.3z"/><path class="O" d="m836.4 106c1.6 1.2 4.5 7.1-0.6 7.9 9.9 2.9 15.6-3.9 15.6-3.9 0 0-9.5-5.6-15-4z"/><path class="G" d="m840 108.3c-0.1-0.1-3.6-2.3-3.6-2.3 0 0 1-4.6 6.5-3.2 5.4 1.3 1.1 7.2-2.9 5.5z"/><path class="d" d="m867 112.6c-0.4 1.4-1 2.6-2.1 3.1-4.4 2.5-17.1 2.2-24.7-4.6-1.3-1.5-1.3-3.9-0.4-5.8 0.7-1.4 1.9-2.6 3.4-2.8 3-0.3 10.2 1.5 13.7 4 0 0-5.6-19-2.7-18.5 8.5 1.8 14.4 17.4 12.8 24.6z"/><path class="O" d="m856.9 106.6q0 0-0.1 0c-0.8-1.8-1.4-4.8-1.7-6.4q0-0.1 0-0.1 0-0.1 0.1-0.1 0.1 0 0.1 0 0 0.1 0 0.2c0.3 1.6 0.9 4.5 1.7 6.3q0.1 0.1 0 0.1 0 0-0.1 0z"/><path class="G" d="m856.8 106.4c1.2 0.1 1.8 0 2.1 0 1-0.1 1.4-1 0.9-0.9l-3.5-0.4c0 0 1.4-0.6 2.1-1.3 0.7-0.6 0.1-1 0.1-1l-3.3 1c0.6-0.4 2.6-2.1 1.4-2.7-1.1 1.2-3.6 2.4-4.7 3 0.6 0.3 3 1 4.9 2.3z"/><path class="O" d="m867 112.6c-0.4 1.4-1 2.6-2.1 3.1-4.4 2.5-17.1 2.2-24.7-4.6-1.3-1.5-1.3-3.9-0.4-5.8 0.3 1.6 0.9 3.9 2.2 4.9 1.8 1.4 19.3 7.1 25 2.4z"/><path class="O" d="m844 136.3c-8.3 0-13.6-1.7-13.7-1.7-0.1 0-0.1-0.1-0.1-0.1 0-0.1 0.1-0.2 0.2-0.1 0.1 0 8.4 2.5 20.4 1.3 0.1 0 0.2 0 0.2 0.1 0 0.1-0.1 0.1-0.1 0.1-2.5 0.3-4.8 0.4-6.9 0.4z"/><path  d="m861.3 81.5c-0.1 4.5-4.7 8.3-8.3 10.5-4.3 2.6-6.2 2.6-13-1.9-3.2-2.1-5.6-5.2-6.2-8.1-1.5-6.2 6.3-19.3 13.9-19.3 7.6 0 13.9 10.9 13.6 18.8z"/><path class="P" d="m852.9 89.8c-0.6 3.6-8.7 3.6-9.7 0l0.6-6.2h8.6z"/><path class="G" d="m856.6 77.8q-0.1 1.2-0.3 2.2c-0.9 3.4-2.9 6-5 7.4-1.2 0.7-2.3 1.1-3.4 1.1q-0.2 0-0.3 0c-2.7-0.3-6.7-3.6-7.9-8.5q-0.3-1.1-0.4-2.2-0.1-0.9 0-1.8c0.2-6.2 3.8-10.5 8.7-10.5 4.8 0 8.4 4.3 8.6 10.5q0.1 0.9 0 1.8z"/><path class="G" d="m840.1 79.9q-0.2 0.1-0.4 0.1c-0.7 0-1.4-0.5-1.7-1.4-0.5-1.1-0.2-2.2 0.6-2.6q0.3-0.1 0.7 0c0.5 0.1 1.1 0.6 1.4 1.4 0.4 1 0.2 2.2-0.6 2.5z"/><path class="G" d="m857.8 78.6c-0.3 0.8-1 1.3-1.5 1.4q-0.4 0.1-0.7-0.1c-0.4-0.1-0.6-0.6-0.7-1.1-0.1-0.4-0.1-0.9 0.1-1.4q0 0 0 0c0.4-0.8 1-1.4 1.6-1.4q0.3 0 0.6 0.1c0.8 0.3 1 1.5 0.6 2.5z"/><path class="P" d="m857.8 78.6c-0.3 0.8-1 1.3-1.5 1.4-0.9 3.4-2.9 6-5 7.4 1.5-1.6 3.7-6.4 3.3-7.2-0.5-0.9-3.5 1-4.4-0.1-1.6-1.7-1.8-1.6-3.3-0.1-1.8 1.8-3.7-0.5-5.4-0.2-1.8 0.4 2.5 7.9 6.1 8.7-2.7-0.3-6.7-3.6-7.9-8.5-0.7 0-1.4-0.5-1.7-1.4-0.5-1.1-0.2-2.2 0.6-2.6q0.3-0.1 0.7 0c0.2-6.2 3.8-10.5 8.7-10.5 4.8 0 8.4 4.3 8.6 10.5q0.3 0 0.6 0.1c0.8 0.3 1 1.5 0.6 2.5z"/><path  d="m856.8 75.9v0.6c0 0.7-0.4 1.3-0.9 1.9-1.1 0.9-3.1 1.5-5.3 1.8-0.8-0.1-1.5-2.7-2.2-2.7-0.7 0-0.9 2.5-2.4 2.6-2.6-0.2-4.9-1-6.1-2.2-0.5-0.5-0.8-1.1-0.8-1.8v-0.9c0.1-2.1 17.8-1.5 17.7 0.7z"/><path class="Q" d="m847.2 80.9c0 0 0 1.2 1.3 1.2 1.2 0 1.2-1.1 1.2-1.1 0 0-0.4 0.8-1.3 0.8-0.9 0-1.2-0.9-1.2-0.9z"/><path class="P" d="m846.3 84.1c0.5 0.5 3.5 0.3 3.6 0 0.1-0.2-2.3 0.2-3.6 0z"/><path class="Q" d="m846.7 84.6c0 0 1.3 0.3 2.7 0 0.2 0-0.3 0.3-0.6 0.3-1.4 0.3-2.1-0.3-2.1-0.3z"/><path class="R" d="m855.9 78.4c-1.1 0.9-3.1 1.5-5.3 1.8-0.8-0.1-1.5-2.7-2.2-2.7-0.7 0-0.9 2.5-2.4 2.6-2.6-0.2-4.9-1-6.1-2.2 1.4-1.2 4.4-2.1 7.8-2.1 3.8 0 7 1.1 8.2 2.6z"/><path fill-rule="evenodd" class="d" d="m847.8 96.1c-5.4-0.9-11.6-5.7-14-14.1-2.4-7.9 7.4-19.8 14.5-20.1 7.3 0 12.8 8.7 14 16.2 3 9-13.8 18.3-14.5 18zm10.4-15.4c-0.3-2.8-4.6-6.1-10.1-6.4-4.9-0.3-9.2 2.2-10.6 7.4-0.5 2.1 2 9.9 9.8 13.4 8-2.7 11.6-6.9 10.9-14.4z"/><path class="K" d="m876.6 207l-5.8-4.7c-1.9-2.9-5.5-2.5-5.9 0.6-1.2 0.9-4.7-0.8-4.7-0.8l-0.6 6.9 10.8 2.1z"/><path class="L" d="m869.2 210.8q0 0 0-0.1c0.1-2.5 2.2-4.6 4.7-4.6 2.6 0 4.5 1.3 4.5 3.9q0 0 0 0c0 1.2-5.3 2-9.2 0.8z"/><path class="N" d="m848.8 63.5c9.2 1 11.5 8.9 12.5 10.8-2.1-6.4-6.9-12.4-13-12.4-6.8 0.2-16.1 11.2-14.8 19.1 1.2-10.6 10.7-18.1 15.3-17.5z"/><path class="S" d="m883 78.8c0 0-2-2.3-5.7-0.9-8.9 3.2-1.1 18.2-8.5 30.7 6.4 7.4 14.9 0 14.9 0 0 0 1.6-24.5-0.7-29.8z"/><path class="T" d="m883.7 124.7l15.7 59.5 4.3 0.1-6.2-60.6c-2.4-14.5-16.5-8.3-13.8 1z"/><path class="T" d="m873.1 123.5c-0.1 19.7 1.4 58.6 1.4 58.6l5.1-0.3 8.2-57.8c0.4-8.1-13-12.1-14.7-0.5z"/><path class="C" d="m907.4 191.2c-0.1-0.9-2.8-1.9-2.8-1.9l-1.1-7.8v-0.2h-5.2l-0.5 3.1 4.1 6.8z"/><path class="C" d="m898.5 191.2l2.4-7.2-3.1 0.4v6.8z"/><path class="C" d="m881.4 191.5c1.1-0.9-1.2-1.9-1.2-1.9l-0.6-7.8v-0.2h-5l-0.5 3.1 2.6 6.8z"/><path class="C" d="m874.8 191.5l2.4-7.2-3.1 0.4-0.1 6.8z"/><path class="D" d="m894.6 97.9c-0.1 2-0.4 4.3-0.6 6.3-0.3 2.7-0.5 4.9-0.5 4.9h-14.5c-0.1-0.4-0.3-1.1-0.6-2-1-2.3-2.6-5.8-3.7-9.3-1-2.9-1.5-5.9-0.8-7.8 1.3-4.2 14.8-4.9 16.6-2.8 1.9 2 3.5 4.7 4.1 6.6 0.1 0.6 0.1 2.2 0 4.1z"/><path class="E" d="m894.6 97.9c-0.1 2-0.4 4.3-0.6 6.3q-0.2 0-0.6-0.1c-6.6-0.3-12.6 1.9-15 3-1-2.3-2.6-5.8-3.7-9.3z"/><path class="U" d="m887.6 86.5c0 1.4-6.9 2.5-7.6 0.5l-0.8-9.2c1.5 0.1 4.7 0.2 6.1 0.3 0.1 0.3 0.4 1.1 0.7 2.1 0.4 1.2 0.8 2.7 1.1 3.9 0.3 1.1 0.6 2 0.5 2.4z"/><path class="H" d="m887.4 85c-4.4 0.1-6.3-4-6.3-4 1.7-1.1 3.4-1.2 4.9-0.8 0.4 1.2 1 3.6 1.4 4.8z"/><path class="T" d="m879 109.1c0 0-6.3 6.4-5.9 14.4 7.2 1.9 24.3-0.4 24.3-0.4-0.5-5.3-0.9-8.7-3.9-14-10.5 0-14.5 0-14.5 0z"/><path class="U" d="m893.8 97.6c-0.4 0.3-1.1 1-2 1.7-0.9 0.8-2.1 1.8-3.3 2.6-2.5 1.7-5.4 3.1-8 2.6-5.1-1.1-9.1-11.7-6.6-14.5 2.4-2.9 5.6-2.2 7.2 2 0.8 2.2 1.4 6.5 1.4 6.5q0.3-0.1 0.5-0.2 0.9-0.2 1.6-0.5c4.7-1.4 6.4-1.8 7.9-2.2 1.5-0.4 2.6 0.5 1.3 2z"/><path class="H" d="m891.8 99.3c-0.9 0.8-2.1 1.8-3.3 2.6-1.2-2-5.2-3.3-6-3.4 0.6-0.2 1.6-0.5 2.1-0.7l2.1-0.5z"/><path class="U" d="m898.9 100.3c-3.4 3.5-15.1-1.6-15.1-1.6-1.5-0.4-1.3-3 0.9-2.8l6.3 0.2 3.3 0.1c0 0 0.6-1.6-0.4-4.1q0 0 0 0c-0.6-1.4-1.6-3.1-3.4-4.9 1.8 0.6 11 10.3 8.4 13.1z"/><path class="H" d="m895.9 96.4c-1 0-1.2-0.2-4.9-0.3l3.3 0.1c0 0 0.6-1.6-0.4-4.1 1 1.7 1.5 3 2 4.3z"/><path class="V" d="m896.1 96.5q0 0 0 0c-5-0.5-11.9-0.5-12-0.5q0-0.1-0.1-0.1 0.1-0.1 0.1-0.1 0 0 0 0c0.1 0 7 0.1 12.1 0.6q0 0 0 0.1 0 0-0.1 0z"/><path class="V" d="m891.3 101.2c-1.1-0.2-3.5-0.9-5.3-1.5-1.1-0.4-2.1-0.7-2.6-0.9-1.1-0.4-1.1-0.4-1.1-0.4l-0.2-1.7h0.2l0.1 1.6c0.5 0.2 6.8 2.4 8.9 2.7z"/><path class="H" d="m884.1 98.9c0.1 0-1.7-0.5-1.7-0.5l-0.3-2.2c0 0 1.6-0.5 2.9-0.3-2.5 0-2.8 1.9-0.9 3z"/><path class="W" d="m892.6 95.6c0 0 2.6-0.7 3.1 0.7-1.7-0.1-3.3-0.2-3.3-0.2z"/><path class="U" d="m891.7 74.3c1 4.6-1.1 9.8-3.4 10.5-3.8 1-9.3-2.7-10.3-7.3-1.1-4.6 1.1-9.1 4.9-9.9 3.7-0.9 7.7 2.1 8.8 6.7z"/><path class="S" d="m888.6 68.7c0 0-7.7 6-9 13.5q-1.5-1.6-2.5-3.1c-2.5-3.9-2.4-7.4 0.3-10.4 3.1-3.3 8.3-2.9 11.2 0z"/><path class="S" d="m887.7 69.5c0 0 2.6 1.2 3.9 4.6-0.4-3.7-4-10.4-11.6-7.1-7.5 3.2 7.7 2.5 7.7 2.5z"/><path class="X" d="m875.6 76.2c0.4-2.2 14.5-5.7 15.8-3.2 0 0-1.2-9.3-10.4-6.8-9.1 2.4-5.4 10-5.4 10z"/><path class="F" d="m875.6 76.2c0.4-2.2 14.5-5.7 15.8-3.2 0 0-0.9-8.6-10-6.3-8.5 2.1-5.8 9.5-5.8 9.5z"/><path class="X" d="m876.6 78.2c-0.6 0.5-5.5 2-4.7 0.2 0.9-2.2 5.3-4 7.2-4.1-0.8 0.6-3.3 1.9-2.5 3.9z"/><path class="S" d="m884.5 71.5c0 0 2.5-1 5.6-0.1-0.5-1.9-2.3-2.7-3.6-2.5-2.3 0.3-2 2.6-2 2.6z"/><path class="W" d="m882 77.3c0.3 0.9-0.1 1.9-1 2.2-0.8 0.3-1.8-0.2-2.1-1-0.3-0.9 0.1-1.8 1-2.2 0.9-0.3 1.8 0.2 2.1 1z"/><path class="Y" d="m880.7 79.2q-0.1 0-0.1 0-0.1 0-0.1-0.1 0.2-0.7 0-1.1c-0.3-0.4-0.7-0.5-0.7-0.5q-0.2 0-0.1-0.2 0-0.1 0.1-0.1c0 0 0.6 0.1 0.9 0.6q0.3 0.5 0.1 1.3 0 0.1-0.1 0.1z"/><path class="F" d="m883.6 78.9c0.1-0.1 3.8 1.9 5.9 0.4 0 0 1.1 1.2 2.1 0.6-0.2 1.9-1.7 4.8-3.6 5-4.4 0.5-6.6-3.8-6.6-3.8 0 0 1.5 0.2 2.2-2.2z"/><path class="F" d="m884.2 79.6q0 0-0.1-0.1l-2.5-2.9q-0.1-0.1 0-0.2 0.1 0 0.2 0.1l2.5 2.9q0.1 0.1 0 0.1 0 0.1-0.1 0.1z"/><path class="F" d="m882.5 82.4q0 0-0.1-0.1l-2.2-2.5q0-0.1 0-0.2 0.1 0 0.2 0.1l2.2 2.5q0.1 0 0 0.1 0 0.1-0.1 0.1z"/><path class="Y" d="m889.7 78.8c-0.3 0-0.4 0-0.5 0q-0.1-0.1 0-0.2 0-0.1 0.1 0c0.1 0 0.7 0.2 1-0.3q0.1-0.1 0-0.2c-0.1-0.3-0.8-0.7-1.1-0.8q-0.1-0.1-0.1-0.2 0.1-0.1 0.2-0.1c0.1 0.1 1.1 0.5 1.3 1q0 0.3-0.1 0.4c-0.2 0.4-0.6 0.4-0.8 0.4z"/><path class="R" d="m888.2 77c-0.4 0.5-2.9 0.6-3.3 0.2-0.5-0.7-0.6-1.9-0.1-2.2 0.5-0.2 3.1-0.3 3.5 0.2 0.3 0.4 0.2 1.4-0.1 1.8z"/><path class="R" d="m889.9 76.8c0.4 0.4 2.4 0.2 2.6-0.1 0.4-0.6 0.2-1.6-0.2-1.8-0.8-0.5-2.3-0.2-2.6 0.2-0.2 0.4 0 1.4 0.2 1.7z"/><path class="Z" d="m881.4 76.5q-0.1 0-0.1-0.1 0-0.1 0.1-0.1l2.9-0.4c0-0.6 0.6-1.1 1.4-1.3 1.1-0.2 2.5 0 2.8 0.7 0.3 0 0.6 0 0.9 0 0.3-0.6 1.2-0.8 2-0.8 0.7 0 1.3 0.3 1.4 0.7q0 0.2-0.1 0.2-0.1 0-0.1-0.1c-0.1-0.3-0.6-0.5-1.3-0.5-0.7-0.1-1.5 0.1-1.7 0.7q0 0-0.1 0c-0.3 0.1-0.8 0.1-1.1 0.1q-0.1 0-0.1-0.1c-0.2-0.6-1.5-0.9-2.5-0.7-0.4 0.1-1.3 0.4-1.2 1.2q0 0.1-0.1 0.1l-3.1 0.4q0 0 0 0z"/><path class="a0" d="m819.2 73.8c0.4-1.3 0.8-4.7-1.9-6.2-0.5-2.6-1.4-5.1-6-5.4-4.3-0.2-9.3 3.4-9.5 1.2 1.1 0.5 3-0.8 5.3-1.6 3-1 10.1-2.1 10.6 5.2 3 2.1 2.6 4.8 1.5 6.8z"/></svg>