<svg version="1.2" xmlns="http://www.w3.org/2000/svg" viewBox="0 0 1024 245" width="1024" height="245"><defs><clipPath clipPathUnits="userSpaceOnUse" id="cp1"><path d="m1002.53 226.86h-727.06v-220.46h727.06z"/></clipPath></defs><style>.a{opacity:.1}.b{fill:#4da0d8}.c{fill:#faf0f0}.d{fill:none;stroke:#c7f3f6;stroke-width:.4}.e{fill:#fff}.f{fill:#194c8c}.g{fill:#123968}.h{fill:#d7e1ec}.i{fill:#776f67}.j{fill:none;stroke:#a09999;stroke-linecap:round;stroke-width:.6}.k{fill:#c8d0dc}.l{fill:#f9691d}.m{fill:#fde6bf}.n{fill:#404954}.o{opacity:.2}.p{fill:#536a90}.q{fill:#ecf7fc}.r{fill:#d3caca}.s{opacity:.1;fill:#464d53}.t{opacity:.3;fill:#464d53}.u{opacity:.5;fill:#79c7fe}.v{fill:#4e4d5d}.w{fill:none}.x{fill:#323c44}.y{fill:#404954;stroke:#404954;stroke-width:1.6}.z{fill:none;stroke:#dde0ea;stroke-linejoin:round;stroke-width:2}.A{fill:#dde0ea}.B{opacity:.5;fill:#123968}</style><path class="a" d="m799.5 226.5h-727v-220.5h727z"/><path class="b" d="m0.5 0h1023.5v245h-1023.5z"/><g clip-path="url(#cp1)"><g style="opacity:.4;mix-blend-mode:overlay"><path  d="m654.9 14.6q86.2 0 172.5 0c1.1 0.5 2 1.2 2.9 2.1q9.6 9.7 19.3 19.3c0.5 0.5 0.9 1 1.7 1q3 0 5.9 0.4c1.1 0.1 1.4-0.3 1.4-1.3 0-1.1 0.2-2.2 0.3-3.2 0-0.8 0.4-1.1 1.1-1q2.2 0.1 4.3 0.2c0.6 0.1 1.2 0 1.4-0.7 0.6-2.4 1.6-4.8 0.1-7.2-0.2-0.3-0.3-0.7-0.4-1-0.5-1.5-0.1-2.3 1.5-2.3 1.6 0.1 3.2 0.3 4.8 0.3 1.4 0 2.4 0.5 3.3 1.4 5.2 5.3 10.5 10.5 15.7 15.8 1 1 2.1 1.5 3.4 1.6 4.8 0.2 9.5 0.6 14.3 0.8 2.2 0.1 4 0.9 5.6 2.6 2.7 2.9 5.7 5.6 8.4 8.5 1.2 1.3 2.3 1.4 3.8 0.8 4.5-1.7 24.3 3.9 28.4 3.9 4.1 0 21.8-5.1 26-3.7 1 0.3 1.8 0.8 2.5 1.5q9.2 9.2 18.4 18.4 40.6 40.6 81.1 81.2 0 1.9 0 3.9c-2 1.2-2.1 3.1-2.1 5.1q0 0.3-0.1 0.7c-0.2 4.9-3.6 8.5-8.5 9.2-1.5 0.2-3 0.1-4.4 0.2-3.3 0.2-6-1-8.2-3.3q-2.9-2.9-5.8-5.8c-2.4-2.4-2.4-2.3-4 0.5-0.5 0.9-0.4 1.5 0.3 2.2 2.9 2.8 5.7 5.6 8.5 8.4 0.5 0.5 1 1 1.1 1.7 0.4 2.5 1 5 0.9 7.6 0 11.9 0 23.8 0 35.7 0 1.3 0.4 2.2 1.3 3.1 6.4 6.3 12.7 12.7 19.1 19 0.6 0.6 1.2 1.1 1.2 2q0 6.7 0 13.5c0 0.9-0.6 1.4-1.5 1.5q-0.9 0.1-1.8 0-16.5 0-33 0.1c-0.6 0-1.1-0.2-1.7 0.2 0.1 0.5 0.6 0.8 1 1.1q17.5 17.6 35.1 35.2c1.1 1.1 1.6 2.2 1.6 3.8-0.1 2.6 0 5.2-0.6 7.8-0.5 1.7-1.9 2.3-3.3 1.2-0.8-0.7-1.6-1.6-2.4-2.4-0.2-0.2-0.5-0.6-0.9-0.5-0.5 0.2-0.4 0.6-0.4 1 0 1-0.2 1.9-1.2 2.3-1.2 0.4-2-0.3-2.7-1-1-0.9-1.8-2-3-2.8-0.1 0.4-0.1 0.7-0.1 0.9 0 2.3-0.5 2.7-2.8 2.3q-0.6-0.1-1.1-0.3c-0.4-0.2-0.8-0.3-1.2 0-0.6 0.6-1.5 0.7-2.1 0.4-1.4-0.7-2.7-0.2-4 0-1.2 0.3-2.2-0.1-3-1.1-1.2-1.2-2.5-2.4-3.7-3.6-0.3 1.1-0.3 2.1-0.3 3 0 0.5-0.1 1.1-0.7 1.1-1.9 0.1-3.9 0.7-5.6-0.6-0.4-0.4-0.7-0.2-1.1 0-1.9 1.4-3.7 1.4-5.7 0-0.4-0.3-0.8-0.4-1.3 0-1.7 1.5-5.2 1.4-6.8-0.2q-3.4-3.4-6.8-6.8c-0.3-0.3-0.6-0.8-1.2-0.8-0.3 0.5-0.1 1-0.1 1.5q0 6.6 0 13.1c0 2.2 0 2.2-2.2 2.2q-28.7 0-57.4 0c-1.3 0-2.2-0.3-3.1-1.2q-12.9-13-25.8-25.9c-0.3-0.2-0.5-0.7-1.2-0.6 0.5 2.1 0.3 4.3 0.5 6.4 0.6 5.6-0.9 10.5-5.2 14.2-3.2 2.8-7.5 2.9-10.8 0.3-0.9-0.7-1.7-1.5-2.5-2.3q-6.8-6.8-13.5-13.5c-0.4-0.4-0.7-0.9-1.4-1 0 0.6 0 1.1 0 1.6 0 6.1-0.1 12.2 0 18.2 0 1.9-0.7 3.3-2.4 4.1q-51.5 0-103 0c-0.8-0.7-1.6-1.4-2.4-2.1q-27.2-27.2-54.4-54.4c-0.3-0.4-0.6-0.7-1-1-0.9-0.6-2.3-0.1-2.2 0.9 0.1 3.7-0.7 7.4 0.5 11.1 0 0.3 0.1 0.7-0.1 0.9-0.6 1.1-0.5 2.3-0.5 3.5 0.1 2.9-0.5 4.1-4.4 4.5-3.6 0.3-7.3 0.3-10.9 0.3-0.3 0-0.8-0.2-1.1 0.3q0.4 0.4 0.8 0.8 5 5.1 10.1 10.1 4.4 4.4 8.9 8.9c1 1.1 1.4 2.3 0.9 3.7-0.6 1.5-1.7 2-3.2 2.1q-0.5 0.1-1 0.1-10.4 0-20.8 0c-1.1 0-2.1-0.3-2.9-1.1-1.2-1-2.6-0.6-3.9-0.4-0.9 0.1-0.8 1.2-1 1.8-1.5 5.4-6.2 9.2-11.8 9.6-4.6 0.3-8.1-1.6-11.3-4.7-10.4-10.4-20.8-20.8-31.2-31.3q-29.6-29.5-59.1-59.1c-3-2.9-6-5.8-8.8-8.9-6.5-7.3-4.2-17.5 4.7-21.5 1-0.4 0.9-0.7 0.2-1.4-2.7-2.6-5.3-5.4-8-8-0.8-0.8-1.2-1.7-1.1-2.8q0-32.4 0-64.7c0-2.2 0-2.2 2.1-2.2q15.6 0 31.1 0c0.5 0 1.1 0.2 1.6-0.1-0.1-0.7-0.7-1-1.1-1.4-8.9-9-17.9-17.9-26.8-26.9q-2-2-3.8-4.2c-4.2-5.1-6.6-10.9-7.5-17.4q0-4 0-8.1 0.2-1.2 0.4-2.3c2.8-12.8 10.3-21.6 22.7-25.7 12.3-4.1 23.7-1.5 33.3 7.2 7.5 6.9 14.5 14.3 21.7 21.5 0.4 0.4 0.8 1 1.6 1.1 0-0.6 0-1.2 0-1.7 0-11.3 0-22.5 0-33.8 0-2.4 0.9-4.2 3.1-5.2z"/></g></g><path fill-rule="evenodd" class="c" d="m922.4 52.5v80.8c0 1.7-1.4 3.1-3.2 3.1h-59c-1.8 0-3.2-1.4-3.2-3.1v-80.8c0-1.7 1.4-3.2 3.2-3.2h59c1.8 0 3.2 1.5 3.2 3.2zm-59.1 77.7c0-0.7-0.6-1.3-1.3-1.3-0.7 0-1.3 0.6-1.3 1.3 0 0.7 0.6 1.3 1.3 1.3 0.7 0 1.3-0.6 1.3-1.3zm0-4.7c0-0.7-0.6-1.3-1.3-1.3-0.7 0-1.3 0.6-1.3 1.3 0 0.7 0.6 1.3 1.3 1.3 0.7 0 1.3-0.6 1.3-1.3zm0-4.6c0-0.8-0.6-1.3-1.3-1.3-0.7 0-1.3 0.5-1.3 1.3 0 0.7 0.6 1.3 1.3 1.3 0.7 0 1.3-0.6 1.3-1.3zm0-4.7c0-0.7-0.6-1.3-1.3-1.3-0.7 0-1.3 0.6-1.3 1.3 0 0.7 0.6 1.3 1.3 1.3 0.7 0 1.3-0.6 1.3-1.3zm0-4.7c0-0.7-0.6-1.3-1.3-1.3-0.7 0-1.3 0.6-1.3 1.3 0 0.7 0.6 1.3 1.3 1.3 0.7 0 1.3-0.6 1.3-1.3zm0-4.6c0-0.7-0.6-1.3-1.3-1.3-0.7 0-1.3 0.6-1.3 1.3 0 0.7 0.6 1.3 1.3 1.3 0.7 0 1.3-0.6 1.3-1.3zm0-4.7c0-0.7-0.6-1.3-1.3-1.3-0.7 0-1.3 0.6-1.3 1.3 0 0.7 0.6 1.3 1.3 1.3 0.7 0 1.3-0.6 1.3-1.3zm0-4.7c0-0.7-0.6-1.2-1.3-1.2-0.7 0-1.3 0.5-1.3 1.2 0 0.8 0.6 1.3 1.3 1.3 0.7 0 1.3-0.5 1.3-1.3zm0-4.6c0-0.7-0.6-1.3-1.3-1.3-0.7 0-1.3 0.6-1.3 1.3 0 0.7 0.6 1.3 1.3 1.3 0.7 0 1.3-0.6 1.3-1.3zm0-4.7c0-0.7-0.6-1.3-1.3-1.3-0.7 0-1.3 0.6-1.3 1.3 0 0.7 0.6 1.3 1.3 1.3 0.7 0 1.3-0.6 1.3-1.3zm0-4.6c0-0.8-0.6-1.3-1.3-1.3-0.7 0-1.3 0.5-1.3 1.3 0 0.7 0.6 1.3 1.3 1.3 0.7 0 1.3-0.6 1.3-1.3zm0-4.7c0-0.7-0.6-1.3-1.3-1.3-0.7 0-1.3 0.6-1.3 1.3 0 0.7 0.6 1.3 1.3 1.3 0.7 0 1.3-0.6 1.3-1.3zm0-4.7c0-0.7-0.6-1.3-1.3-1.3-0.7 0-1.3 0.6-1.3 1.3 0 0.8 0.6 1.3 1.3 1.3 0.7 0 1.3-0.5 1.3-1.3zm0-4.6c0-0.7-0.6-1.3-1.3-1.3-0.7 0-1.3 0.6-1.3 1.3 0 0.7 0.6 1.3 1.3 1.3 0.7 0 1.3-0.6 1.3-1.3zm0-4.7c0-0.7-0.6-1.3-1.3-1.3-0.7 0-1.3 0.6-1.3 1.3 0 0.7 0.6 1.3 1.3 1.3 0.7 0 1.3-0.6 1.3-1.3zm0-4.6c0-0.8-0.6-1.3-1.3-1.3-0.7 0-1.3 0.5-1.3 1.3 0 0.7 0.6 1.3 1.3 1.3 0.7 0 1.3-0.6 1.3-1.3zm0-4.7c0-0.7-0.6-1.3-1.3-1.3-0.7 0-1.3 0.6-1.3 1.3 0 0.7 0.6 1.3 1.3 1.3 0.7 0 1.3-0.6 1.3-1.3z"/><path class="d" d="m867.7 61.6h47.1"/><path class="d" d="m867.7 65.8h47.1"/><path class="d" d="m867.7 69.9h47.1"/><path class="d" d="m867.7 74.1h47.1"/><path class="d" d="m867.7 78.2h47.1"/><path class="d" d="m867.7 82.4h47.1"/><path class="d" d="m867.7 86.6h47.1"/><path class="d" d="m867.7 90.7h47.1"/><path class="d" d="m867.7 94.9h47.1"/><path class="d" d="m867.7 99h47.1"/><path class="d" d="m867.7 103.2h47.1"/><path class="d" d="m867.7 107.4h47.1"/><path class="d" d="m867.7 111.5h47.1"/><path class="d" d="m867.7 115.7h47.1"/><path class="d" d="m867.7 119.9h47.1"/><path class="d" d="m867.7 124h47.1"/><path class="d" d="m867.7 128.2h47.1"/><path fill-rule="evenodd" class="e" d="m914.9 43.9l-5.6 80.6c-0.1 1.7-1.7 3.1-3.4 2.9l-58.9-4.1c-1.8-0.1-3.1-1.6-3-3.4l5.6-80.5c0.1-1.7 1.7-3.1 3.4-2.9l58.9 4.1c1.8 0.1 3.1 1.6 3 3.3zm-64.4 73.4c0.1-0.7-0.5-1.3-1.2-1.4-0.7 0-1.3 0.5-1.4 1.2 0 0.8 0.5 1.4 1.2 1.4 0.8 0.1 1.4-0.5 1.4-1.2zm0.4-4.6c0-0.7-0.5-1.4-1.3-1.4-0.7-0.1-1.3 0.5-1.3 1.2-0.1 0.7 0.5 1.3 1.2 1.4 0.7 0 1.3-0.5 1.4-1.2zm0.3-4.7c0-0.7-0.5-1.3-1.2-1.4-0.7 0-1.4 0.5-1.4 1.2-0.1 0.8 0.5 1.4 1.2 1.4 0.7 0.1 1.3-0.5 1.4-1.2zm0.3-4.6c0-0.7-0.5-1.4-1.2-1.4-0.7-0.1-1.3 0.5-1.4 1.2 0 0.7 0.5 1.3 1.2 1.4 0.7 0 1.3-0.5 1.4-1.2zm0.3-4.7c0.1-0.7-0.5-1.3-1.2-1.4-0.7 0-1.3 0.5-1.4 1.2 0 0.8 0.5 1.4 1.2 1.4 0.8 0.1 1.4-0.5 1.4-1.2zm0.3-4.6c0.1-0.7-0.4-1.4-1.2-1.4-0.7-0.1-1.3 0.5-1.3 1.2-0.1 0.7 0.4 1.3 1.2 1.4 0.7 0 1.3-0.5 1.3-1.2zm0.4-4.7c0-0.7-0.5-1.3-1.2-1.4-0.8 0-1.4 0.5-1.4 1.2-0.1 0.8 0.5 1.4 1.2 1.4 0.7 0.1 1.3-0.5 1.4-1.2zm0.3-4.6c0-0.7-0.5-1.4-1.2-1.4-0.7-0.1-1.3 0.5-1.4 1.2 0 0.7 0.5 1.3 1.2 1.4 0.7 0 1.3-0.5 1.4-1.2zm0.3-4.7c0.1-0.7-0.5-1.3-1.2-1.4-0.7 0-1.3 0.5-1.4 1.2 0 0.8 0.5 1.4 1.2 1.4 0.7 0.1 1.4-0.5 1.4-1.2zm0.3-4.6c0.1-0.7-0.5-1.4-1.2-1.4-0.7-0.1-1.3 0.5-1.4 1.2 0 0.7 0.5 1.3 1.3 1.4 0.7 0 1.3-0.5 1.3-1.2zm0.4-4.7c0-0.7-0.5-1.3-1.2-1.4-0.8 0-1.4 0.5-1.4 1.2-0.1 0.7 0.5 1.4 1.2 1.4 0.7 0.1 1.3-0.5 1.4-1.2zm0.3-4.6c0-0.7-0.5-1.4-1.2-1.4-0.7-0.1-1.4 0.5-1.4 1.2-0.1 0.7 0.5 1.3 1.2 1.4 0.7 0 1.3-0.5 1.4-1.2zm0.3-4.7c0.1-0.7-0.5-1.3-1.2-1.4-0.7 0-1.3 0.5-1.4 1.2 0 0.8 0.5 1.4 1.2 1.4 0.7 0.1 1.4-0.5 1.4-1.2zm0.3-4.6c0.1-0.7-0.5-1.4-1.2-1.4-0.7-0.1-1.3 0.5-1.4 1.2 0 0.7 0.5 1.3 1.2 1.4 0.8 0 1.4-0.5 1.4-1.2zm0.4-4.7c0-0.7-0.5-1.3-1.3-1.4-0.7 0-1.3 0.5-1.3 1.2-0.1 0.7 0.5 1.4 1.2 1.4 0.7 0.1 1.3-0.5 1.4-1.2zm0.3-4.6c0-0.7-0.5-1.4-1.2-1.4-0.7-0.1-1.4 0.5-1.4 1.2-0.1 0.7 0.5 1.3 1.2 1.4 0.7 0 1.3-0.5 1.4-1.2zm0.3-4.7c0-0.7-0.5-1.3-1.2-1.4-0.7 0-1.3 0.5-1.4 1.2 0 0.7 0.5 1.4 1.2 1.4 0.7 0.1 1.3-0.5 1.4-1.2z"/><path class="d" d="m859.7 49.2l46.9 3.3"/><path class="d" d="m859.4 53.4l47 3.2"/><path class="d" d="m859.1 57.5l47 3.3"/><path class="d" d="m858.8 61.7l47 3.2"/><path class="d" d="m858.6 65.8l46.9 3.3"/><path class="d" d="m858.3 70l46.9 3.2"/><path class="d" d="m858 74.1l46.9 3.3"/><path class="d" d="m857.7 78.3l46.9 3.2"/><path class="d" d="m857.4 82.4l46.9 3.3"/><path class="d" d="m857.1 86.6l47 3.2"/><path class="d" d="m856.8 90.7l47 3.3"/><path class="d" d="m856.5 94.9l47 3.2"/><path class="d" d="m856.2 99l47 3.3"/><path class="d" d="m856 103.2l46.9 3.2"/><path class="d" d="m855.7 107.3l46.9 3.3"/><path class="d" d="m855.4 111.5l46.9 3.2"/><path class="d" d="m855.1 115.6l46.9 3.3"/><path class="f" d="m860.3 31.3l-0.7 10.1c0 0.3 0.3 0.6 0.6 0.6l3.7 0.2 0.4-1.3 2.2 0.1 1.3 1.4q0.1 0.2 0.4 0.2l3 0.2q0.3 0 0.5-0.2l1.4-1.2 2.2 0.2 0.2 1.4 3.7 0.2c0.3 0 0.5-0.2 0.5-0.5l0.7-10.1z"/><path class="g" d="m859.8 38.8l-0.2 2.6c0 0.3 0.3 0.6 0.6 0.6l3.7 0.2 0.4-1.3 2.2 0.1 1.3 1.4q0.1 0.2 0.4 0.2l3 0.2q0.3 0 0.5-0.2l1.4-1.2 2.2 0.2 0.2 1.4 3.7 0.2c0.3 0 0.5-0.2 0.5-0.5l0.2-2.6z"/><path class="h" d="m875.4 22.5c0.2-0.3 0.2-0.8 0-1.1-0.2-0.4-0.6-0.6-1-0.7l-6.5-0.4c-0.5 0-0.9 0.2-1.1 0.5-0.3 0.3-0.3 0.8-0.2 1.2l1.3 3.1c0.3 0.6 0.3 1.3 0.2 1.9l-3.6 14.2h-0.3l-0.3 0.8 1 0.1c0.2 0 0.4-0.2 0.4-0.4l3.6-14.4c0.2-0.9 0.2-1.7-0.2-2.5l-1.2-3.2q-0.1-0.1 0-0.3 0.1-0.1 0.3-0.1l6.6 0.4q0.2 0 0.2 0.2 0.1 0.1 0 0.3l-1.6 3c-0.4 0.7-0.6 1.5-0.5 2.4l1.7 14.8c0 0.2 0.2 0.4 0.4 0.4l0.9 0.1-0.1-0.9h-0.4l-1.6-14.5c-0.1-0.7 0-1.3 0.3-1.9z"/><path class="f" d="m930.2 197.3l0.1 10.2c0 0.3 0.3 0.5 0.6 0.5h3.7l0.3-1.4h2.3l1.3 1.3q0.2 0.2 0.5 0.2h2.9q0.3 0 0.5-0.2l1.3-1.3h2.3l0.3 1.3h3.7c0.3 0 0.5-0.2 0.5-0.5l-0.1-10.2z"/><path class="g" d="m930.3 204.9v2.6c0 0.3 0.3 0.5 0.6 0.5h3.7l0.3-1.4h2.3l1.3 1.3q0.2 0.2 0.5 0.2h2.9q0.3 0 0.5-0.2l1.3-1.3h2.3l0.3 1.3h3.7c0.3 0 0.5-0.2 0.5-0.5l-0.1-2.6z"/><path class="h" d="m944.7 187.5c0.2-0.3 0.1-0.8-0.1-1.1-0.2-0.4-0.6-0.6-1-0.6l-6.6 0.1c-0.4 0-0.8 0.2-1 0.5-0.3 0.4-0.3 0.8-0.1 1.2l1.5 3.1c0.3 0.6 0.4 1.2 0.3 1.9l-2.5 14.3h-0.4l-0.2 0.9h1c0.2 0 0.4-0.2 0.4-0.4l2.5-14.7c0.2-0.8 0.1-1.7-0.3-2.4l-1.5-3.1q-0.1-0.1 0-0.3 0.1-0.1 0.3-0.1l6.6-0.1q0.2 0 0.3 0.2 0.1 0.1 0 0.3l-1.5 3c-0.3 0.8-0.4 1.7-0.3 2.5l2.8 14.7c0 0.2 0.2 0.3 0.4 0.3h0.9l-0.1-0.8h-0.4l-2.7-14.4c-0.1-0.6-0.1-1.3 0.2-1.9z"/><path class="f" d="m955.6 201.4l0.1 6.6c0 0.2 0.2 0.3 0.4 0.3h2.4l0.2-0.9h1.4l0.9 0.8q0.1 0.2 0.3 0.2l1.9-0.1q0.2 0 0.4-0.1l0.8-0.8 1.5-0.1 0.2 0.9h2.4c0.2 0 0.3-0.1 0.3-0.3l-0.1-6.6z"/><path class="g" d="m955.7 206.3v1.7c0 0.2 0.2 0.3 0.4 0.3h2.4l0.2-0.9h1.4l0.9 0.8q0.1 0.2 0.3 0.2l1.9-0.1q0.2 0 0.4-0.1l0.8-0.8 1.5-0.1 0.2 0.9h2.4c0.2 0 0.3-0.1 0.3-0.3v-1.7z"/><path class="h" d="m965 195c0.2-0.3 0.1-0.5 0-0.8-0.2-0.2-0.4-0.3-0.7-0.3h-4.3c-0.2 0-0.5 0.1-0.6 0.4-0.2 0.2-0.2 0.5-0.1 0.7l1 2q0.3 0.6 0.2 1.3l-1.6 9.3h-0.3l-0.1 0.6h0.6c0.1 0 0.3-0.1 0.3-0.3l1.6-9.5c0.1-0.6 0.1-1.1-0.2-1.6l-1-2q0-0.1 0-0.2 0.1-0.1 0.2-0.1l4.3-0.1q0.1 0 0.2 0.1 0.1 0.1 0 0.2l-0.9 2q-0.4 0.8-0.2 1.6l1.8 9.6c0 0.1 0.1 0.2 0.2 0.2h0.6l-0.1-0.6h-0.2l-1.8-9.3q-0.1-0.6 0.2-1.2z"/><path class="g" d="m944 76.6c0-0.4-0.6-0.7-1.4-0.7-0.8 0-1.4 0.3-1.4 0.7v5.9l0.8 3.9h1.2l0.8-3.9v-5.9z"/><path class="f" d="m944 82.5v-5.9c0-0.4-0.6-0.7-1.4-0.7-0.8 0-1.4 0.3-1.4 0.7v5.9z"/><path class="f" d="m949.7 99.8h-14.2v-1.2h14.2z"/><path class="i" d="m943.1 101.7c0 0.3-0.2 0.5-0.5 0.5-0.3 0-0.5-0.2-0.5-0.5v-5.2c0-0.2 0.2-0.5 0.5-0.5 0.3 0 0.5 0.3 0.5 0.5z"/><path class="g" d="m932.5 124.6c0-1 0.8-1.7 1.7-1.7 1 0 1.8 0.7 1.8 1.7 0 1-0.8 1.7-1.8 1.7-0.9 0-1.7-0.7-1.7-1.7z"/><path class="j" d="m933.2 127.5v3"/><path class="k" d="m933.8 128.3c-0.1 0.2-0.3 0.4-0.5 0.4-0.3 0-0.5-0.2-0.6-0.4l-0.9-3.8q0-0.1 0-0.3l8.5-39.8q0-0.2 0.2-0.3 0.2-0.1 0.4-0.1l0.6 0.1c0.1 0.1 0.3 0.2 0.3 0.4l0.8 2.3q0.1 0.2 0 0.3z"/><path class="j" d="m952 127.5v3"/><path class="k" d="m951.4 128.3c0.1 0.2 0.3 0.4 0.5 0.4 0.3 0 0.5-0.2 0.5-0.4l1-3.8q0-0.1 0-0.3l-8.5-39.8q0-0.2-0.2-0.3-0.2-0.1-0.4-0.1l-0.6 0.1c-0.1 0.1-0.3 0.2-0.4 0.4l-0.7 2.3q-0.1 0.2 0 0.3z"/><path class="g" d="m944.2 87.7c0 0.9-0.7 1.6-1.6 1.6-0.9 0-1.6-0.7-1.6-1.6 0-0.9 0.7-1.6 1.6-1.6 0.9 0 1.6 0.7 1.6 1.6z"/><path class="f" d="m942.6 86.1q0 0 0 0c-0.9 0-1.6 0.7-1.6 1.6 0 0.9 0.7 1.6 1.6 1.6q0 0 0 0z"/><path class="l" d="m962.1 81.9l-0.6-3.8h-1l-0.6 3.8v47.9h2.2z"/><path class="m" d="m962.1 81.9l-0.6-3.8h-1l-0.6 3.8h2.2z"/><path class="n" d="m961.5 78.1l-0.5-2.7-0.5 2.7z"/><path class="n" d="m962.1 118.4h-2.2v11.4h2.2z"/><path class="c" d="m962.1 118.4h-2.2v1h2.2z"/><path class="n" d="m961 130.3c-0.6 0-1.1-0.2-1.1-0.5 0-0.3 0.5-0.5 1.1-0.5 0.6 0 1.1 0.2 1.1 0.5 0 0.3-0.5 0.5-1.1 0.5z"/><path class="o" d="m961 75.4l-0.5 2.7-0.6 3.8v36.5 11.3q0 0.1 0 0.1c0 0.3 0.5 0.5 1.1 0.5q0 0 0 0v-54.8z"/><path class="l" d="m983.8 157.8c0 0.6-0.4 1-1 1h-124.4c-0.5 0-1-0.4-1-1v-14c0-0.6 0.5-1.1 1-1.1h124.4c0.6 0 1 0.5 1 1.1z"/><g style="opacity:.2"><path  d="m857.4 151v6.8c0 0.6 0.5 1 1 1h124.4c0.6 0 1-0.4 1-1v-6.8z"/></g><path class="p" d="m859.5 146.8h-0.2v-4.1h0.2z"/><path class="p" d="m860.3 145.2h-0.2v-2.5h0.2z"/><path class="p" d="m861 145.2h-0.2v-2.5h0.2z"/><path class="p" d="m861.8 145.2h-0.2v-2.5h0.2z"/><path class="p" d="m862.6 145.2h-0.2v-2.5h0.2z"/><path class="p" d="m863.3 145.2h-0.2v-2.5h0.2z"/><path class="p" d="m864.1 145.2h-0.2v-2.5h0.2z"/><path class="p" d="m864.9 145.2h-0.2v-2.5h0.2z"/><path class="p" d="m865.6 145.2h-0.2v-2.5h0.2z"/><path class="p" d="m866.4 145.2h-0.2v-2.5h0.2z"/><path class="p" d="m867.2 146.8h-0.2v-4.1h0.2z"/><path class="p" d="m867.9 145.2h-0.2v-2.5h0.2z"/><path class="p" d="m868.7 145.2h-0.2v-2.5h0.2z"/><path class="p" d="m869.5 145.2h-0.2v-2.5h0.2z"/><path class="p" d="m870.2 145.2h-0.2v-2.5h0.2z"/><path class="p" d="m871 145.2h-0.2v-2.5h0.2z"/><path class="p" d="m871.8 145.2h-0.2v-2.5h0.2z"/><path class="p" d="m872.5 145.2h-0.2v-2.5h0.2z"/><path class="p" d="m873.3 145.2h-0.2v-2.5h0.2z"/><path class="p" d="m874.1 145.2h-0.2v-2.5h0.2z"/><path class="p" d="m874.8 146.8h-0.2v-4.1h0.2z"/><path class="p" d="m875.6 145.2h-0.2v-2.5h0.2z"/><path class="p" d="m876.4 145.2h-0.2v-2.5h0.2z"/><path class="p" d="m877.1 145.2h-0.2v-2.5h0.2z"/><path class="p" d="m877.9 145.2h-0.2v-2.5h0.2z"/><path class="p" d="m878.7 145.2h-0.2v-2.5h0.2z"/><path class="p" d="m879.4 145.2h-0.2v-2.5h0.2z"/><path class="p" d="m880.2 145.2h-0.2v-2.5h0.2z"/><path class="p" d="m881 145.2h-0.2v-2.5h0.2z"/><path class="p" d="m881.7 145.2h-0.2v-2.5h0.2z"/><path class="p" d="m882.5 146.8h-0.2v-4.1h0.2z"/><path class="p" d="m883.3 145.2h-0.2v-2.5h0.2z"/><path class="p" d="m884 145.2h-0.2v-2.5h0.2z"/><path class="p" d="m884.8 145.2h-0.2v-2.5h0.2z"/><path class="p" d="m885.6 145.2h-0.2v-2.5h0.2z"/><path class="p" d="m886.3 145.2h-0.2v-2.5h0.2z"/><path class="p" d="m887.1 145.2h-0.2v-2.5h0.2z"/><path class="p" d="m887.9 145.2h-0.2v-2.5h0.2z"/><path class="p" d="m888.6 145.2h-0.2v-2.5h0.2z"/><path class="p" d="m889.4 145.2h-0.2v-2.5h0.2z"/><path class="p" d="m890.2 146.8h-0.2v-4.1h0.2z"/><path class="p" d="m890.9 145.2h-0.2v-2.5h0.2z"/><path class="p" d="m891.7 145.2h-0.2v-2.5h0.2z"/><path class="p" d="m892.5 145.2h-0.2v-2.5h0.2z"/><path class="p" d="m893.2 145.2h-0.2v-2.5h0.2z"/><path class="p" d="m894 145.2h-0.2v-2.5h0.2z"/><path class="p" d="m894.8 145.2h-0.2v-2.5h0.2z"/><path class="p" d="m895.5 145.2h-0.2v-2.5h0.2z"/><path class="p" d="m896.3 145.2h-0.2v-2.5h0.2z"/><path class="p" d="m897.1 145.2h-0.2v-2.5h0.2z"/><path class="p" d="m897.8 146.8h-0.2v-4.1h0.2z"/><path class="p" d="m898.6 145.2h-0.2v-2.5h0.2z"/><path class="p" d="m899.4 145.2h-0.2v-2.5h0.2z"/><path class="p" d="m900.1 145.2h-0.2v-2.5h0.2z"/><path class="p" d="m900.9 145.2h-0.2v-2.5h0.2z"/><path class="p" d="m901.6 145.2h-0.1v-2.5h0.1z"/><path class="p" d="m902.4 145.2h-0.2v-2.5h0.2z"/><path class="p" d="m903.2 145.2h-0.2v-2.5h0.2z"/><path class="p" d="m903.9 145.2h-0.1v-2.5h0.1z"/><path class="p" d="m904.7 145.2h-0.2v-2.5h0.2z"/><path class="p" d="m905.5 146.8h-0.2v-4.1h0.2z"/><path class="p" d="m906.2 145.2h-0.1v-2.5h0.1z"/><path class="p" d="m907 145.2h-0.2v-2.5h0.2z"/><path class="p" d="m907.8 145.2h-0.2v-2.5h0.2z"/><path class="p" d="m908.5 145.2h-0.1v-2.5h0.1z"/><path class="p" d="m909.3 145.2h-0.2v-2.5h0.2z"/><path class="p" d="m910.1 145.2h-0.2v-2.5h0.2z"/><path class="p" d="m910.8 145.2h-0.1v-2.5h0.1z"/><path class="p" d="m911.6 145.2h-0.2v-2.5h0.2z"/><path class="p" d="m912.4 145.2h-0.2v-2.5h0.2z"/><path class="p" d="m913.1 146.8h-0.1v-4.1h0.1z"/><path class="p" d="m913.9 145.2h-0.2v-2.5h0.2z"/><path class="p" d="m914.7 145.2h-0.2v-2.5h0.2z"/><path class="p" d="m915.4 145.2h-0.1v-2.5h0.1z"/><path class="p" d="m916.2 145.2h-0.2v-2.5h0.2z"/><path class="p" d="m917 145.2h-0.2v-2.5h0.2z"/><path class="p" d="m917.7 145.2h-0.1v-2.5h0.1z"/><path class="p" d="m918.5 145.2h-0.2v-2.5h0.2z"/><path class="p" d="m919.3 145.2h-0.2v-2.5h0.2z"/><path class="p" d="m920 145.2h-0.1v-2.5h0.1z"/><path class="p" d="m920.8 146.8h-0.2v-4.1h0.2z"/><path class="p" d="m921.6 145.2h-0.2v-2.5h0.2z"/><path class="p" d="m922.3 145.2h-0.2v-2.5h0.2z"/><path class="p" d="m923.1 145.2h-0.2v-2.5h0.2z"/><path class="p" d="m923.9 145.2h-0.2v-2.5h0.2z"/><path class="p" d="m924.6 145.2h-0.2v-2.5h0.2z"/><path class="p" d="m925.4 145.2h-0.2v-2.5h0.2z"/><path class="p" d="m926.2 145.2h-0.2v-2.5h0.2z"/><path class="p" d="m926.9 145.2h-0.2v-2.5h0.2z"/><path class="p" d="m927.7 145.2h-0.2v-2.5h0.2z"/><path class="p" d="m928.5 146.8h-0.2v-4.1h0.2z"/><path class="p" d="m929.2 145.2h-0.2v-2.5h0.2z"/><path class="p" d="m930 145.2h-0.2v-2.5h0.2z"/><path class="p" d="m930.8 145.2h-0.2v-2.5h0.2z"/><path class="p" d="m931.5 145.2h-0.2v-2.5h0.2z"/><path class="p" d="m932.3 145.2h-0.2v-2.5h0.2z"/><path class="p" d="m933.1 145.2h-0.2v-2.5h0.2z"/><path class="p" d="m933.8 145.2h-0.2v-2.5h0.2z"/><path class="p" d="m934.6 145.2h-0.2v-2.5h0.2z"/><path class="p" d="m935.4 145.2h-0.2v-2.5h0.2z"/><path class="p" d="m936.1 146.8h-0.2v-4.1h0.2z"/><path class="p" d="m936.9 145.2h-0.2v-2.5h0.2z"/><path class="p" d="m937.7 145.2h-0.2v-2.5h0.2z"/><path class="p" d="m938.4 145.2h-0.2v-2.5h0.2z"/><path class="p" d="m939.2 145.2h-0.2v-2.5h0.2z"/><path class="p" d="m940 145.2h-0.2v-2.5h0.2z"/><path class="p" d="m940.7 145.2h-0.2v-2.5h0.2z"/><path class="p" d="m941.5 145.2h-0.2v-2.5h0.2z"/><path class="p" d="m942.3 145.2h-0.2v-2.5h0.2z"/><path class="p" d="m943 145.2h-0.2v-2.5h0.2z"/><path class="p" d="m943.8 146.8h-0.2v-4.1h0.2z"/><path class="p" d="m944.6 145.2h-0.2v-2.5h0.2z"/><path class="p" d="m945.3 145.2h-0.2v-2.5h0.2z"/><path class="p" d="m946.1 145.2h-0.2v-2.5h0.2z"/><path class="p" d="m946.9 145.2h-0.2v-2.5h0.2z"/><path class="p" d="m947.6 145.2h-0.2v-2.5h0.2z"/><path class="p" d="m948.4 145.2h-0.2v-2.5h0.2z"/><path class="p" d="m949.2 145.2h-0.2v-2.5h0.2z"/><path class="p" d="m949.9 145.2h-0.2v-2.5h0.2z"/><path class="p" d="m950.7 145.2h-0.2v-2.5h0.2z"/><path class="p" d="m951.5 146.8h-0.2v-4.1h0.2z"/><path class="p" d="m952.2 145.2h-0.2v-2.5h0.2z"/><path class="p" d="m953 145.2h-0.2v-2.5h0.2z"/><path class="p" d="m953.8 145.2h-0.2v-2.5h0.2z"/><path class="p" d="m954.5 145.2h-0.2v-2.5h0.2z"/><path class="p" d="m955.3 145.2h-0.2v-2.5h0.2z"/><path class="p" d="m956.1 145.2h-0.2v-2.5h0.2z"/><path class="p" d="m956.8 145.2h-0.2v-2.5h0.2z"/><path class="p" d="m957.6 145.2h-0.2v-2.5h0.2z"/><path class="p" d="m958.4 145.2h-0.2v-2.5h0.2z"/><path class="p" d="m959.1 146.8h-0.2v-4.1h0.2z"/><path class="p" d="m959.9 145.2h-0.2v-2.5h0.2z"/><path class="p" d="m960.7 145.2h-0.2v-2.5h0.2z"/><path class="p" d="m961.4 145.2h-0.2v-2.5h0.2z"/><path class="p" d="m962.2 145.2h-0.2v-2.5h0.2z"/><path class="p" d="m963 145.2h-0.2v-2.5h0.2z"/><path class="p" d="m963.7 145.2h-0.2v-2.5h0.2z"/><path class="p" d="m964.5 145.2h-0.2v-2.5h0.2z"/><path class="p" d="m965.3 145.2h-0.2v-2.5h0.2z"/><path class="p" d="m966 145.2h-0.2v-2.5h0.2z"/><path class="p" d="m966.8 146.8h-0.2v-4.1h0.2z"/><path class="p" d="m967.6 145.2h-0.2v-2.5h0.2z"/><path class="p" d="m968.3 145.2h-0.2v-2.5h0.2z"/><path class="p" d="m969.1 145.2h-0.2v-2.5h0.2z"/><path class="p" d="m969.9 145.2h-0.2v-2.5h0.2z"/><path class="p" d="m970.6 145.2h-0.2v-2.5h0.2z"/><path class="p" d="m971.4 145.2h-0.2v-2.5h0.2z"/><path class="p" d="m972.2 145.2h-0.2v-2.5h0.2z"/><path class="p" d="m972.9 145.2h-0.2v-2.5h0.2z"/><path class="p" d="m973.7 145.2h-0.2v-2.5h0.2z"/><path class="p" d="m974.5 146.8h-0.2v-4.1h0.2z"/><path class="p" d="m975.2 145.2h-0.2v-2.5h0.2z"/><path class="p" d="m976 145.2h-0.2v-2.5h0.2z"/><path class="p" d="m976.7 145.2h-0.1v-2.5h0.1z"/><path class="p" d="m977.5 145.2h-0.2v-2.5h0.2z"/><path class="p" d="m978.3 145.2h-0.2v-2.5h0.2z"/><path class="p" d="m979 145.2h-0.1v-2.5h0.1z"/><path class="p" d="m979.8 145.2h-0.2v-2.5h0.2z"/><path class="p" d="m980.6 145.2h-0.2v-2.5h0.2z"/><path class="p" d="m981.3 145.2h-0.1v-2.5h0.1z"/><path class="p" d="m982.1 146.8h-0.2v-4.1h0.2z"/><path class="c" d="m921 216.1h-61.7v-37.3h61.7z"/><path class="k" d="m890.3 201.2l-31-22.4h61.7z"/><path class="k" d="m921 216l-30.7-23.3-31 23.3 31-22.2z"/><path class="e" d="m890.3 200.1l-31-21.3h61.7z"/><path class="q" d="m639 57c0 18.6-15.1 33.7-33.7 33.7-18.7 0-33.8-15.1-33.8-33.7 0-18.7 15.1-33.8 33.8-33.8 18.6 0 33.7 15.1 33.7 33.8z"/><path class="r" d="m634.4 57c0 16-13 29.1-29.1 29.1-16.1 0-29.2-13.1-29.2-29.1 0-16.1 13.1-29.2 29.2-29.2 16.1 0 29.1 13.1 29.1 29.2z"/><path class="s" d="m605 23.2c-18.6 0.2-33.5 15.2-33.5 33.8 0 18.5 14.9 33.5 33.5 33.7z"/><path class="t" d="m578.4 53.4c0 0.3 0.2 0.7 0.6 0.7l35.1 5.7 0.2-1.3-35.1-5.7q-0.3 0-0.5 0.2-0.2 0.1-0.3 0.4z"/><path class="l" d="m579.3 52.8c-0.1 0.3 0.1 0.7 0.5 0.7l35.1 5.7 0.2-1.3-35.1-5.7q-0.3 0-0.5 0.1-0.2 0.2-0.2 0.5z"/><path class="g" d="m606.8 54.7c1.2 1.1 1.2 3 0 4.1-1.1 1.2-3 1.2-4.1 0-1.2-1.1-1.2-3 0-4.1 1.1-1.2 3-1.2 4.1 0z"/><path class="g" d="m607.1 31.6c0 1-0.8 1.8-1.7 1.8h-0.2c-1 0-1.7-0.8-1.7-1.8 0-0.9 0.7-1.7 1.7-1.7h0.2c0.9 0 1.7 0.8 1.7 1.7z"/><path class="g" d="m607.1 82.3c0-1-0.8-1.8-1.7-1.8h-0.2c-1 0-1.7 0.8-1.7 1.8 0 0.9 0.7 1.7 1.7 1.7h0.2c0.9 0 1.7-0.8 1.7-1.7z"/><path class="g" d="m594.2 34.1c0.2 0.4 0.3 0.9 0.2 1.3-0.2 0.5-0.5 0.8-0.9 1.1l-0.1 0.1c-0.8 0.4-1.9 0.2-2.4-0.7-0.2-0.4-0.2-0.8-0.1-1.3 0.1-0.4 0.4-0.8 0.8-1l0.1-0.1c0.9-0.5 1.9-0.2 2.4 0.6z"/><path class="g" d="m619.5 78c-0.5-0.9-1.5-1.1-2.4-0.7l-0.1 0.1c-0.4 0.3-0.7 0.6-0.8 1.1-0.1 0.4-0.1 0.9 0.2 1.3 0.4 0.8 1.5 1.1 2.3 0.6l0.2-0.1c0.4-0.2 0.6-0.6 0.8-1 0.1-0.5 0-0.9-0.2-1.3z"/><path class="g" d="m584.3 42.7c0.8 0.5 1.1 1.6 0.6 2.4l-0.1 0.1c-0.2 0.4-0.6 0.7-1 0.8-0.5 0.2-1 0.1-1.4-0.1-0.8-0.5-1.1-1.6-0.6-2.4l0.1-0.1c0.2-0.4 0.6-0.7 1-0.8 0.5-0.2 1-0.1 1.4 0.1z"/><path class="g" d="m628.1 68c-0.8-0.4-1.9-0.1-2.4 0.7v0.1c-0.5 0.8-0.2 1.9 0.6 2.4 0.4 0.2 0.9 0.3 1.3 0.1 0.4-0.1 0.8-0.4 1-0.8l0.1-0.1c0.3-0.4 0.3-0.9 0.2-1.3-0.1-0.5-0.4-0.8-0.8-1.1z"/><path class="g" d="m580 55.1c0.9 0 1.7 0.8 1.7 1.8v0.1c0 1-0.8 1.8-1.7 1.8-1 0-1.8-0.8-1.8-1.8v-0.1c0-1 0.8-1.8 1.8-1.8z"/><path class="g" d="m630.6 55.1c-1 0-1.7 0.8-1.7 1.8v0.1c0 0.5 0.1 0.9 0.5 1.3 0.3 0.3 0.7 0.5 1.2 0.5 0.9 0 1.7-0.8 1.7-1.8v-0.1c0-1-0.8-1.8-1.7-1.8z"/><path class="g" d="m582.4 68c0.4-0.2 0.9-0.2 1.4-0.1 0.4 0.1 0.8 0.4 1 0.8l0.1 0.1c0.5 0.8 0.2 1.9-0.6 2.4-0.4 0.2-0.9 0.3-1.4 0.1-0.4-0.1-0.8-0.4-1-0.8l-0.1-0.1c-0.5-0.8-0.2-1.9 0.6-2.4z"/><path class="g" d="m626.3 42.7c-0.8 0.5-1.1 1.6-0.6 2.4v0.1c0.3 0.4 0.7 0.7 1.1 0.8 0.4 0.2 0.9 0.1 1.3-0.1 0.8-0.5 1.1-1.6 0.6-2.4l-0.1-0.1c-0.2-0.4-0.6-0.7-1-0.8-0.4-0.2-0.9-0.1-1.3 0.1z"/><path class="g" d="m591 78c0.5-0.9 1.6-1.1 2.4-0.7l0.1 0.1c0.4 0.3 0.7 0.6 0.9 1.1 0.1 0.4 0 0.9-0.2 1.3-0.2 0.4-0.6 0.7-1.1 0.8-0.4 0.1-0.9 0-1.3-0.2l-0.1-0.1c-0.8-0.5-1.1-1.5-0.7-2.3z"/><path class="g" d="m616.4 34.1c-0.3 0.4-0.3 0.9-0.2 1.3 0.1 0.5 0.4 0.8 0.8 1.1l0.1 0.1c0.9 0.4 1.9 0.2 2.4-0.7 0.2-0.4 0.3-0.8 0.2-1.3-0.2-0.4-0.4-0.8-0.8-1l-0.2-0.1c-0.8-0.5-1.9-0.2-2.3 0.6z"/><path class="t" d="m602.8 62.6l11.3-11.3 1-3.4-3.4 0.9-11.4 11.4z"/><path class="t" d="m610.9 59l-17.9-17.9-3.3-0.9 0.9 3.3 17.9 18z"/><path class="g" d="m602.4 61.5l11.4-11.3 0.9-3.4-3.4 0.9-11.3 11.4z"/><path class="g" d="m609.8 59.4l-17.9-17.9-3.3-0.9 0.9 3.3 17.9 17.9z"/><path class="u" d="m929.5 54c0 0 10.7-0.5 17.3 1.1l5.2 4-4 8.8-8.3 3.7-8.4-2.6c-3.8-3.4-3.1-9.3-1.8-15z"/><path class="u" d="m980.4 54c0 0-10.7-0.5-17.3 1.1l-5.2 4 4 8.8 8.3 3.7 8.4-2.6c3.8-3.4 3.1-9.3 1.8-15z"/><path class="s" d="m979 53.9c-3.7 0.1-12.2 0.3-15.9 1.2l-5.2 4 4 8.8 1.9 1.5z"/><path fill-rule="evenodd" class="v" d="m984.7 56.5c0 0.7-0.3 1.2-0.9 1.5-0.7 0.3-1.2 1-1.2 1.7l-0.3 4.2c-0.5 4.7-4.3 8.3-9 8.4l-4.5 0.1q-0.1 0.1-0.2 0.1c-3.2 0-6.2-1.7-7.9-4.4l-3.9-6.8c-0.3-0.5-0.7-0.8-1.2-1q-0.8-0.2-1.6 0c-0.5 0.2-1 0.5-1.2 0.9l-3.9 6.9c-1.8 2.8-4.8 4.4-8.1 4.3l-4.5-0.1c-4.7-0.1-8.5-3.7-9-8.4l-0.3-4.2c0-0.7-0.5-1.4-1.2-1.7-0.6-0.3-0.9-0.9-0.9-1.5l0.1-2.3c0-0.8 0.6-1.4 1.3-1.5l2.7-0.4q2.6-0.3 5.1-0.3 2.7 0 5.4 0.4c2.4 0.3 4.7 0.8 7.1 1.5l4.9 1.4 1.5 0.2c1.2 0.2 2.4 0.2 3.6 0l1.5-0.2 4.9-1.4c2.4-0.7 4.8-1.2 7.2-1.5 3.4-0.5 7-0.5 10.4-0.1l2.7 0.4c0.7 0.1 1.3 0.7 1.3 1.5zm-4.7 2.5c-0.1-2.4-2.1-4.3-4.5-4.3-3.6-0.1-7.3 0.2-10.9 0.8-1.6 0.3-3 1.2-3.9 2.5-0.8 1.4-1.1 3-0.7 4.6 0.1 0.3 2.9 7.8 9.6 7.8q0.3 0 0.5 0l3.7-0.1c3.6-0.2 6.5-3.3 6.3-6.9zm-44.9-4.4q-0.4 0-0.9 0.1c-2.4 0-4.3 1.9-4.4 4.3l-0.2 4.4c-0.2 3.6 2.7 6.7 6.3 6.9l3.7 0.1q0.2 0 0.3 0c7.7 0 9.8-7.8 9.8-7.8 0.4-1.6 0.2-3.2-0.7-4.6-0.9-1.3-2.3-2.2-3.9-2.5-3.3-0.6-6.6-0.9-10-0.9z"/><path fill-rule="evenodd" class="w" d="m984.7 56.5c0 0.7-0.3 1.2-0.9 1.5-0.7 0.3-1.2 1-1.2 1.7l-0.3 4.2c-0.5 4.7-4.3 8.3-9 8.4l-4.5 0.1q-0.1 0.1-0.2 0.1c-3.2 0-6.2-1.7-7.9-4.4l-3.9-6.8c-0.3-0.5-0.7-0.8-1.2-1q-0.5-0.1-1-0.1v-4.6q1 0 2-0.1l1.5-0.2 4.9-1.4c2.4-0.7 4.8-1.2 7.2-1.5 3.4-0.5 7-0.5 10.4-0.1l2.7 0.4c0.7 0.1 1.3 0.7 1.3 1.5zm-4.7 2.5c-0.1-2.4-2.1-4.3-4.5-4.3-3.6-0.1-7.3 0.2-10.9 0.8-1.6 0.3-3 1.2-3.9 2.5-0.8 1.4-1.1 3-0.7 4.6 0.1 0.3 2.9 7.8 9.6 7.8q0.3 0 0.5 0l3.7-0.1c3.6-0.2 6.5-3.3 6.3-6.9z"/><path fill-rule="evenodd" class="x" d="m954.6 60.2q-0.3 0-0.6 0.1c-0.5 0.2-1 0.5-1.2 0.9l-3.9 6.9c-1.8 2.8-4.8 4.4-8.1 4.3l-4.5-0.1c-4.7-0.1-8.5-3.7-9-8.4l-0.3-4.2c0-0.7-0.5-1.4-1.2-1.7-0.6-0.3-0.9-0.9-0.9-1.5l0.1-2.3c0-0.8 0.6-1.4 1.3-1.5l2.7-0.4q2.6-0.3 5.1-0.3 2.7 0 5.4 0.4c2.4 0.3 4.7 0.8 7.1 1.5l4.9 1.4 1.5 0.2q0.8 0.1 1.6 0.1zm-19.6-5.5q-0.4 0-0.9 0c-2.4 0-4.3 1.9-4.4 4.3l-0.2 4.4c-0.1 3.6 2.7 6.7 6.4 6.9l3.6 0.1q0.2 0 0.3 0c7.7 0 9.8-7.7 9.9-7.8 0.3-1.6 0.1-3.2-0.8-4.6-0.9-1.3-2.3-2.2-3.9-2.5-3.3-0.6-6.6-0.8-10-0.8z"/><path class="s" d="m929.5 54c0 0 10.7-0.5 17.3 1.1l-15.5 13.9c-3.8-3.4-3.1-9.3-1.8-15z"/><path class="k" d="m601.4 201.4v3.1h6.6q0 0 0.1 0c0.3 0 0.6-0.7 0.6-1.5 0-0.9-0.3-1.6-0.6-1.6q-0.1 0-0.1 0z"/><path class="u" d="m589.8 191c6.6 0 12 5.3 12 12 0 6.6-5.4 11.9-12 11.9-6.6 0-12-5.3-12-11.9 0-6.7 5.4-12 12-12z"/><path class="s" d="m601.8 203c0 6.6-5.4 11.9-12 11.9-6.6 0-12-5.3-12-11.9z"/><path fill-rule="evenodd" class="y" d="m602.2 203c0 6.8-5.6 12.4-12.4 12.4-6.8 0-12.4-5.6-12.4-12.4 0-6.9 5.6-12.4 12.4-12.4 6.8 0 12.4 5.5 12.4 12.4zm-24 0c0 6.3 5.2 11.5 11.6 11.5 6.4 0 11.6-5.2 11.6-11.5 0-6.4-5.2-11.6-11.6-11.6-6.4 0-11.6 5.2-11.6 11.6z"/><path class="l" d="m608.2 205.3q0 0.3 0.2 0.5 0.2 0.2 0.5 0.2h23.7c1.7 0 3-1.4 3-3v-0.1c0-0.8-0.3-1.5-0.8-2.1-0.6-0.6-1.4-0.9-2.2-0.9-6.3 0-20.3 0-23.7 0q-0.3 0-0.5 0.2-0.2 0.2-0.2 0.5z"/><path class="t" d="m601.4 203v1.5h6.6q0 0 0.1 0 0 0 0.1 0v0.8q0 0.3 0.2 0.5 0.2 0.2 0.5 0.2h23.7c1.7 0 3-1.3 3-3z"/><path class="h" d="m974.2 209.1c-1 0-1.7-0.8-1.7-1.7v-9.2c0-1.1 0.9-1.9 1.9-1.9 1.1 0 2 0.8 2 1.9v7c0 0.1-0.1 0.2-0.2 0.2-0.2 0-0.3-0.1-0.3-0.2v-7c0-0.8-0.6-1.5-1.5-1.5-0.8 0-1.5 0.7-1.5 1.5v9.2c0 0.6 0.6 1.2 1.3 1.2 0.6 0 1.2-0.6 1.2-1.2v-6.9c0-0.5-0.5-0.9-1-0.9-0.5 0-0.9 0.4-0.9 0.9v4.7c0 0.1-0.1 0.2-0.2 0.2-0.1 0-0.2-0.1-0.2-0.2v-4.7c0-0.8 0.6-1.4 1.3-1.4 0.8 0 1.4 0.6 1.4 1.4v6.9c0 0.9-0.7 1.7-1.6 1.7z"/><path class="l" d="m981.2 209.1c-0.9 0-1.7-0.8-1.7-1.7v-9.2c0-1.1 0.9-1.9 2-1.9 1 0 1.9 0.8 1.9 1.9v7c0 0.1-0.1 0.2-0.2 0.2-0.1 0-0.2-0.1-0.2-0.2v-7c0-0.8-0.7-1.5-1.5-1.5-0.9 0-1.5 0.7-1.5 1.5v9.2c0 0.6 0.5 1.2 1.2 1.2 0.7 0 1.2-0.6 1.2-1.2v-6.9c0-0.5-0.4-0.9-0.9-0.9-0.5 0-0.9 0.4-0.9 0.9v4.7c0 0.1-0.1 0.2-0.3 0.2-0.1 0-0.2-0.1-0.2-0.2v-4.7c0-0.8 0.6-1.4 1.4-1.4 0.7 0 1.4 0.6 1.4 1.4v6.9c0 0.9-0.8 1.7-1.7 1.7z"/><path class="n" d="m631.1 176.9c0 1.3-1.1 2.4-2.5 2.4h-46.6v-67.2h46.6c1.4 0 2.5 1.1 2.5 2.4z"/><path class="c" d="m629.9 177.2c0 1.4-1.1 2.5-2.5 2.5h-47.2v-68h47.2c1.4 0 2.5 1.1 2.5 2.5z"/><path class="l" d="m632.9 158.5h-9.5v-6.5h9.5l1.7 3.3z"/><path class="l" d="m631.7 140.8h-9.5v-6.5h9.5z"/><path class="e" d="m627.7 177.2c0 1.4-1.1 2.5-2.5 2.5h-47.2v-68h47.2c1.4 0 2.5 1.1 2.5 2.5z"/><path class="f" d="m630.2 174.7h-9.5v-6.6h9.5l1.7 3.3z"/><path class="f" d="m631.7 124.5h-9.5v-6.5h9.5z"/><path class="n" d="m625.7 177.5c0 1.4-1.2 2.5-2.5 2.5h-47.2v-68.6h47.2c1.3 0 2.5 1.2 2.5 2.5z"/><path class="o" d="m603.4 180h-27.4v-68.6h27.4z"/><path class="l" d="m616.6 180h-3.3v-68.6h3.3z"/><path class="z" d="m742.4 169.3v-10.4h-51.4v-27h129.6v43"/><path class="r" d="m762.8 141.6h-42.3l2.6-19.4h37.2z"/><path class="A" d="m766.2 146.2c0.6 0.8 0.7 1.8 0.2 2.7-0.4 0.9-1.3 1.5-2.3 1.5h-44.9c-1 0-1.9-0.6-2.3-1.5-0.5-0.9-0.4-1.9 0.2-2.7l3.4-4.6h42.3z"/><path class="g" d="m831.4 119.6c0 2.4-1.9 4.4-4.4 4.4h-170.7c-2.4 0-4.4-2-4.4-4.4v-101.3c0-2.5 2-4.5 4.4-4.5h170.7c2.5 0 4.4 2 4.4 4.5z"/><path class="f" d="m825.4 114.9h-166.7v-93.5h166.7z"/><path class="B" d="m825.4 114.9h-166.7l166.7-93.5z"/><path class="A" d="m797.6 213.2c0 1.9-1.5 3.4-3.4 3.4h-100.9c-1.9 0-3.4-1.5-3.4-3.4v-44.7c0-0.8 0.6-1.4 1.4-1.4h104.9c0.8 0 1.4 0.6 1.4 1.4z"/><path class="r" d="m742.4 167.2q0-0.1 0-0.1h-51.1c-0.8 0-1.4 0.6-1.4 1.4v44.7c0 1.9 1.5 3.4 3.4 3.4h49.1z"/><path class="a" d="m754.9 214c0 0.2-0.2 0.3-0.4 0.3h-29.9c-0.2 0-0.4-0.1-0.4-0.3v-7.2c0-0.2 0.2-0.4 0.4-0.4h29.9c0.2 0 0.4 0.2 0.4 0.4z"/><path class="a" d="m712.9 214c0 0.2 0.2 0.3 0.3 0.3h9.1c0.2 0 0.3-0.1 0.3-0.3v-7.2c0-0.2-0.1-0.4-0.3-0.4h-9.1c-0.1 0-0.3 0.2-0.3 0.4z"/><path class="a" d="m756.5 214c0 0.2 0.1 0.3 0.3 0.3h9.1c0.2 0 0.3-0.1 0.3-0.3v-7.2c0-0.2-0.1-0.4-0.3-0.4h-9.1c-0.2 0-0.3 0.2-0.3 0.4z"/><path class="a" d="m794.5 203.5c0 0.2-0.2 0.4-0.4 0.4h-20.9c-0.2 0-0.4-0.2-0.4-0.4v-7.2c0-0.2 0.2-0.3 0.4-0.3h20.9c0.2 0 0.4 0.1 0.4 0.3z"/><path class="a" d="m694 203.5c0 0.2 0.1 0.4 0.3 0.4h17.3c0.2 0 0.4-0.2 0.4-0.4v-7.2c0-0.2-0.2-0.3-0.4-0.3h-17.3c-0.2 0-0.3 0.1-0.3 0.3z"/><path class="a" d="m721.7 203.4c0 0.2-0.1 0.3-0.3 0.3h-7.2c-0.2 0-0.4-0.1-0.4-0.3v-7.2c0-0.2 0.2-0.3 0.4-0.3h7.2c0.2 0 0.3 0.1 0.3 0.3z"/><path class="a" d="m731.6 203.5c0 0.2-0.2 0.4-0.4 0.4h-7.2c-0.2 0-0.3-0.2-0.3-0.4v-7.2c0-0.2 0.1-0.3 0.3-0.3h7.2c0.2 0 0.4 0.1 0.4 0.3z"/><path class="a" d="m741.4 203.5c0 0.2-0.2 0.4-0.3 0.4h-7.3c-0.2 0-0.3-0.2-0.3-0.4v-7.2c0-0.2 0.1-0.3 0.3-0.3h7.3c0.1 0 0.3 0.1 0.3 0.3z"/><path class="a" d="m751.2 203.5c0 0.2-0.1 0.4-0.3 0.4h-7.2c-0.2 0-0.4-0.2-0.4-0.4v-7.2c0-0.2 0.2-0.3 0.4-0.3h7.2c0.2 0 0.3 0.1 0.3 0.3z"/><path class="a" d="m761.1 203.5c0 0.2-0.2 0.4-0.4 0.4h-7.2c-0.2 0-0.3-0.2-0.3-0.4v-7.2c0-0.2 0.1-0.3 0.3-0.3h7.2c0.2 0 0.4 0.1 0.4 0.3z"/><path class="a" d="m770.9 203.5c0 0.2-0.2 0.4-0.3 0.4h-7.3c-0.1 0-0.3-0.2-0.3-0.4v-7.2c0-0.2 0.2-0.3 0.3-0.3h7.3c0.1 0 0.3 0.1 0.3 0.3z"/><path class="a" d="m794.5 194.3c0 0.2-0.2 0.3-0.4 0.3h-13.8c-0.1 0-0.3-0.1-0.3-0.3v-7.2c0-0.2 0.2-0.4 0.3-0.4h13.8c0.2 0 0.4 0.2 0.4 0.4z"/><path class="a" d="m694 194.3c0 0.2 0.1 0.3 0.3 0.3h12.4c0.2 0 0.3-0.1 0.3-0.3v-7.2c0-0.2-0.1-0.4-0.3-0.4h-12.4c-0.2 0-0.3 0.2-0.3 0.4z"/><path class="a" d="m716.8 194.3c0 0.2-0.1 0.3-0.3 0.3h-7.2c-0.2 0-0.3-0.1-0.3-0.3v-7.2c0-0.2 0.1-0.4 0.3-0.4h7.2c0.2 0 0.3 0.2 0.3 0.4z"/><path class="a" d="m727 194.3c0 0.2-0.1 0.3-0.3 0.3h-7.2c-0.2 0-0.4-0.1-0.4-0.3v-7.2c0-0.2 0.2-0.4 0.4-0.4h7.2c0.2 0 0.3 0.2 0.3 0.4z"/><path class="a" d="m737.2 194.3c0 0.2-0.2 0.3-0.3 0.3h-7.3c-0.1 0-0.3-0.1-0.3-0.3v-7.2c0-0.2 0.2-0.4 0.3-0.4h7.3c0.1 0 0.3 0.2 0.3 0.4z"/><path class="a" d="m747.4 194.3c0 0.2-0.2 0.3-0.4 0.3h-7.2c-0.2 0-0.3-0.1-0.3-0.3v-7.2c0-0.2 0.1-0.4 0.3-0.4h7.2c0.2 0 0.4 0.2 0.4 0.4z"/><path class="a" d="m757.6 194.3c0 0.2-0.2 0.3-0.4 0.3h-7.2c-0.2 0-0.3-0.1-0.3-0.3v-7.2c0-0.2 0.1-0.4 0.3-0.4h7.2c0.2 0 0.4 0.2 0.4 0.4z"/><path class="a" d="m767.7 194.3c0 0.2-0.1 0.3-0.3 0.3h-7.2c-0.2 0-0.4-0.1-0.4-0.3v-7.2c0-0.2 0.2-0.4 0.4-0.4h7.2c0.2 0 0.3 0.2 0.3 0.4z"/><path class="a" d="m777.9 194.3c0 0.2-0.1 0.3-0.3 0.3h-7.3c-0.1 0-0.3-0.1-0.3-0.3v-7.2c0-0.2 0.2-0.4 0.3-0.4h7.3c0.2 0 0.3 0.2 0.3 0.4z"/><path class="a" d="m785.5 214c0 0.2-0.2 0.3-0.4 0.3h-7.2c-0.2 0-0.3-0.1-0.3-0.3v-3.3c0-0.2 0.1-0.3 0.3-0.3h7.2c0.2 0 0.4 0.1 0.4 0.3z"/><path class="a" d="m785.5 208.9c0 0.2-0.2 0.4-0.4 0.4h-7.2c-0.2 0-0.3-0.2-0.3-0.4v-3.3c0-0.1 0.1-0.3 0.3-0.3h7.2c0.2 0 0.4 0.2 0.4 0.3z"/><path class="a" d="m776.2 214c0 0.2-0.2 0.3-0.3 0.3h-7.3c-0.2 0-0.3-0.1-0.3-0.3v-3.3c0-0.2 0.1-0.3 0.3-0.3h7.3c0.1 0 0.3 0.1 0.3 0.3z"/><path class="a" d="m794.7 214c0 0.2-0.1 0.3-0.3 0.3h-7.2c-0.2 0-0.4-0.1-0.4-0.3v-3.3c0-0.2 0.2-0.3 0.4-0.3h7.2c0.2 0 0.3 0.1 0.3 0.3z"/><path class="a" d="m701.8 175.1c0 0.2-0.2 0.3-0.4 0.3h-7.2c-0.2 0-0.3-0.1-0.3-0.3v-3.3c0-0.2 0.1-0.3 0.3-0.3h7.2c0.2 0 0.4 0.1 0.4 0.3z"/><path class="a" d="m711 175.1c0 0.2-0.2 0.3-0.3 0.3h-7.3c-0.2 0-0.3-0.1-0.3-0.3v-3.3c0-0.2 0.1-0.3 0.3-0.3h7.3c0.1 0 0.3 0.1 0.3 0.3z"/><path class="a" d="m720.2 175.1c0 0.2-0.1 0.3-0.3 0.3h-7.2c-0.2 0-0.4-0.1-0.4-0.3v-3.3c0-0.2 0.2-0.3 0.4-0.3h7.2c0.2 0 0.3 0.1 0.3 0.3z"/><path class="a" d="m729.5 175.1c0 0.2-0.2 0.3-0.4 0.3h-7.2c-0.2 0-0.3-0.1-0.3-0.3v-3.3c0-0.2 0.1-0.3 0.3-0.3h7.2c0.2 0 0.4 0.1 0.4 0.3z"/><path class="a" d="m738.7 175.1c0 0.2-0.2 0.3-0.4 0.3h-7.2c-0.2 0-0.3-0.1-0.3-0.3v-3.3c0-0.2 0.1-0.3 0.3-0.3h7.2c0.2 0 0.4 0.1 0.4 0.3z"/><path class="a" d="m747.9 175.1c0 0.2-0.1 0.3-0.3 0.3h-7.2c-0.2 0-0.4-0.1-0.4-0.3v-3.3c0-0.2 0.2-0.3 0.4-0.3h7.2c0.2 0 0.3 0.1 0.3 0.3z"/><path class="a" d="m757.1 175.1c0 0.2-0.1 0.3-0.3 0.3h-7.2c-0.2 0-0.3-0.1-0.3-0.3v-3.3c0-0.2 0.1-0.3 0.3-0.3h7.2c0.2 0 0.3 0.1 0.3 0.3z"/><path class="a" d="m766.4 175.1c0 0.2-0.2 0.3-0.4 0.3h-7.2c-0.2 0-0.3-0.1-0.3-0.3v-3.3c0-0.2 0.1-0.3 0.3-0.3h7.2c0.2 0 0.4 0.1 0.4 0.3z"/><path class="a" d="m775.6 175.1c0 0.2-0.1 0.3-0.3 0.3h-7.3c-0.1 0-0.3-0.1-0.3-0.3v-3.3c0-0.2 0.2-0.3 0.3-0.3h7.3c0.2 0 0.3 0.1 0.3 0.3z"/><path class="a" d="m784.8 175.1c0 0.2-0.1 0.3-0.3 0.3h-7.2c-0.2 0-0.4-0.1-0.4-0.3v-3.3c0-0.2 0.2-0.3 0.4-0.3h7.2c0.2 0 0.3 0.1 0.3 0.3z"/><path class="a" d="m794.1 175.1c0 0.2-0.2 0.3-0.4 0.3h-7.2c-0.2 0-0.3-0.1-0.3-0.3v-3.3c0-0.2 0.1-0.3 0.3-0.3h7.2c0.2 0 0.4 0.1 0.4 0.3z"/><path class="a" d="m694 184.6c0 0.2 0.1 0.4 0.3 0.4h9.1c0.2 0 0.3-0.2 0.3-0.4v-7.2c0-0.2-0.1-0.3-0.3-0.3h-9.1c-0.2 0-0.3 0.1-0.3 0.3z"/><path class="a" d="m713.7 184.6c0 0.2-0.2 0.4-0.4 0.4h-7.2c-0.2 0-0.3-0.2-0.3-0.4v-7.2c0-0.2 0.1-0.3 0.3-0.3h7.2c0.2 0 0.4 0.1 0.4 0.3z"/><path class="a" d="m723.7 184.6c0 0.2-0.1 0.4-0.3 0.4h-7.3c-0.1 0-0.3-0.2-0.3-0.4v-7.2c0-0.2 0.2-0.3 0.3-0.3h7.3c0.2 0 0.3 0.1 0.3 0.3z"/><path class="a" d="m733.8 184.6c0 0.2-0.2 0.4-0.4 0.4h-7.2c-0.2 0-0.3-0.2-0.3-0.4v-7.2c0-0.2 0.1-0.3 0.3-0.3h7.2c0.2 0 0.4 0.1 0.4 0.3z"/><path class="a" d="m743.8 184.6c0 0.2-0.1 0.4-0.3 0.4h-7.3c-0.1 0-0.3-0.2-0.3-0.4v-7.2c0-0.2 0.2-0.3 0.3-0.3h7.3c0.2 0 0.3 0.1 0.3 0.3z"/><path class="a" d="m753.9 184.6c0 0.2-0.2 0.4-0.4 0.4h-7.2c-0.2 0-0.3-0.2-0.3-0.4v-7.2c0-0.2 0.1-0.3 0.3-0.3h7.2c0.2 0 0.4 0.1 0.4 0.3z"/><path class="a" d="m763.9 184.6c0 0.2-0.1 0.4-0.3 0.4h-7.2c-0.2 0-0.4-0.2-0.4-0.4v-7.2c0-0.2 0.2-0.3 0.4-0.3h7.2c0.2 0 0.3 0.1 0.3 0.3z"/><path class="a" d="m774 184.6c0 0.2-0.2 0.4-0.4 0.4h-7.2c-0.2 0-0.3-0.2-0.3-0.4v-7.2c0-0.2 0.1-0.3 0.3-0.3h7.2c0.2 0 0.4 0.1 0.4 0.3z"/><path class="a" d="m784 184.6c0 0.2-0.1 0.4-0.3 0.4h-7.2c-0.2 0-0.4-0.2-0.4-0.4v-7.2c0-0.2 0.2-0.3 0.4-0.3h7.2c0.2 0 0.3 0.1 0.3 0.3z"/><path class="a" d="m794.1 184.6c0 0.2-0.2 0.4-0.4 0.4h-7.2c-0.2 0-0.3-0.2-0.3-0.4v-7.2c0-0.2 0.1-0.3 0.3-0.3h7.2c0.2 0 0.4 0.1 0.4 0.3z"/><path class="a" d="m711.3 214c0 0.2-0.1 0.3-0.3 0.3h-7.2c-0.2 0-0.4-0.1-0.4-0.3v-7.2c0-0.2 0.2-0.4 0.4-0.4h7.2c0.2 0 0.3 0.2 0.3 0.4z"/><path class="a" d="m701.8 214c0 0.2-0.2 0.3-0.4 0.3h-7.2c-0.2 0-0.3-0.1-0.3-0.3v-7.2c0-0.2 0.1-0.4 0.3-0.4h7.2c0.2 0 0.4 0.2 0.4 0.4z"/><path class="q" d="m754.9 213.1c0 0.1-0.2 0.3-0.4 0.3h-29.9c-0.2 0-0.4-0.2-0.4-0.3v-7.3c0-0.1 0.2-0.3 0.4-0.3h29.9c0.2 0 0.4 0.2 0.4 0.3z"/><path class="q" d="m712.9 213.1c0 0.1 0.2 0.3 0.3 0.3h9.1c0.2 0 0.3-0.2 0.3-0.3v-7.3c0-0.1-0.1-0.3-0.3-0.3h-9.1c-0.1 0-0.3 0.2-0.3 0.3z"/><path class="q" d="m756.5 213.1c0 0.1 0.1 0.3 0.3 0.3h9.1c0.2 0 0.3-0.2 0.3-0.3v-7.3c0-0.1-0.1-0.3-0.3-0.3h-9.1c-0.2 0-0.3 0.2-0.3 0.3z"/><path class="q" d="m794.5 202.6c0 0.2-0.2 0.3-0.4 0.3h-20.9c-0.2 0-0.4-0.1-0.4-0.3v-7.2c0-0.2 0.2-0.3 0.4-0.3h20.9c0.2 0 0.4 0.1 0.4 0.3z"/><path class="q" d="m694 202.6c0 0.2 0.1 0.3 0.3 0.3h17.3c0.2 0 0.4-0.1 0.4-0.3v-7.2c0-0.2-0.2-0.3-0.4-0.3h-17.3c-0.2 0-0.3 0.1-0.3 0.3z"/><path class="q" d="m721.7 202.5c0 0.2-0.1 0.3-0.3 0.3h-7.2c-0.2 0-0.4-0.1-0.4-0.3v-7.2c0-0.2 0.2-0.4 0.4-0.4h7.2c0.2 0 0.3 0.2 0.3 0.4z"/><path class="q" d="m731.6 202.6c0 0.2-0.2 0.3-0.4 0.3h-7.2c-0.2 0-0.3-0.1-0.3-0.3v-7.2c0-0.2 0.1-0.3 0.3-0.3h7.2c0.2 0 0.4 0.1 0.4 0.3z"/><path class="q" d="m741.4 202.6c0 0.2-0.2 0.3-0.3 0.3h-7.3c-0.2 0-0.3-0.1-0.3-0.3v-7.2c0-0.2 0.1-0.3 0.3-0.3h7.3c0.1 0 0.3 0.1 0.3 0.3z"/><path class="q" d="m751.2 202.6c0 0.2-0.1 0.3-0.3 0.3h-7.2c-0.2 0-0.4-0.1-0.4-0.3v-7.2c0-0.2 0.2-0.3 0.4-0.3h7.2c0.2 0 0.3 0.1 0.3 0.3z"/><path class="q" d="m761.1 202.6c0 0.2-0.2 0.3-0.4 0.3h-7.2c-0.2 0-0.3-0.1-0.3-0.3v-7.2c0-0.2 0.1-0.3 0.3-0.3h7.2c0.2 0 0.4 0.1 0.4 0.3z"/><path class="q" d="m770.9 202.6c0 0.2-0.2 0.3-0.3 0.3h-7.3c-0.1 0-0.3-0.1-0.3-0.3v-7.2c0-0.2 0.2-0.3 0.3-0.3h7.3c0.1 0 0.3 0.1 0.3 0.3z"/><path class="q" d="m794.5 193.4c0 0.2-0.2 0.3-0.4 0.3h-13.8c-0.1 0-0.3-0.1-0.3-0.3v-7.2c0-0.2 0.2-0.4 0.3-0.4h13.8c0.2 0 0.4 0.2 0.4 0.4z"/><path class="q" d="m694 193.4c0 0.2 0.1 0.3 0.3 0.3h12.4c0.2 0 0.3-0.1 0.3-0.3v-7.2c0-0.2-0.1-0.4-0.3-0.4h-12.4c-0.2 0-0.3 0.2-0.3 0.4z"/><path class="q" d="m716.8 193.4c0 0.2-0.1 0.3-0.3 0.3h-7.2c-0.2 0-0.3-0.1-0.3-0.3v-7.2c0-0.2 0.1-0.4 0.3-0.4h7.2c0.2 0 0.3 0.2 0.3 0.4z"/><path class="q" d="m727 193.4c0 0.2-0.1 0.3-0.3 0.3h-7.2c-0.2 0-0.4-0.1-0.4-0.3v-7.2c0-0.2 0.2-0.4 0.4-0.4h7.2c0.2 0 0.3 0.2 0.3 0.4z"/><path class="q" d="m737.2 193.4c0 0.2-0.2 0.3-0.3 0.3h-7.3c-0.1 0-0.3-0.1-0.3-0.3v-7.2c0-0.2 0.2-0.4 0.3-0.4h7.3c0.1 0 0.3 0.2 0.3 0.4z"/><path class="q" d="m747.4 193.4c0 0.2-0.2 0.3-0.4 0.3h-7.2c-0.2 0-0.3-0.1-0.3-0.3v-7.2c0-0.2 0.1-0.4 0.3-0.4h7.2c0.2 0 0.4 0.2 0.4 0.4z"/><path class="q" d="m757.6 193.4c0 0.2-0.2 0.3-0.4 0.3h-7.2c-0.2 0-0.3-0.1-0.3-0.3v-7.2c0-0.2 0.1-0.4 0.3-0.4h7.2c0.2 0 0.4 0.2 0.4 0.4z"/><path class="q" d="m767.7 193.4c0 0.2-0.1 0.3-0.3 0.3h-7.2c-0.2 0-0.4-0.1-0.4-0.3v-7.2c0-0.2 0.2-0.4 0.4-0.4h7.2c0.2 0 0.3 0.2 0.3 0.4z"/><path class="q" d="m777.9 193.4c0 0.2-0.1 0.3-0.3 0.3h-7.3c-0.1 0-0.3-0.1-0.3-0.3v-7.2c0-0.2 0.2-0.4 0.3-0.4h7.3c0.2 0 0.3 0.2 0.3 0.4z"/><path class="q" d="m785.5 213.1c0 0.1-0.2 0.3-0.4 0.3h-7.2c-0.2 0-0.3-0.2-0.3-0.3v-3.3c0-0.2 0.1-0.4 0.3-0.4h7.2c0.2 0 0.4 0.2 0.4 0.4z"/><path class="q" d="m785.5 208c0 0.2-0.2 0.3-0.4 0.3h-7.2c-0.2 0-0.3-0.1-0.3-0.3v-3.3c0-0.2 0.1-0.3 0.3-0.3h7.2c0.2 0 0.4 0.1 0.4 0.3z"/><path class="q" d="m776.2 213.1c0 0.1-0.2 0.3-0.3 0.3h-7.3c-0.2 0-0.3-0.2-0.3-0.3v-3.3c0-0.2 0.1-0.4 0.3-0.4h7.3c0.1 0 0.3 0.2 0.3 0.4z"/><path class="q" d="m794.7 213.1c0 0.1-0.1 0.3-0.3 0.3h-7.2c-0.2 0-0.4-0.2-0.4-0.3v-3.3c0-0.2 0.2-0.4 0.4-0.4h7.2c0.2 0 0.3 0.2 0.3 0.4z"/><path class="q" d="m701.8 174.2c0 0.2-0.2 0.3-0.4 0.3h-7.2c-0.2 0-0.3-0.1-0.3-0.3v-3.3c0-0.2 0.1-0.3 0.3-0.3h7.2c0.2 0 0.4 0.1 0.4 0.3z"/><path class="q" d="m711 174.2c0 0.2-0.2 0.3-0.3 0.3h-7.3c-0.2 0-0.3-0.1-0.3-0.3v-3.3c0-0.2 0.1-0.3 0.3-0.3h7.3c0.1 0 0.3 0.1 0.3 0.3z"/><path class="q" d="m720.2 174.2c0 0.2-0.1 0.3-0.3 0.3h-7.2c-0.2 0-0.4-0.1-0.4-0.3v-3.3c0-0.2 0.2-0.3 0.4-0.3h7.2c0.2 0 0.3 0.1 0.3 0.3z"/><path class="q" d="m729.5 174.2c0 0.2-0.2 0.3-0.4 0.3h-7.2c-0.2 0-0.3-0.1-0.3-0.3v-3.3c0-0.2 0.1-0.3 0.3-0.3h7.2c0.2 0 0.4 0.1 0.4 0.3z"/><path class="q" d="m738.7 174.2c0 0.2-0.2 0.3-0.4 0.3h-7.2c-0.2 0-0.3-0.1-0.3-0.3v-3.3c0-0.2 0.1-0.3 0.3-0.3h7.2c0.2 0 0.4 0.1 0.4 0.3z"/><path class="q" d="m747.9 174.2c0 0.2-0.1 0.3-0.3 0.3h-7.2c-0.2 0-0.4-0.1-0.4-0.3v-3.3c0-0.2 0.2-0.3 0.4-0.3h7.2c0.2 0 0.3 0.1 0.3 0.3z"/><path class="q" d="m757.1 174.2c0 0.2-0.1 0.3-0.3 0.3h-7.2c-0.2 0-0.3-0.1-0.3-0.3v-3.3c0-0.2 0.1-0.3 0.3-0.3h7.2c0.2 0 0.3 0.1 0.3 0.3z"/><path class="q" d="m766.4 174.2c0 0.2-0.2 0.3-0.4 0.3h-7.2c-0.2 0-0.3-0.1-0.3-0.3v-3.3c0-0.2 0.1-0.3 0.3-0.3h7.2c0.2 0 0.4 0.1 0.4 0.3z"/><path class="q" d="m775.6 174.2c0 0.2-0.1 0.3-0.3 0.3h-7.3c-0.1 0-0.3-0.1-0.3-0.3v-3.3c0-0.2 0.2-0.3 0.3-0.3h7.3c0.2 0 0.3 0.1 0.3 0.3z"/><path class="q" d="m784.8 174.2c0 0.2-0.1 0.3-0.3 0.3h-7.2c-0.2 0-0.4-0.1-0.4-0.3v-3.3c0-0.2 0.2-0.3 0.4-0.3h7.2c0.2 0 0.3 0.1 0.3 0.3z"/><path class="q" d="m794.1 174.2c0 0.2-0.2 0.3-0.4 0.3h-7.2c-0.2 0-0.3-0.1-0.3-0.3v-3.3c0-0.2 0.1-0.3 0.3-0.3h7.2c0.2 0 0.4 0.1 0.4 0.3z"/><path class="q" d="m694 183.7c0 0.2 0.1 0.3 0.3 0.3h9.1c0.2 0 0.3-0.1 0.3-0.3v-7.2c0-0.2-0.1-0.3-0.3-0.3h-9.1c-0.2 0-0.3 0.1-0.3 0.3z"/><path class="q" d="m713.7 183.7c0 0.2-0.2 0.3-0.4 0.3h-7.2c-0.2 0-0.3-0.1-0.3-0.3v-7.2c0-0.2 0.1-0.3 0.3-0.3h7.2c0.2 0 0.4 0.1 0.4 0.3z"/><path class="q" d="m723.7 183.7c0 0.2-0.1 0.3-0.3 0.3h-7.3c-0.1 0-0.3-0.1-0.3-0.3v-7.2c0-0.2 0.2-0.3 0.3-0.3h7.3c0.2 0 0.3 0.1 0.3 0.3z"/><path class="q" d="m733.8 183.7c0 0.2-0.2 0.3-0.4 0.3h-7.2c-0.2 0-0.3-0.1-0.3-0.3v-7.2c0-0.2 0.1-0.3 0.3-0.3h7.2c0.2 0 0.4 0.1 0.4 0.3z"/><path class="q" d="m743.8 183.7c0 0.2-0.1 0.3-0.3 0.3h-7.3c-0.1 0-0.3-0.1-0.3-0.3v-7.2c0-0.2 0.2-0.3 0.3-0.3h7.3c0.2 0 0.3 0.1 0.3 0.3z"/><path class="q" d="m753.9 183.7c0 0.2-0.2 0.3-0.4 0.3h-7.2c-0.2 0-0.3-0.1-0.3-0.3v-7.2c0-0.2 0.1-0.3 0.3-0.3h7.2c0.2 0 0.4 0.1 0.4 0.3z"/><path class="q" d="m763.9 183.7c0 0.2-0.1 0.3-0.3 0.3h-7.2c-0.2 0-0.4-0.1-0.4-0.3v-7.2c0-0.2 0.2-0.3 0.4-0.3h7.2c0.2 0 0.3 0.1 0.3 0.3z"/><path class="q" d="m774 183.7c0 0.2-0.2 0.3-0.4 0.3h-7.2c-0.2 0-0.3-0.1-0.3-0.3v-7.2c0-0.2 0.1-0.3 0.3-0.3h7.2c0.2 0 0.4 0.1 0.4 0.3z"/><path class="q" d="m784 183.7c0 0.2-0.1 0.3-0.3 0.3h-7.2c-0.2 0-0.4-0.1-0.4-0.3v-7.2c0-0.2 0.2-0.3 0.4-0.3h7.2c0.2 0 0.3 0.1 0.3 0.3z"/><path class="q" d="m794.1 183.7c0 0.2-0.2 0.3-0.4 0.3h-7.2c-0.2 0-0.3-0.1-0.3-0.3v-7.2c0-0.2 0.1-0.3 0.3-0.3h7.2c0.2 0 0.4 0.1 0.4 0.3z"/><path class="q" d="m711.3 213.1c0 0.1-0.1 0.3-0.3 0.3h-7.2c-0.2 0-0.4-0.2-0.4-0.3v-7.3c0-0.1 0.2-0.3 0.4-0.3h7.2c0.2 0 0.3 0.2 0.3 0.3z"/><path class="q" d="m701.8 213.1c0 0.1-0.2 0.3-0.4 0.3h-7.2c-0.2 0-0.3-0.2-0.3-0.3v-7.3c0-0.1 0.1-0.3 0.3-0.3h7.2c0.2 0 0.4 0.2 0.4 0.3z"/><path class="g" d="m831.4 196.9c0.2 4.9-1.9 9.6-5.7 12.6-3 2.3-7.1 2.3-10.1 0-3.8-3-5.9-7.7-5.7-12.6l1.1-19.3c0.1-1.1 0.8-2.1 1.8-2.4 5.1-1.8 10.6-1.8 15.7 0 1 0.3 1.7 1.3 1.8 2.4z"/><path class="A" d="m820.6 188.7c4.7 0 8.5-3.8 8.5-8.5v-4.7q-0.3-0.2-0.6-0.3c-5.1-1.8-10.6-1.8-15.7 0q-0.3 0.1-0.6 0.3v4.7c0 4.7 3.8 8.5 8.4 8.5z"/><path class="g" d="m820.5 188.7q0.1 0 0.1 0 0.1 0 0.2 0v-14.9q-0.2 0-0.3 0z"/><path class="g" d="m822.1 182.2c0 0.9-0.7 1.6-1.6 1.6-0.9 0-1.6-0.7-1.6-1.6v-3.5c0-0.9 0.7-1.6 1.6-1.6 0.9 0 1.6 0.7 1.6 1.6z"/><path class="o" d="m820.8 173.8c-2.7 0-5.4 0.5-8 1.4-1 0.3-1.7 1.3-1.8 2.4l-1.1 19.3c-0.2 4.9 1.9 9.6 5.7 12.6 1.5 1.1 3.4 1.7 5.2 1.7z"/></svg>