<svg data-name="Layer 1" width="1042.039" height="709.089" viewBox="0 0 304.874 589.015" xmlns="http://www.w3.org/2000/svg"><path fill="#6c63ff" d="M136.72 116.039h7.716v12.346h-7.716zm-1.543 86.419h10.802v1.543h-10.802zm-12.346 37.037h10.802v1.543h-10.802zm13.889-81.79h7.716v12.346h-7.716zm15.432-16.976v3.087h3.086v6.173h-3.086v3.086h7.716v-12.346h-7.716zm-15.432 37.038h7.716v12.346h-7.716zm0 38.58h7.716v12.346h-7.716zm70.988 23.148h10.802v1.543h-10.802zm0-78.703h7.716v12.346h-7.716zm-.001-20.063v3.087h3.087v6.173h-3.087v3.086h7.716v-12.346h-7.716zm.001 60.186h7.716v12.346h-7.716zm0 52.469h7.716v12.346h-7.716zm-.001-72.531v3.086h3.087v6.173h-3.087v3.087h7.716v-12.346h-7.716zm0 94.136v3.086h3.087v6.173h-3.087v3.086h7.716v-12.345h-7.716zm-70.987-21.605v3.086h3.086v6.173h-3.086v3.086h7.716v-12.345h-7.716zm0 20.062v3.086h3.086v6.173h-3.086v3.086h7.716v-12.345h-7.716z"/><path d="M131.016 284.267v52l7 32s-1 20 0 26-1 16-7 16-9 15-9 15-2 6-7 7-5 0-5 0l-4 10-83 55 16 40s25-9 27-12 19 4 19-3 3-25 9-26 56-24 56-24 26-29 28-40 11-42 11-42l25 42v84l-4 45 44-6s-4-28 0-32 10-52 6-58 2-33 0-37-1-33-6-41-35-90-35-90l-88-13Z" fill="#2f2e41"/><path d="M216.016 559.267s-15 25-5 28 29 0 31 0 38 1 38 1 24-5 24-12-15-7-20-8-36-13-36-13l-32 4ZM27.609 498.395s-28.902-3.827-27.681 6.541c1.222 10.369 11.527 26.611 12.322 28.446.538 1.243 6.854 16.979 10.875 27.006a58.47 58.47 0 0 0 12.836 19.652c3.931 3.929 8.216 7.079 11.026 5.862 6.423-2.782.461-16.546-.609-21.532-1.069-4.985-2.38-38.201-2.38-38.201l-16.389-27.774Z" fill="#2f2e41"/><path d="m228.516 118.767 32-74s-3-7-10-6c0 0-9.5-24.5-27.5-24.5 0 0-27-15-35 0 0 0-17 15-16 29s2 24 2 24-16 2-13 10 4 8 0 11l-4 3s-83 75-37 185l4 17v16s101 1 101 0-2-7 2-11 4-10 4-10-4-20-2-26 3-32-1-38-2-54-2-54l9-17-3-10-3-10-.5-14.5Z" fill="#8985a8"/><path d="M220.016 319.267s-12-33-11-39-2-18-2-18l-4-81s17-72-21-84c0 0-9.615 4.195-17.493 17.697-7.791 3.47-17.245 12.252-19.507 34.303-4 39 14 139 23 156s15 29 15 29l9.407-4.181.593 1.181 27-12Z" opacity=".1"/><path fill="#3f3d56" d="M224.516 106.767h2v47h-2z"/><path d="m189.516 322.767 8 17s18-6 18-9-8-16-8-16l-18 8Z" fill="#ffb8b8"/><path d="M178.016 97.267s-23 10-27 49 14 139 23 156 15 29 15 29l27-12s-12-33-11-39-2-18-2-18l-4-81s17-72-21-84Z" fill="#8985a8"/></svg>