<svg xmlns="http://www.w3.org/2000/svg" version="1.1" xmlns:xlink="http://www.w3.org/1999/xlink" xmlns:svgjs="http://svgjs.com/svgjs" width="1024" height="245" preserveAspectRatio="none" viewBox="0 0 1024 245"><g mask="url(&quot;#SvgjsMask3859&quot;)" fill="none"><rect width="1024" height="245" x="0" y="0" fill="url(#SvgjsRadialGradient3860)"></rect><path d="M28.63 -54.77L82.33 -23.77L82.33 38.23L28.63 69.23L-25.07 38.23L-25.07 -23.77zM82.33 38.23L136.02 69.23L136.02 131.23L82.33 162.23L28.63 131.23L28.63 69.23zM189.72 224.23L243.41 255.23L243.41 317.23L189.72 348.23L136.02 317.23L136.02 255.23zM565.58 -54.77L619.28 -23.77L619.28 38.23L565.58 69.23L511.89 38.23L511.89 -23.77zM726.67 224.23L780.36 255.23L780.36 317.23L726.67 348.23L672.97 317.23L672.97 255.23zM887.75 -54.77L941.45 -23.77L941.45 38.23L887.75 69.23L834.06 38.23L834.06 -23.77z" stroke="url(#SvgjsLinearGradient3861)" stroke-width="2"></path><path d="M22.43 -54.77 a6.2 6.2 0 1 0 12.4 0 a6.2 6.2 0 1 0 -12.4 0zM76.13 -23.77 a6.2 6.2 0 1 0 12.4 0 a6.2 6.2 0 1 0 -12.4 0zM76.13 38.23 a6.2 6.2 0 1 0 12.4 0 a6.2 6.2 0 1 0 -12.4 0zM22.43 69.23 a6.2 6.2 0 1 0 12.4 0 a6.2 6.2 0 1 0 -12.4 0zM-31.27 38.23 a6.2 6.2 0 1 0 12.4 0 a6.2 6.2 0 1 0 -12.4 0zM-31.27 -23.77 a6.2 6.2 0 1 0 12.4 0 a6.2 6.2 0 1 0 -12.4 0zM129.82 69.23 a6.2 6.2 0 1 0 12.4 0 a6.2 6.2 0 1 0 -12.4 0zM129.82 131.23 a6.2 6.2 0 1 0 12.4 0 a6.2 6.2 0 1 0 -12.4 0zM76.13 162.23 a6.2 6.2 0 1 0 12.4 0 a6.2 6.2 0 1 0 -12.4 0zM22.43 131.23 a6.2 6.2 0 1 0 12.4 0 a6.2 6.2 0 1 0 -12.4 0zM183.52 224.23 a6.2 6.2 0 1 0 12.4 0 a6.2 6.2 0 1 0 -12.4 0zM237.21 255.23 a6.2 6.2 0 1 0 12.4 0 a6.2 6.2 0 1 0 -12.4 0zM237.21 317.23 a6.2 6.2 0 1 0 12.4 0 a6.2 6.2 0 1 0 -12.4 0zM183.52 348.23 a6.2 6.2 0 1 0 12.4 0 a6.2 6.2 0 1 0 -12.4 0zM129.82 317.23 a6.2 6.2 0 1 0 12.4 0 a6.2 6.2 0 1 0 -12.4 0zM129.82 255.23 a6.2 6.2 0 1 0 12.4 0 a6.2 6.2 0 1 0 -12.4 0zM559.38 -54.77 a6.2 6.2 0 1 0 12.4 0 a6.2 6.2 0 1 0 -12.4 0zM613.08 -23.77 a6.2 6.2 0 1 0 12.4 0 a6.2 6.2 0 1 0 -12.4 0zM613.08 38.23 a6.2 6.2 0 1 0 12.4 0 a6.2 6.2 0 1 0 -12.4 0zM559.38 69.23 a6.2 6.2 0 1 0 12.4 0 a6.2 6.2 0 1 0 -12.4 0zM505.69 38.23 a6.2 6.2 0 1 0 12.4 0 a6.2 6.2 0 1 0 -12.4 0zM505.69 -23.77 a6.2 6.2 0 1 0 12.4 0 a6.2 6.2 0 1 0 -12.4 0zM720.47 224.23 a6.2 6.2 0 1 0 12.4 0 a6.2 6.2 0 1 0 -12.4 0zM774.16 255.23 a6.2 6.2 0 1 0 12.4 0 a6.2 6.2 0 1 0 -12.4 0zM774.16 317.23 a6.2 6.2 0 1 0 12.4 0 a6.2 6.2 0 1 0 -12.4 0zM720.47 348.23 a6.2 6.2 0 1 0 12.4 0 a6.2 6.2 0 1 0 -12.4 0zM666.77 317.23 a6.2 6.2 0 1 0 12.4 0 a6.2 6.2 0 1 0 -12.4 0zM666.77 255.23 a6.2 6.2 0 1 0 12.4 0 a6.2 6.2 0 1 0 -12.4 0zM881.55 -54.77 a6.2 6.2 0 1 0 12.4 0 a6.2 6.2 0 1 0 -12.4 0zM935.25 -23.77 a6.2 6.2 0 1 0 12.4 0 a6.2 6.2 0 1 0 -12.4 0zM935.25 38.23 a6.2 6.2 0 1 0 12.4 0 a6.2 6.2 0 1 0 -12.4 0zM881.55 69.23 a6.2 6.2 0 1 0 12.4 0 a6.2 6.2 0 1 0 -12.4 0zM827.86 38.23 a6.2 6.2 0 1 0 12.4 0 a6.2 6.2 0 1 0 -12.4 0zM827.86 -23.77 a6.2 6.2 0 1 0 12.4 0 a6.2 6.2 0 1 0 -12.4 0z" fill="url(#SvgjsLinearGradient3861)"></path><path d="M83.89 194.3L129.79 220.8L129.79 273.8L83.89 300.3L37.99 273.8L37.99 220.8zM129.79 -44.2L175.69 -17.7L175.69 35.3L129.79 61.8L83.89 35.3L83.89 -17.7zM267.49 35.3L313.39 61.8L313.39 114.8L267.49 141.3L221.59 114.8L221.59 61.8zM313.39 -44.2L359.29 -17.7L359.29 35.3L313.39 61.8L267.49 35.3L267.49 -17.7zM359.29 194.3L405.2 220.8L405.2 273.8L359.29 300.3L313.39 273.8L313.39 220.8zM542.9 194.3L588.8 220.8L588.8 273.8L542.9 300.3L497 273.8L497 220.8zM680.6 -44.2L726.5 -17.7L726.5 35.3L680.6 61.8L634.7 35.3L634.7 -17.7zM726.5 35.3L772.4 61.8L772.4 114.8L726.5 141.3L680.6 114.8L680.6 61.8zM680.6 114.8L726.5 141.3L726.5 194.3L680.6 220.8L634.7 194.3L634.7 141.3zM818.3 35.3L864.2 61.8L864.2 114.8L818.3 141.3L772.4 114.8L772.4 61.8zM910.1 194.3L956 220.8L956 273.8L910.1 300.3L864.2 273.8L864.2 220.8zM956 114.8L1001.9 141.3L1001.9 194.3L956 220.8L910.1 194.3L910.1 141.3zM1001.9 194.3L1047.8 220.8L1047.8 273.8L1001.9 300.3L956 273.8L956 220.8zM1047.8 -44.2L1093.7 -17.7L1093.7 35.3L1047.8 61.8L1001.9 35.3L1001.9 -17.7zM1093.7 35.3L1139.61 61.8L1139.61 114.8L1093.7 141.3L1047.8 114.8L1047.8 61.8z" stroke="rgba(176, 35, 95, 0.7)" stroke-width="2"></path></g><defs><mask id="SvgjsMask3859"><rect width="1024" height="245" fill="#ffffff"></rect></mask><radialGradient cx="100%" cy="0%" r="1052.9" gradientUnits="userSpaceOnUse" id="SvgjsRadialGradient3860"><stop stop-color="rgba(14, 42, 71, 1)" offset="0"></stop><stop stop-color="rgba(250, 114, 104, 1)" offset="0.98"></stop></radialGradient><linearGradient x1="512" y1="245" x2="512" y2="0" gradientUnits="userSpaceOnUse" id="SvgjsLinearGradient3861"><stop stop-color="rgba(158, 0, 129, 1)" offset="0.41"></stop><stop stop-color="rgba(0, 180, 255, 1)" offset="1"></stop></linearGradient></defs></svg>