<svg xmlns="http://www.w3.org/2000/svg" version="1.1" xmlns:xlink="http://www.w3.org/1999/xlink" xmlns:svgjs="http://svgjs.com/svgjs" width="1024" height="245" preserveAspectRatio="none" viewBox="0 0 1024 245"><g mask="url(&quot;#SvgjsMask2981&quot;)" fill="none"><rect width="1024" height="245" x="0" y="0" fill="rgba(250, 114, 104, 1)"></rect><path d="M25.42 -67.43L90.37 -29.93L90.37 45.07L25.42 82.57L-39.53 45.07L-39.53 -29.93zM350.19 45.07L415.14 82.57L415.14 157.57L350.19 195.07L285.24 157.57L285.24 82.57zM415.14 -67.43L480.1 -29.93L480.1 45.07L415.14 82.57L350.19 45.07L350.19 -29.93zM545.05 157.57L610 195.07L610 270.07L545.05 307.57L480.1 270.07L480.1 195.07zM674.96 -67.43L739.91 -29.93L739.91 45.07L674.96 82.57L610 45.07L610 -29.93zM804.86 157.57L869.82 195.07L869.82 270.07L804.86 307.57L739.91 270.07L739.91 195.07zM934.77 -67.43L999.73 -29.93L999.73 45.07L934.77 82.57L869.82 45.07L869.82 -29.93z" stroke="url(#SvgjsLinearGradient2982)" stroke-width="2"></path><path d="M17.92 -67.43 a7.5 7.5 0 1 0 15 0 a7.5 7.5 0 1 0 -15 0zM82.87 -29.93 a7.5 7.5 0 1 0 15 0 a7.5 7.5 0 1 0 -15 0zM82.87 45.07 a7.5 7.5 0 1 0 15 0 a7.5 7.5 0 1 0 -15 0zM17.92 82.57 a7.5 7.5 0 1 0 15 0 a7.5 7.5 0 1 0 -15 0zM-47.03 45.07 a7.5 7.5 0 1 0 15 0 a7.5 7.5 0 1 0 -15 0zM-47.03 -29.93 a7.5 7.5 0 1 0 15 0 a7.5 7.5 0 1 0 -15 0zM342.69 45.07 a7.5 7.5 0 1 0 15 0 a7.5 7.5 0 1 0 -15 0zM407.64 82.57 a7.5 7.5 0 1 0 15 0 a7.5 7.5 0 1 0 -15 0zM407.64 157.57 a7.5 7.5 0 1 0 15 0 a7.5 7.5 0 1 0 -15 0zM342.69 195.07 a7.5 7.5 0 1 0 15 0 a7.5 7.5 0 1 0 -15 0zM277.74 157.57 a7.5 7.5 0 1 0 15 0 a7.5 7.5 0 1 0 -15 0zM277.74 82.57 a7.5 7.5 0 1 0 15 0 a7.5 7.5 0 1 0 -15 0zM407.64 -67.43 a7.5 7.5 0 1 0 15 0 a7.5 7.5 0 1 0 -15 0zM472.6 -29.93 a7.5 7.5 0 1 0 15 0 a7.5 7.5 0 1 0 -15 0zM472.6 45.07 a7.5 7.5 0 1 0 15 0 a7.5 7.5 0 1 0 -15 0zM342.69 -29.93 a7.5 7.5 0 1 0 15 0 a7.5 7.5 0 1 0 -15 0zM537.55 157.57 a7.5 7.5 0 1 0 15 0 a7.5 7.5 0 1 0 -15 0zM602.5 195.07 a7.5 7.5 0 1 0 15 0 a7.5 7.5 0 1 0 -15 0zM602.5 270.07 a7.5 7.5 0 1 0 15 0 a7.5 7.5 0 1 0 -15 0zM537.55 307.57 a7.5 7.5 0 1 0 15 0 a7.5 7.5 0 1 0 -15 0zM472.6 270.07 a7.5 7.5 0 1 0 15 0 a7.5 7.5 0 1 0 -15 0zM472.6 195.07 a7.5 7.5 0 1 0 15 0 a7.5 7.5 0 1 0 -15 0zM667.46 -67.43 a7.5 7.5 0 1 0 15 0 a7.5 7.5 0 1 0 -15 0zM732.41 -29.93 a7.5 7.5 0 1 0 15 0 a7.5 7.5 0 1 0 -15 0zM732.41 45.07 a7.5 7.5 0 1 0 15 0 a7.5 7.5 0 1 0 -15 0zM667.46 82.57 a7.5 7.5 0 1 0 15 0 a7.5 7.5 0 1 0 -15 0zM602.5 45.07 a7.5 7.5 0 1 0 15 0 a7.5 7.5 0 1 0 -15 0zM602.5 -29.93 a7.5 7.5 0 1 0 15 0 a7.5 7.5 0 1 0 -15 0zM797.36 157.57 a7.5 7.5 0 1 0 15 0 a7.5 7.5 0 1 0 -15 0zM862.32 195.07 a7.5 7.5 0 1 0 15 0 a7.5 7.5 0 1 0 -15 0zM862.32 270.07 a7.5 7.5 0 1 0 15 0 a7.5 7.5 0 1 0 -15 0zM797.36 307.57 a7.5 7.5 0 1 0 15 0 a7.5 7.5 0 1 0 -15 0zM732.41 270.07 a7.5 7.5 0 1 0 15 0 a7.5 7.5 0 1 0 -15 0zM732.41 195.07 a7.5 7.5 0 1 0 15 0 a7.5 7.5 0 1 0 -15 0zM927.27 -67.43 a7.5 7.5 0 1 0 15 0 a7.5 7.5 0 1 0 -15 0zM992.23 -29.93 a7.5 7.5 0 1 0 15 0 a7.5 7.5 0 1 0 -15 0zM992.23 45.07 a7.5 7.5 0 1 0 15 0 a7.5 7.5 0 1 0 -15 0zM927.27 82.57 a7.5 7.5 0 1 0 15 0 a7.5 7.5 0 1 0 -15 0zM862.32 45.07 a7.5 7.5 0 1 0 15 0 a7.5 7.5 0 1 0 -15 0zM862.32 -29.93 a7.5 7.5 0 1 0 15 0 a7.5 7.5 0 1 0 -15 0z" fill="url(#SvgjsLinearGradient2982)"></path><path d="M73.97 30.84L117.28 55.84L117.28 105.84L73.97 130.84L30.67 105.84L30.67 55.84zM30.67 105.84L73.97 130.84L73.97 180.84L30.67 205.84L-12.63 180.84L-12.63 130.84zM203.88 -44.16L247.18 -19.16L247.18 30.84L203.88 55.84L160.58 30.84L160.58 -19.16zM420.39 30.84L463.7 55.84L463.7 105.84L420.39 130.84L377.09 105.84L377.09 55.84zM507 180.84L550.3 205.84L550.3 255.84L507 280.84L463.7 255.84L463.7 205.84zM593.6 30.84L636.9 55.84L636.9 105.84L593.6 130.84L550.3 105.84L550.3 55.84zM636.9 -44.16L680.21 -19.16L680.21 30.84L636.9 55.84L593.6 30.84L593.6 -19.16zM810.12 -44.16L853.42 -19.16L853.42 30.84L810.12 55.84L766.81 30.84L766.81 -19.16zM940.02 180.84L983.33 205.84L983.33 255.84L940.02 280.84L896.72 255.84L896.72 205.84zM1026.63 30.84L1069.93 55.84L1069.93 105.84L1026.63 130.84L983.33 105.84L983.33 55.84zM983.33 105.84L1026.63 130.84L1026.63 180.84L983.33 205.84L940.02 180.84L940.02 130.84z" stroke="url(#SvgjsLinearGradient2983)" stroke-width="2"></path></g><defs><mask id="SvgjsMask2981"><rect width="1024" height="245" fill="#ffffff"></rect></mask><linearGradient x1="194.7648" y1="-194.7505" x2="829.2352000000001" y2="439.75050000000005" gradientUnits="userSpaceOnUse" id="SvgjsLinearGradient2982"><stop stop-color="rgba(158, 0, 129, 1)" offset="0"></stop><stop stop-color="rgba(3, 48, 93, 0.2)" offset="0.35"></stop></linearGradient><linearGradient x1="194.7648" y1="-194.7505" x2="829.2352000000001" y2="439.75050000000005" gradientUnits="userSpaceOnUse" id="SvgjsLinearGradient2983"><stop stop-color="rgba(14, 42, 71, 1)" offset="0"></stop><stop stop-color="rgba(198, 35, 104, 0.67)" offset="1"></stop></linearGradient></defs></svg>