<svg id="visual" viewBox="0 0 1024 244" width="1024" height="244" xmlns="http://www.w3.org/2000/svg" xmlns:xlink="http://www.w3.org/1999/xlink" version="1.1"><rect x="0" y="0" width="1024" height="244" fill="#41BAEC"></rect><path d="M0 68L17 69.2C34 70.3 68 72.7 102.2 73.8C136.3 75 170.7 75 204.8 77.7C239 80.3 273 85.7 307.2 84.3C341.3 83 375.7 75 409.8 77.2C444 79.3 478 91.7 512 91.3C546 91 580 78 614.2 76.8C648.3 75.7 682.7 86.3 716.8 87.5C751 88.7 785 80.3 819.2 78.2C853.3 76 887.7 80 921.8 78.3C956 76.7 990 69.3 1007 65.7L1024 62L1024 0L1007 0C990 0 956 0 921.8 0C887.7 0 853.3 0 819.2 0C785 0 751 0 716.8 0C682.7 0 648.3 0 614.2 0C580 0 546 0 512 0C478 0 444 0 409.8 0C375.7 0 341.3 0 307.2 0C273 0 239 0 204.8 0C170.7 0 136.3 0 102.2 0C68 0 34 0 17 0L0 0Z" fill="#fa7268"></path><path d="M0 69L17 63.5C34 58 68 47 102.2 47.7C136.3 48.3 170.7 60.7 204.8 63.7C239 66.7 273 60.3 307.2 55.5C341.3 50.7 375.7 47.3 409.8 44C444 40.7 478 37.3 512 42.2C546 47 580 60 614.2 63C648.3 66 682.7 59 716.8 58.7C751 58.3 785 64.7 819.2 67.8C853.3 71 887.7 71 921.8 65.3C956 59.7 990 48.3 1007 42.7L1024 37L1024 0L1007 0C990 0 956 0 921.8 0C887.7 0 853.3 0 819.2 0C785 0 751 0 716.8 0C682.7 0 648.3 0 614.2 0C580 0 546 0 512 0C478 0 444 0 409.8 0C375.7 0 341.3 0 307.2 0C273 0 239 0 204.8 0C170.7 0 136.3 0 102.2 0C68 0 34 0 17 0L0 0Z" fill="#e34c67"></path><path d="M0 21L17 20.7C34 20.3 68 19.7 102.2 19.7C136.3 19.7 170.7 20.3 204.8 23.7C239 27 273 33 307.2 35.7C341.3 38.3 375.7 37.7 409.8 34.8C444 32 478 27 512 23.3C546 19.7 580 17.3 614.2 16C648.3 14.7 682.7 14.3 716.8 18.3C751 22.3 785 30.7 819.2 33.8C853.3 37 887.7 35 921.8 35.3C956 35.7 990 38.3 1007 39.7L1024 41L1024 0L1007 0C990 0 956 0 921.8 0C887.7 0 853.3 0 819.2 0C785 0 751 0 716.8 0C682.7 0 648.3 0 614.2 0C580 0 546 0 512 0C478 0 444 0 409.8 0C375.7 0 341.3 0 307.2 0C273 0 239 0 204.8 0C170.7 0 136.3 0 102.2 0C68 0 34 0 17 0L0 0Z" fill="#c62368"></path></svg>