<svg id="visual" viewBox="0 0 1024 244" width="1024" height="244" xmlns="http://www.w3.org/2000/svg" xmlns:xlink="http://www.w3.org/1999/xlink" version="1.1"><rect x="0" y="0" width="1024" height="244" fill="#001220"></rect><path d="M0 145L24.3 149.2C48.7 153.3 97.3 161.7 146.2 164C195 166.3 244 162.7 292.8 162.3C341.7 162 390.3 165 439 163.8C487.7 162.7 536.3 157.3 585 153.7C633.7 150 682.3 148 731.2 150.8C780 153.7 829 161.3 877.8 165.7C926.7 170 975.3 171 999.7 171.5L1024 172L1024 245L999.7 245C975.3 245 926.7 245 877.8 245C829 245 780 245 731.2 245C682.3 245 633.7 245 585 245C536.3 245 487.7 245 439 245C390.3 245 341.7 245 292.8 245C244 245 195 245 146.2 245C97.3 245 48.7 245 24.3 245L0 245Z" fill="#fa7268"></path><path d="M0 195L24.3 190.7C48.7 186.3 97.3 177.7 146.2 172.7C195 167.7 244 166.3 292.8 170.3C341.7 174.3 390.3 183.7 439 187.5C487.7 191.3 536.3 189.7 585 188.3C633.7 187 682.3 186 731.2 181.3C780 176.7 829 168.3 877.8 166.5C926.7 164.7 975.3 169.3 999.7 171.7L1024 174L1024 245L999.7 245C975.3 245 926.7 245 877.8 245C829 245 780 245 731.2 245C682.3 245 633.7 245 585 245C536.3 245 487.7 245 439 245C390.3 245 341.7 245 292.8 245C244 245 195 245 146.2 245C97.3 245 48.7 245 24.3 245L0 245Z" fill="#ef5f67"></path><path d="M0 196L24.3 196.8C48.7 197.7 97.3 199.3 146.2 197.7C195 196 244 191 292.8 190.5C341.7 190 390.3 194 439 194.7C487.7 195.3 536.3 192.7 585 190.3C633.7 188 682.3 186 731.2 186.2C780 186.3 829 188.7 877.8 191.3C926.7 194 975.3 197 999.7 198.5L1024 200L1024 245L999.7 245C975.3 245 926.7 245 877.8 245C829 245 780 245 731.2 245C682.3 245 633.7 245 585 245C536.3 245 487.7 245 439 245C390.3 245 341.7 245 292.8 245C244 245 195 245 146.2 245C97.3 245 48.7 245 24.3 245L0 245Z" fill="#e34c67"></path><path d="M0 208L24.3 207.7C48.7 207.3 97.3 206.7 146.2 204.5C195 202.3 244 198.7 292.8 196.8C341.7 195 390.3 195 439 195.8C487.7 196.7 536.3 198.3 585 201.5C633.7 204.7 682.3 209.3 731.2 211.8C780 214.3 829 214.7 877.8 214.2C926.7 213.7 975.3 212.3 999.7 211.7L1024 211L1024 245L999.7 245C975.3 245 926.7 245 877.8 245C829 245 780 245 731.2 245C682.3 245 633.7 245 585 245C536.3 245 487.7 245 439 245C390.3 245 341.7 245 292.8 245C244 245 195 245 146.2 245C97.3 245 48.7 245 24.3 245L0 245Z" fill="#d53867"></path><path d="M0 225L24.3 224C48.7 223 97.3 221 146.2 219.2C195 217.3 244 215.7 292.8 214.8C341.7 214 390.3 214 439 214.2C487.7 214.3 536.3 214.7 585 214.5C633.7 214.3 682.3 213.7 731.2 214.7C780 215.7 829 218.3 877.8 218.7C926.7 219 975.3 217 999.7 216L1024 215L1024 245L999.7 245C975.3 245 926.7 245 877.8 245C829 245 780 245 731.2 245C682.3 245 633.7 245 585 245C536.3 245 487.7 245 439 245C390.3 245 341.7 245 292.8 245C244 245 195 245 146.2 245C97.3 245 48.7 245 24.3 245L0 245Z" fill="#c62368"></path></svg>