<svg id="visual" viewBox="0 0 1024 245" width="1024" height="245" xmlns="http://www.w3.org/2000/svg" xmlns:xlink="http://www.w3.org/1999/xlink" version="1.1"><rect x="0" y="0" width="1024" height="245" fill="#001220"></rect><path d="M348 245L355.2 239.2C362.3 233.3 376.7 221.7 380.3 210C384 198.3 377 186.7 377.2 175C377.3 163.3 384.7 151.7 398.7 140C412.7 128.3 433.3 116.7 454 105C474.7 93.3 495.3 81.7 480.5 70C465.7 58.3 415.3 46.7 393.8 35C372.3 23.3 379.7 11.7 383.3 5.8L387 0L1024 0L1024 5.8C1024 11.7 1024 23.3 1024 35C1024 46.7 1024 58.3 1024 70C1024 81.7 1024 93.3 1024 105C1024 116.7 1024 128.3 1024 140C1024 151.7 1024 163.3 1024 175C1024 186.7 1024 198.3 1024 210C1024 221.7 1024 233.3 1024 239.2L1024 245Z" fill="#fa7268"></path><path d="M679 245L677.8 239.2C676.7 233.3 674.3 221.7 677 210C679.7 198.3 687.3 186.7 671.8 175C656.3 163.3 617.7 151.7 600.7 140C583.7 128.3 588.3 116.7 605.5 105C622.7 93.3 652.3 81.7 645.8 70C639.3 58.3 596.7 46.7 593.3 35C590 23.3 626 11.7 644 5.8L662 0L1024 0L1024 5.8C1024 11.7 1024 23.3 1024 35C1024 46.7 1024 58.3 1024 70C1024 81.7 1024 93.3 1024 105C1024 116.7 1024 128.3 1024 140C1024 151.7 1024 163.3 1024 175C1024 186.7 1024 198.3 1024 210C1024 221.7 1024 233.3 1024 239.2L1024 245Z" fill="#ef5f67"></path><path d="M678 245L666.7 239.2C655.3 233.3 632.7 221.7 628.5 210C624.3 198.3 638.7 186.7 635 175C631.3 163.3 609.7 151.7 614.8 140C620 128.3 652 116.7 654.5 105C657 93.3 630 81.7 614.5 70C599 58.3 595 46.7 601.5 35C608 23.3 625 11.7 633.5 5.8L642 0L1024 0L1024 5.8C1024 11.7 1024 23.3 1024 35C1024 46.7 1024 58.3 1024 70C1024 81.7 1024 93.3 1024 105C1024 116.7 1024 128.3 1024 140C1024 151.7 1024 163.3 1024 175C1024 186.7 1024 198.3 1024 210C1024 221.7 1024 233.3 1024 239.2L1024 245Z" fill="#e34c67"></path><path d="M702 245L714 239.2C726 233.3 750 221.7 751.3 210C752.7 198.3 731.3 186.7 726 175C720.7 163.3 731.3 151.7 744.2 140C757 128.3 772 116.7 787 105C802 93.3 817 81.7 809.3 70C801.7 58.3 771.3 46.7 763.7 35C756 23.3 771 11.7 778.5 5.8L786 0L1024 0L1024 5.8C1024 11.7 1024 23.3 1024 35C1024 46.7 1024 58.3 1024 70C1024 81.7 1024 93.3 1024 105C1024 116.7 1024 128.3 1024 140C1024 151.7 1024 163.3 1024 175C1024 186.7 1024 198.3 1024 210C1024 221.7 1024 233.3 1024 239.2L1024 245Z" fill="#d53867"></path><path d="M893 245L901.2 239.2C909.3 233.3 925.7 221.7 921.5 210C917.3 198.3 892.7 186.7 882.8 175C873 163.3 878 151.7 877.7 140C877.3 128.3 871.7 116.7 883 105C894.3 93.3 922.7 81.7 922.2 70C921.7 58.3 892.3 46.7 871.7 35C851 23.3 839 11.7 833 5.8L827 0L1024 0L1024 5.8C1024 11.7 1024 23.3 1024 35C1024 46.7 1024 58.3 1024 70C1024 81.7 1024 93.3 1024 105C1024 116.7 1024 128.3 1024 140C1024 151.7 1024 163.3 1024 175C1024 186.7 1024 198.3 1024 210C1024 221.7 1024 233.3 1024 239.2L1024 245Z" fill="#c62368"></path></svg>