<svg id="visual" viewBox="0 0 1024 245" width="1024" height="245" xmlns="http://www.w3.org/2000/svg" xmlns:xlink="http://www.w3.org/1999/xlink" version="1.1"><g stroke-width="1" stroke-linejoin="bevel"><path d="M441 148.5L326 245L497 245Z" fill="#d84a64" stroke="#d84a64"></path><path d="M441 148.5L311 196.5L326 245Z" fill="#d84a64" stroke="#d84a64"></path><path d="M311 196.5L303 245L326 245Z" fill="#b0235f" stroke="#b0235f"></path><path d="M497 245L596 245L441 148.5Z" fill="#b0235f" stroke="#b0235f"></path><path d="M472 0L444 0L441 148.5Z" fill="#df5265" stroke="#df5265"></path><path d="M258 0L216 95.5L311 196.5Z" fill="#e65a65" stroke="#e65a65"></path><path d="M258 0L311 196.5L441 148.5Z" fill="#df5265" stroke="#df5265"></path><path d="M311 196.5L216 95.5L303 245Z" fill="#ed6266" stroke="#ed6266"></path><path d="M620 0L472 0L441 148.5Z" fill="#c93b62" stroke="#c93b62"></path><path d="M444 0L258 0L441 148.5Z" fill="#fa7268" stroke="#fa7268"></path><path d="M596 245L620 0L441 148.5Z" fill="#fa7268" stroke="#fa7268"></path><path d="M127 0L79 193.5L216 95.5Z" fill="#d04263" stroke="#d04263"></path><path d="M216 95.5L79 193.5L303 245Z" fill="#ed6266" stroke="#ed6266"></path><path d="M258 0L127 0L216 95.5Z" fill="#df5265" stroke="#df5265"></path><path d="M79 193.5L41 245L303 245Z" fill="#f46a67" stroke="#f46a67"></path><path d="M0 245L41 245L79 193.5Z" fill="#ed6266" stroke="#ed6266"></path><path d="M596 245L735 31.5L620 0Z" fill="#fa7268" stroke="#fa7268"></path><path d="M596 245L780 65.5L735 31.5Z" fill="#b0235f" stroke="#b0235f"></path><path d="M596 245L815 245L780 65.5Z" fill="#c93b62" stroke="#c93b62"></path><path d="M780 65.5L752 0L735 31.5Z" fill="#c13361" stroke="#c13361"></path><path d="M735 31.5L752 0L620 0Z" fill="#b0235f" stroke="#b0235f"></path><path d="M0 56.5L0 245L79 193.5Z" fill="#fa7268" stroke="#fa7268"></path><path d="M815 245L847 135.5L780 65.5Z" fill="#df5265" stroke="#df5265"></path><path d="M829 245L847 135.5L815 245Z" fill="#b82b60" stroke="#b82b60"></path><path d="M780 65.5L934 0L752 0Z" fill="#b82b60" stroke="#b82b60"></path><path d="M127 0L0 56.5L79 193.5Z" fill="#c13361" stroke="#c13361"></path><path d="M127 0L0 0L0 56.5Z" fill="#e65a65" stroke="#e65a65"></path><path d="M1024 144.5L934 0L847 135.5Z" fill="#c93b62" stroke="#c93b62"></path><path d="M847 135.5L934 0L780 65.5Z" fill="#d04263" stroke="#d04263"></path><path d="M829 245L1024 245L847 135.5Z" fill="#c13361" stroke="#c13361"></path><path d="M1024 245L1024 144.5L847 135.5Z" fill="#b0235f" stroke="#b0235f"></path><path d="M1024 144.5L1024 0L934 0Z" fill="#fa7268" stroke="#fa7268"></path></g></svg>