<svg version="1.2" xmlns="http://www.w3.org/2000/svg" viewBox="0 0 673 406" width="1024" height="618"><defs><clipPath clipPathUnits="userSpaceOnUse" id="cp1"><path d="m-3.76-2.43h676.72v408.04h-676.72z"/></clipPath><linearGradient id="P" gradientUnits="userSpaceOnUse"/><radialGradient id="g1" cx="40.2" cy="522.8" r="871.1" href="#P"><stop stop-color="#ffd301"/><stop offset="1" stop-color="#ff17d0"/></radialGradient><radialGradient id="g2" cx="67" cy="490.9" r="871.3" href="#P"><stop stop-color="#ffd301"/><stop offset="1" stop-color="#ff17d0"/></radialGradient><linearGradient id="g3" x1="532.7" y1="299.8" x2="532.7" y2="407.9" href="#P"><stop offset=".13" stop-color="#fff"/><stop offset="1" stop-color="#ffe2a5"/></linearGradient><linearGradient id="g4" x1="539" y1="325.1" x2="539" y2="422.5" href="#P"><stop offset=".31" stop-color="#fff"/><stop offset="1" stop-color="#ffe2a5"/></linearGradient><linearGradient id="g5" x1="493.2" y1="359.1" x2="493.2" y2="407.8" href="#P"><stop offset=".13" stop-color="#fff"/><stop offset="1" stop-color="#ffe2a5"/></linearGradient><linearGradient id="g6" x1="475.7" y1="299.8" x2="475.7" y2="282.3" href="#P"><stop stop-color="#bf2850"/><stop offset="1" stop-color="#3f003b"/></linearGradient><linearGradient id="g7" x1="459.7" y1="178.2" x2="493.7" y2="178.2" href="#P"><stop offset=".04" stop-color="#ff9066"/><stop offset=".24" stop-color="#bf0043"/><stop offset=".57" stop-color="#ff0043"/><stop offset="1" stop-color="#ffba71"/></linearGradient><linearGradient id="g8" x1="459.7" y1="142" x2="493.7" y2="142" href="#P"><stop offset=".04" stop-color="#ff9066"/><stop offset=".24" stop-color="#bf0043"/><stop offset=".57" stop-color="#ff0043"/><stop offset="1" stop-color="#ffba71"/></linearGradient><linearGradient id="g9" x1="572.2" y1="299.8" x2="572.2" y2="282.3" href="#P"><stop stop-color="#bf2850"/><stop offset="1" stop-color="#3f003b"/></linearGradient><linearGradient id="g10" x1="556.2" y1="178.2" x2="590.1" y2="178.2" href="#P"><stop offset=".04" stop-color="#ff9066"/><stop offset=".24" stop-color="#bf0043"/><stop offset=".57" stop-color="#ff0043"/><stop offset="1" stop-color="#ffba71"/></linearGradient><linearGradient id="g11" x1="556.2" y1="142" x2="590.1" y2="142" href="#P"><stop offset=".04" stop-color="#ff9066"/><stop offset=".24" stop-color="#bf0043"/><stop offset=".57" stop-color="#ff0043"/><stop offset="1" stop-color="#ffba71"/></linearGradient><linearGradient id="g12" x1="414" y1="153" x2="528.9" y2="153" href="#P"><stop stop-color="#fffff0"/><stop offset=".88" stop-color="#d9bf9b"/></linearGradient><linearGradient id="g13" x1="407.5" y1="176.6" x2="560.6" y2="209.2" href="#P"><stop stop-color="#fffff0"/><stop offset=".72" stop-color="#d9bf9b"/><stop offset="1" stop-color="#f1ffea"/></linearGradient><linearGradient id="g14" x1="407.5" y1="176.6" x2="560.6" y2="209.2" href="#P"><stop stop-color="#bf2850"/><stop offset="1" stop-color="#3f003b"/></linearGradient><linearGradient id="g15" x1="658.7" y1="277.8" x2="555.4" y2="277.8" href="#P"><stop stop-color="#fffff0"/><stop offset=".88" stop-color="#d9bf9b"/></linearGradient><linearGradient id="g16" x1="642.3" y1="176.6" x2="489.2" y2="209.2" href="#P"><stop stop-color="#bf2850"/><stop offset="1" stop-color="#3f003b"/></linearGradient><linearGradient id="g17" x1="524.5" y1="304.4" x2="524.5" y2="289" href="#P"><stop stop-color="#bf2850"/><stop offset="1" stop-color="#3f003b"/></linearGradient><linearGradient id="g18" x1="522.8" y1="304.6" x2="522.8" y2="281" href="#P"><stop stop-color="#bf2850"/><stop offset="1" stop-color="#3f003b"/></linearGradient><linearGradient id="g19" x1="493.7" y1="59.2" x2="556.2" y2="59.2" href="#P"><stop stop-color="#fffff0"/><stop offset=".72" stop-color="#d9bf9b"/><stop offset="1" stop-color="#f1ffea"/></linearGradient><linearGradient id="g20" x1="1120.5" y1="208.5" x2="1120.5" y2="311.6" href="#P"><stop stop-color="#bf2850"/><stop offset="1" stop-color="#3f003b"/></linearGradient><linearGradient id="g21" x1="533.2" y1="53.8" x2="533.2" y2="114" href="#P"><stop stop-color="#bf2850"/><stop offset="1" stop-color="#3f003b"/></linearGradient><linearGradient id="g22" x1="538.1" y1="95.3" x2="538.1" y2="181.4" href="#P"><stop stop-color="#bf4b50"/><stop offset="1" stop-color="#291a68"/></linearGradient><radialGradient id="g23" cx="471.3" cy="159.1" r="163.1" href="#P"><stop stop-color="#ffd301"/><stop offset="1" stop-color="#ff17d0"/></radialGradient><linearGradient id="g24" x1="554.3" y1="103.8" x2="530.8" y2="141.4" href="#P"><stop stop-color="#ffd35d" stop-opacity="1"/><stop offset="1" stop-color="#ffa4a3" stop-opacity="0"/></linearGradient><linearGradient id="g25" x1="544.7" y1="102.2" x2="523.2" y2="136.7" href="#P"><stop stop-color="#ffd35d" stop-opacity="1"/><stop offset="1" stop-color="#ffa4a3" stop-opacity="0"/></linearGradient></defs><style>.a{fill:url(#g1)}.b{fill:url(#g2)}.c{fill:#fffe00}.d{fill:#fff}.e{fill:#9b53dc}.f{fill:url(#g3)}.g{fill:url(#g4)}.h{fill:url(#g5)}.i{fill:url(#g6)}.j{fill:url(#g7)}.k{fill:url(#g8)}.l{fill:#973e56}.m{fill:url(#g9)}.n{fill:url(#g10)}.o{mix-blend-mode:multiply;fill:#973e56}.p{fill:url(#g11)}.q{fill:url(#g12)}.r{opacity:.3;mix-blend-mode:multiply;fill:#ddc4a3}.s{fill:url(#g13)}.t{fill:url(#g14)}.u{fill:url(#g15)}.v{fill:url(#g16)}.w{fill:url(#g17)}.x{fill:url(#g18)}.y{fill:url(#g19)}.z{fill:#e3d2b4}.A{opacity:.4;mix-blend-mode:multiply;fill:#e3d2b4}.B{opacity:.4;mix-blend-mode:multiply;fill:#cd2d2f}.C{fill:url(#g20)}.D{fill:url(#g21)}.E{fill:url(#g22)}.F{fill:url(#g23)}.G{fill:url(#g24)}.H{fill:url(#g25)}</style><g clip-path="url(#cp1)"><path class="a" d="m-8.3-5.2h685.8v413.5h-685.8z"/><path class="b" d="m625.8 205.4c-23.9-10.8-36.5-34.4-51.3-54.5-14.8-20.1-38.5-39.8-64.8-35.3-24.7 4.2-44.3 29-68.8 24.1-33.7-6.8-29-57.3-58.8-73.1-32.7-17.3-73 21.4-109.5 12.1-22.6-5.7-36.2-28.3-58.8-34-26.3-6.6-56.7 11.8-80.6-0.3-13.7-6.9-19.7-21.3-27.9-33.4-3.9-5.8-8.6-11.2-13.9-16.2h-99.7v129.8c7.7 6.2 14 13.8 18.1 22.3 10.3 21.2 7.5 45.5 8.9 68.6 1.4 23.2 9.6 49 32.5 59.6 41.9 19.3 93.4-27.3 136.7-10.8 27.8 10.6 39.8 43.4 68.4 51.9 38 11.2 74-27.4 113.9-25.7 34.8 1.4 57.9 31.5 79 56.5 18.8 22.4 40.2 43 63.8 61.3h164.5v-197.9c-18 2.3-35.5 2.3-51.7-5z"/><path class="c" d="m175.7 39.5c-0.6 0-1.2-0.5-1.2-1.2 0-0.6 0.6-1.2 1.2-1.2 0.7 0 1.2 0.6 1.2 1.2 0 0.7-0.5 1.2-1.2 1.2z"/><path class="c" d="m298.2 58.7c-0.7 0-1.2-0.5-1.2-1.1 0-0.7 0.5-1.2 1.2-1.2 0.6 0 1.2 0.5 1.2 1.2 0 0.6-0.6 1.1-1.2 1.1z"/><path class="c" d="m650.4 164.5c-0.6 0-1.2-0.5-1.2-1.1 0-0.7 0.6-1.2 1.2-1.2 0.7 0 1.2 0.5 1.2 1.2 0 0.6-0.5 1.1-1.2 1.1z"/><path class="c" d="m32 371c-0.5 0-0.9-0.4-0.9-0.8 0-0.5 0.4-0.9 0.9-0.9 0.5 0 0.9 0.4 0.9 0.9 0 0.4-0.4 0.8-0.9 0.8z"/><path class="c" d="m496.2 37.9c0.4 0.3 0.4 0.9 0.1 1.3-0.3 0.3-0.8 0.4-1.2 0.1-0.3-0.3-0.4-0.9-0.1-1.2 0.3-0.4 0.8-0.5 1.2-0.2z"/><path class="c" d="m630.6 137.1c-1.2 0-2.2-1-2.2-2.2 0-1.2 1-2.2 2.2-2.2 1.2 0 2.2 1 2.2 2.2 0 1.2-1 2.2-2.2 2.2z"/><path class="c" d="m302.9 66.8c-1.3 0-2.2-1-2.2-2.2 0-1.2 0.9-2.2 2.2-2.2 1.2 0 2.2 1 2.2 2.2 0 1.2-1 2.2-2.2 2.2z"/><path class="c" d="m590.1 53.8c-1.2 0-2.1-1-2.1-2.2 0-1.2 0.9-2.2 2.1-2.2 1.3 0 2.2 1 2.2 2.2 0 1.2-0.9 2.2-2.2 2.2z"/><path class="c" d="m16 346.7c-0.7 0-1.2-0.5-1.2-1.2 0-0.6 0.5-1.1 1.2-1.1 0.6 0 1.2 0.5 1.2 1.1 0 0.7-0.6 1.2-1.2 1.2z"/><path class="c" d="m488.9 40.7c-0.6 0-1.1-0.6-1.1-1.2 0-0.7 0.5-1.2 1.1-1.2 0.7 0 1.2 0.5 1.2 1.2 0 0.6-0.5 1.2-1.2 1.2z"/><path class="c" d="m430.2 188.2c-0.5 0-0.9-0.4-0.9-0.9 0-0.5 0.4-0.9 0.9-0.9 0.5 0 0.9 0.4 0.9 0.9 0 0.5-0.4 0.9-0.9 0.9z"/><path class="c" d="m417.9 206.4c-0.5 0-0.9-0.4-0.9-0.9 0-0.5 0.4-0.9 0.9-0.9 0.5 0 0.9 0.4 0.9 0.9 0 0.5-0.4 0.9-0.9 0.9z"/><path class="c" d="m501.4 283.8c0 0.3-0.2 0.5-0.5 0.5-0.2 0-0.5-0.2-0.5-0.5 0-0.2 0.3-0.5 0.5-0.5 0.3 0 0.5 0.3 0.5 0.5z"/><path class="c" d="m33 389.3c0 0.2-0.2 0.4-0.5 0.4-0.3 0-0.5-0.2-0.5-0.4 0-0.3 0.2-0.5 0.5-0.5 0.3 0 0.5 0.2 0.5 0.5z"/><path class="c" d="m553.9 361.8c0.3 0.3 0.4 0.9 0.1 1.2-0.3 0.4-0.9 0.5-1.2 0.2-0.4-0.3-0.5-0.9-0.2-1.3 0.3-0.3 0.9-0.4 1.3-0.1z"/><path class="c" d="m65.8 362c0.4 0.3 0.4 0.8 0.1 1.2-0.3 0.4-0.8 0.4-1.2 0.1-0.4-0.3-0.4-0.8-0.1-1.2 0.3-0.4 0.8-0.4 1.2-0.1z"/><path class="c" d="m161.8 53.8c0 0.3-0.2 0.5-0.5 0.5-0.3 0-0.5-0.2-0.5-0.5 0-0.3 0.2-0.5 0.5-0.5 0.3 0 0.5 0.2 0.5 0.5z"/><path class="c" d="m432.9 198.1c-0.1 0.2-0.4 0.4-0.6 0.2-0.3-0.1-0.4-0.4-0.3-0.6 0.1-0.2 0.4-0.4 0.6-0.3 0.3 0.2 0.4 0.4 0.3 0.7z"/><path class="c" d="m68.1 51.6c0 0.2-0.2 0.5-0.4 0.5-0.3 0-0.5-0.2-0.6-0.4 0-0.3 0.2-0.5 0.5-0.6 0.3 0 0.5 0.2 0.5 0.5z"/><path class="c" d="m562.6 349.3c0.1 0.2 0 0.5-0.2 0.6-0.3 0.1-0.6 0-0.7-0.3-0.1-0.2 0.1-0.5 0.3-0.6 0.3-0.1 0.5 0 0.6 0.3z"/><path class="d" d="m378.5 305l1.1 2.2c0.4 0.7 1 1.3 1.7 1.7l2.1 1.2c0.1 0.1 0.1 0.2 0 0.2l-2.1 1.2c-0.7 0.4-1.3 1-1.7 1.8l-1.1 2.1c-0.1 0.1-0.2 0.1-0.2 0l-1.2-2.1c-0.4-0.8-1-1.4-1.7-1.8l-2.1-1.2c-0.1 0-0.1-0.1 0-0.2l2.1-1.2c0.7-0.4 1.3-1 1.7-1.7l1.2-2.2c0-0.1 0.1-0.1 0.2 0z"/><path class="d" d="m615.8 300.8l1.2 2.2c0.4 0.7 1 1.3 1.7 1.7l2.1 1.2c0.1 0 0.1 0.2 0 0.2l-2.1 1.2c-0.7 0.4-1.3 1-1.7 1.8l-1.2 2.1c0 0.1-0.1 0.1-0.2 0l-1.1-2.1c-0.4-0.8-1-1.4-1.7-1.8l-2.1-1.2c-0.1 0-0.1-0.2 0-0.2l2.1-1.2c0.7-0.4 1.3-1 1.7-1.7l1.1-2.2c0.1-0.1 0.2-0.1 0.2 0z"/><path class="d" d="m418.9 76.5l1.2 2.1c0.4 0.8 1 1.4 1.8 1.8l2.1 1.2c0.1 0 0.1 0.1 0 0.2l-2.1 1.2c-0.8 0.4-1.4 1-1.8 1.7l-1.2 2.2c0 0.1-0.2 0.1-0.2 0l-1.2-2.2c-0.4-0.7-1-1.3-1.7-1.7l-2.2-1.2c-0.1-0.1-0.1-0.2 0-0.2l2.2-1.2c0.7-0.4 1.3-1 1.7-1.8l1.2-2.1c0-0.1 0.2-0.1 0.2 0z"/><path class="d" d="m211.3 65.4l0.4 0.8q0.3 0.5 0.7 0.7l0.8 0.5q0.1 0 0 0l-0.8 0.5q-0.4 0.2-0.7 0.6l-0.4 0.9q0 0-0.1 0l-0.4-0.9q-0.3-0.4-0.7-0.6l-0.8-0.5q-0.1 0 0 0l0.8-0.5q0.4-0.2 0.7-0.7l0.4-0.8q0.1 0 0.1 0z"/><path class="d" d="m156 353.2l0.4 0.8q0.3 0.4 0.7 0.6l0.8 0.5q0.1 0 0 0.1l-0.8 0.4q-0.4 0.2-0.7 0.7l-0.4 0.8q0 0-0.1 0l-0.4-0.8q-0.3-0.5-0.7-0.7l-0.8-0.4q-0.1-0.1 0-0.1l0.8-0.5q0.4-0.2 0.7-0.6l0.4-0.8q0.1-0.1 0.1 0z"/><path class="d" d="m528.4 10.9l0.5 0.8q0.2 0.4 0.6 0.7l0.9 0.4q0 0.1 0 0.1l-0.9 0.4q-0.4 0.3-0.6 0.7l-0.5 0.8q0 0.1 0 0l-0.5-0.8q-0.2-0.4-0.7-0.7l-0.8-0.4q0 0 0-0.1l0.8-0.4q0.5-0.3 0.7-0.7l0.5-0.8q0-0.1 0 0z"/><path class="d" d="m461.4 115.8l0.6 1q0.3 0.6 0.9 0.9l1 0.6c0.1 0 0.1 0.1 0 0.1l-1 0.6q-0.6 0.3-0.9 0.8l-0.6 1.1c0 0 0 0-0.1 0l-0.5-1.1q-0.3-0.5-0.9-0.8l-1.1-0.6c0 0 0-0.1 0-0.1l1.1-0.6q0.6-0.3 0.9-0.9l0.5-1c0.1-0.1 0.1-0.1 0.1 0z"/><path class="d" d="m628.1 67.4l0.5 1.1q0.3 0.5 0.9 0.8l1.1 0.6c0 0 0 0.1 0 0.1l-1.1 0.6q-0.6 0.3-0.9 0.9l-0.5 1c-0.1 0.1-0.1 0.1-0.1 0l-0.6-1q-0.3-0.6-0.9-0.9l-1-0.6c-0.1 0-0.1-0.1 0-0.1l1-0.6q0.6-0.3 0.9-0.8l0.6-1.1c0 0 0 0 0.1 0z"/><path class="d" d="m648.3 241.9l0.8 1.5c0.3 0.5 0.7 1 1.2 1.2l1.5 0.9c0.1 0 0.1 0.1 0 0.1l-1.5 0.8c-0.5 0.3-0.9 0.7-1.2 1.3l-0.8 1.5c0 0-0.1 0-0.2 0l-0.8-1.5c-0.3-0.6-0.7-1-1.2-1.3l-1.5-0.8c-0.1 0-0.1-0.1 0-0.1l1.5-0.9c0.5-0.2 0.9-0.7 1.2-1.2l0.8-1.5c0.1 0 0.2 0 0.2 0z"/><g style="opacity:.2;mix-blend-mode:multiply"><path class="e" d="m644.5 204.8c-1.6 0-3-1.3-3-3 0-1.7 1.4-3 3-3 1.7 0 3.1 1.3 3.1 3 0 1.7-1.4 3-3.1 3z"/><path class="e" d="m590.2 96.5c-1.1 0-2-0.9-2-2 0-1.1 0.9-2 2-2 1.2 0 2.1 0.9 2.1 2 0 1.1-0.9 2-2.1 2z"/><path class="e" d="m86.1 53.6c-1.3 0-2.4-1.1-2.4-2.4 0-1.4 1.1-2.4 2.4-2.4 1.4 0 2.5 1 2.5 2.4 0 1.3-1.1 2.4-2.5 2.4z"/><path class="e" d="m206.3 73c-0.7 0-1.3-0.5-1.3-1.2 0-0.6 0.6-1.2 1.3-1.2 0.6 0 1.2 0.6 1.2 1.2 0 0.7-0.6 1.2-1.2 1.2z"/><path class="e" d="m248.4 19c-0.6 0-1.1-0.5-1.1-1.1 0-0.6 0.5-1.1 1.1-1.1 0.7 0 1.2 0.5 1.2 1.1 0 0.6-0.5 1.1-1.2 1.1z"/><path class="e" d="m373.2 38.6c-1.8 0-3.3-1.5-3.3-3.3 0-1.9 1.5-3.4 3.3-3.4 1.9 0 3.4 1.5 3.4 3.4 0 1.8-1.5 3.3-3.4 3.3z"/><path class="e" d="m432.6 63.1c-0.9 0-1.7-0.8-1.7-1.7 0-0.9 0.8-1.7 1.7-1.7 0.9 0 1.7 0.8 1.7 1.7 0 0.9-0.8 1.7-1.7 1.7z"/><path class="e" d="m418.7 165.6c-1.3 0-2.4-1.1-2.4-2.4 0-1.3 1.1-2.4 2.4-2.4 1.3 0 2.4 1.1 2.4 2.4 0 1.3-1.1 2.4-2.4 2.4z"/><path class="e" d="m127.6 61.1c-0.8 0-1.4-0.6-1.4-1.4 0-0.8 0.6-1.4 1.4-1.4 0.7 0 1.3 0.6 1.3 1.4 0 0.8-0.6 1.4-1.3 1.4z"/><path class="e" d="m638.4 37.3c-1.1 0-2-0.9-2-2 0-1.2 0.9-2.1 2-2.1 1.1 0 2 0.9 2 2.1 0 1.1-0.9 2-2 2z"/><path class="e" d="m402.3 285.5c-1.3 0-2.4-1-2.4-2.4 0-1.3 1.1-2.3 2.4-2.3 1.3 0 2.4 1 2.4 2.3 0 1.4-1.1 2.4-2.4 2.4z"/><path class="e" d="m258.6 335.9c-0.8 0-1.4-0.7-1.4-1.5 0-0.8 0.6-1.5 1.4-1.5 0.9 0 1.5 0.7 1.5 1.5 0 0.8-0.6 1.5-1.5 1.5z"/><path class="e" d="m319.5 260.8c-0.7 0-1.3-0.5-1.3-1.3 0-0.7 0.6-1.2 1.3-1.2 0.7 0 1.3 0.5 1.3 1.2 0 0.8-0.6 1.3-1.3 1.3z"/><path class="e" d="m221.1 327.6c-0.4 0-0.7-0.3-0.7-0.7 0-0.4 0.3-0.8 0.7-0.8 0.4 0 0.8 0.4 0.8 0.8 0 0.4-0.4 0.7-0.8 0.7z"/><path class="e" d="m325.3 264.5c-0.5 0-0.8-0.4-0.8-0.9 0-0.4 0.3-0.8 0.8-0.8 0.5 0 0.9 0.4 0.9 0.8 0 0.5-0.4 0.9-0.9 0.9z"/><path class="e" d="m393.7 110.9c-1.2 0-2.1-1-2.1-2.1 0-1.2 0.9-2.1 2.1-2.1 1.2 0 2.1 0.9 2.1 2.1 0 1.1-0.9 2.1-2.1 2.1z"/><path class="e" d="m479.3 54.8c-1 0-1.8-0.8-1.8-1.8 0-1 0.8-1.8 1.8-1.8 1 0 1.8 0.8 1.8 1.8 0 1-0.8 1.8-1.8 1.8z"/><path class="e" d="m209.4 77.7c-0.3 0-0.5-0.2-0.5-0.5 0-0.4 0.2-0.6 0.5-0.6 0.3 0 0.6 0.2 0.6 0.6 0 0.3-0.3 0.5-0.6 0.5z"/><path class="e" d="m596.9 108.3c-1.1 0-1.9-0.8-1.9-1.8 0-1.1 0.8-1.9 1.9-1.9 1 0 1.9 0.8 1.9 1.9 0 1-0.9 1.8-1.9 1.8z"/><path class="e" d="m613.6 161.3c-1.1 0-2.1-0.9-2.1-2.1 0-1.1 1-2.1 2.1-2.1 1.2 0 2.1 1 2.1 2.1 0 1.2-0.9 2.1-2.1 2.1z"/><path class="e" d="m655 200.9c-1 0-1.8-0.8-1.8-1.8 0-1 0.8-1.8 1.8-1.8 1 0 1.8 0.8 1.8 1.8 0 1-0.8 1.8-1.8 1.8z"/><path class="e" d="m660.5 46c-0.7 0-1.2-0.5-1.2-1.2 0-0.7 0.5-1.2 1.2-1.2 0.6 0 1.1 0.5 1.1 1.2 0 0.7-0.5 1.2-1.1 1.2z"/></g><path class="f" d="m35.6 414.7c5.5-20.6 21.4-38 41.3-45.3 20-7.4 43.4-4.3 60.9 7.8 9.4-6.5 22.4-5.8 31.3 1.5 7.5-16.8 23.8-29.2 41.8-32.8 18-3.7 37.6 1.9 51 14.4 9.3-7.6 23.6-6.9 31.4 2.1 5.5-9.9 17.8-19.4 28.9-21.3 11.2-2 23.1 1.4 31.6 8.9 6.1-3.9 14.3-6.7 21.3-5.2 7 1.6 13.3 6 17.2 12 6-4.2 14.2-4.7 19.3 0.5 2.6-5.4 9.9-9.7 15.8-9.7 6-0.1 11.8 3.4 14.6 8.7 0.6-7.9 6.7-15.5 14.5-17.1-0.6-6.4 2.3-12.9 7.7-16.4l4.6-31.3h16l2.8 31.1c8 0 15.1 6.8 16.8 14.6 4.7-0.2 10.4 0.4 14.1 3.1 2.7 2 4.9 4.6 6.4 7.6 1.5-3 3.7-5.6 6.4-7.6 3.8-2.7 9.4-3.3 14.1-3.1 1.8-7.8 8.8-14.6 16.8-14.6l2.9-31.1h15.9l4.6 31.3c5.4 3.5 8.3 10 7.7 16.4 7.8 1.6 13.9 9.2 14.6 17.1 2.7-5.3 8.5-8.8 14.5-8.7 5.9 0 13.2 4.3 15.8 9.7 5.1-5.2 13.3-4.7 19.3-0.5 3.9-6 10.2-10.4 17.2-12 7-1.5 15.2 1.3 21.3 5.2 8.5-7.5 20.5-10.9 31.6-8.9 11.2 1.9 23.4 11.4 28.9 21.3 7.9-9 22.1-9.7 31.4-2.1 13.4-12.5 33-18.1 51-14.4 18 3.6 34.3 16 41.8 32.8 8.9-7.3 21.9-8 31.3-1.5 17.5-12.1 40.9-15.2 60.9-7.8 19.9 7.3 35.8 24.7 41.3 45.3z"/><path class="g" d="m868.5 416c-5.8-5.1-14.2-7.1-21.8-5.3-0.3-10.7-6.6-21.5-15.8-27-9.1-5.6-21.1-6.1-30.8-1.5-7-5.1-14.9-5.9-23-2.8-3.1-4.8-8.6-8.2-14.1-9.3-5.6-1.1-11.6 0.2-16.2 3.4-1.2-9.4-10.1-16.1-19.6-17.4-9.4-1.3-19 2.5-26.6 8.3-4.5-5.8-11.8-7.5-17.5-3.1-4.3-3-10.8-4.8-15.9-3.8-5.1 0.9-9.8 4-12.8 8.2-2.9-3.2-7-4.7-11.4-5-4.3-0.2-8.8 1.3-12.1 4.1-4.4-5.3-13.3-7.1-18.4-2.5-2.2-5-6.9-9.7-12.2-10.9-5.3-1.2-11.2 0.3-15.3 3.8-1.1-6.1-5.2-11.3-11-13.4-5.9-2.1-12.8-1-17.6 2.9 0.4-4.8-0.7-11.1-3.8-15-3-3.8-7.5-6.5-12.4-7.3l-5.8-25.8-9.5-0.3-9.5 0.3-5.8 25.8c-4.8 0.8-9.4 3.5-12.4 7.3-3 3.9-4.2 10.2-3.8 15-4.8-3.9-11.7-5-17.6-2.9-5.8 2.1-9.8 7.3-11 13.4-4.1-3.5-9.9-5-15.2-3.8-5.3 1.2-10.1 5.9-12.2 10.9-5.2-4.6-14.1-2.8-18.5 2.5-3.3-2.8-7.7-4.3-12.1-4.1-4.4 0.3-8.4 1.8-11.4 5-3-4.2-7.7-7.3-12.8-8.2-5.1-1-11.6 0.8-15.8 3.8-5.8-4.4-13.1-2.7-17.6 3.1-7.6-5.8-17.2-9.6-26.6-8.3-9.5 1.3-18.4 8-19.6 17.4-4.6-3.2-10.6-4.5-16.2-3.4-5.5 1.1-10.9 4.5-14 9.3-8.2-3.1-16.1-2.3-23.1 2.8-9.6-4.6-21.6-4.1-30.8 1.5-9.2 5.5-15.5 16.3-15.8 27-7.5-1.8-15.9 0.2-21.8 5.3-5.8 5.1-8.9 13.4-8 21.1h703.3c0.8-7.7-2.3-16-8.1-21.1z"/><path class="h" d="m664.3 419.1c-0.4-9.4-5.2-18.7-12.9-24.3-8.5-6-18-5.8-27.6-2.1-5.1-11.1-17.4-17.8-29.6-18.4-12.2-0.5-21.7 4-31.6 11.3-7.2-9.7-21.2-12.5-31.7-6.6-6.1-13.6-20.7-22.8-35.5-22.7-14.9 0.2-31.4 10.6-37.2 24.3-6.1-5-14.4-7.3-22.2-6.1-7.9 1.2-14.7 5.8-19 12.4-6-4.1-13.8-5.3-20.7-3.2-6.8 2.1-11.6 8.6-14.3 15.3-14.9-7.4-33.2-7.6-48.2-0.4-9.4 4.4-17.4 11.7-22.9 20.5z"/><path class="i" d="m490 286.6h-26.7l-3.6 8.1h34z"/><path class="j" d="m461.6 287.5h30.2c1 0 1.9-0.8 1.9-1.8v-107.5h-34v107.5c0 1 0.8 1.8 1.9 1.8z"/><path class="k" d="m476.7 142c-4.6 0-17 28.1-17 36.2h17 17c0-8.1-12.5-36.2-17-36.2z"/><g style="opacity:.2;mix-blend-mode:multiply"><path class="l" d="m493.7 285.2v0.5q0 0-0.1 0h-33.9q0 0 0 0v-0.5z"/><path class="l" d="m459.7 201.3v-0.7l4.6 4.6v-24.2h0.5v2.5h28.9v0.5h-28.9v21.8 13.6q0 0.1-0.1 0.1l-5 5.1v-0.8l4.6-4.5v-13.4z"/><path class="l" d="m472.5 146q0.2-0.4 0.5-0.7v32.9h-0.5z"/><path class="l" d="m487.9 168.5q0 0.1-0.1 0.1-0.1 0-0.1 0-0.1-0.1-0.2-0.2l-5.7-13.9q0-0.2 0.1-0.3l2.4-2.4q0.1 0.2 0.2 0.4l-2.2 2.2 5.5 13.5 2.5-2.5q0.1 0.3 0.2 0.5z"/></g><path class="m" d="m586.5 286.6h-26.7l-3.6 8.1h33.9z"/><path class="n" d="m558 287.5h30.3c1 0 1.8-0.8 1.8-1.8v-107.5h-33.9v107.5c0 1 0.8 1.8 1.8 1.8z"/><g style="opacity:.3;mix-blend-mode:multiply"><path class="o" d="m459.7 178.2h34v2.8h-34z"/><path class="o" d="m556.2 178.2h33.9v2.8h-33.9z"/></g><path class="p" d="m573.1 142c-4.5 0-16.9 28.1-16.9 36.2h16.9 17c0-8.1-12.4-36.2-17-36.2z"/><g style="opacity:.2;mix-blend-mode:multiply"><path class="l" d="m556.2 285.2v0.5q0 0 0 0h33.9q0 0 0 0v-0.5z"/><path class="l" d="m590.1 201.3v-0.7l-4.6 4.6v-24.2h-0.5v2.5h-28.8v0.5h28.8v21.8 13.6q0 0.1 0.1 0.1l5 5.1v-0.8l-4.6-4.5v-13.4z"/><path class="l" d="m577.3 146q-0.2-0.4-0.5-0.7v32.9h0.5z"/><path class="l" d="m561.9 168.5q0.1 0.1 0.2 0.1 0 0 0 0 0.2-0.1 0.2-0.2l5.7-13.9q0.1-0.2 0-0.3l-2.5-2.4q-0.1 0.2-0.2 0.4l2.2 2.2-5.5 13.5-2.5-2.5q-0.1 0.3-0.2 0.5z"/></g><path class="q" d="m493.7 153c0 75.8-69.6 91.2-69.6 124.8h100.8z"/><path class="r" d="m443.4 272.6q0.1-0.1 0.2-0.1h25.5v-28.1l-3.2-3.1q0-0.1 0-0.2v-17.3q0.2-0.3 0.5-0.5v17.7l2.7 2.7v-23.6q0.2-0.3 0.5-0.6v53h11c0.1 0 0.3 0.2 0.3 0.3v5h-0.6v-4.7h-36.6l-3.8 4.7h-0.6z"/><path class="s" d="m483.9 197.6c-19.2 39.5-59.8 54.5-59.8 80.2h5.8c4.7-26.8 42.7-40.6 58.8-80.2z"/><path class="t" d="m483.9 197.6c-19.2 39.5-59.8 54.5-59.8 80.2h5.8c4.7-26.8 42.7-40.6 58.8-80.2z"/><path class="u" d="m556.2 153c0 75.8 69.5 91.2 69.5 124.8h-100.8z"/><path class="r" d="m610.6 277.8h-0.7l-3.8-4.7h-36.6v4.7h-0.5v-5c0-0.1 0.1-0.3 0.2-0.3h11v-53q0.3 0.3 0.5 0.6v23.6l2.8-2.7v-17.7q0.2 0.2 0.5 0.5v17.3q0 0.1-0.1 0.2l-3.2 3.1v28.1h25.5q0.1 0 0.2 0.1z"/><path class="v" d="m566 197.6c19.1 39.5 59.7 54.5 59.7 80.2h-5.7c-4.8-26.8-42.8-40.6-58.8-80.2z"/><path class="w" d="m540.9 295.4h-32l-4.4 5.6h40.8z"/><path class="x" d="m496.1 280.9c3.6 7.6 6.5 12.9 7.5 14.7 0.3 0.5 0.9 0.7 1.7 0.7h19.6 19.6c0.8 0 1.4-0.2 1.7-0.7 1-1.8 4-7.1 7.5-14.7z"/><path class="y" d="m524.9 59.2c4.7 0 31.3 44.3 31.3 66.1v155.7c0 2.3-1.9 4.1-4.2 4.1h-54.2c-2.3 0-4.1-1.8-4.1-4.1v-155.7c0-21.8 26.5-66.1 31.2-66.1z"/><g style="opacity:.2;mix-blend-mode:multiply"><path class="z" d="m519.1 168.6v-48.2h-0.5v48.2h-19.7-5.2v0.5h4.9v90.7h-4.9v0.5h5.2c0.1 0 0.2-0.1 0.2-0.2v-91h57.1v-0.5z"/><path class="z" d="m550.9 200.5h5.3v-0.5h-5.5c-0.1 0-0.3 0.1-0.3 0.3v10.4h-6.8c-0.2 0-0.3 0.1-0.3 0.2v20.3c0 0.1 0.1 0.2 0.3 0.2h12.6v-0.5h-12.4v-19.7h12.4v-0.5h-5.3z"/><path class="z" d="m500.2 150.4v-21.5c0-0.2-0.1-0.3-0.2-0.3h-6.3v0.5h6v21h-6v0.5h6.3c0.1 0 0.2-0.1 0.2-0.2z"/><path class="z" d="m507 85.1h31.9c7.1 13.4 12.8 31.8 12.8 39.5v17.2c0 0.1 0.1 0.2 0.2 0.2h4.3v-0.5h-4v-16.9c0-8-5-23.2-10.5-34.9h3.4q-0.1-0.3-0.2-0.5h-3.4c-1.6-3.4-3.3-6.6-4.8-9.1l-0.5 0.3q1.3 2 2.4 4.2h-31.3q-0.2 0.2-0.3 0.5z"/></g><g style="opacity:.4;mix-blend-mode:multiply"><path class="z" d="m758.6 46.8c-0.3 0-0.6-0.2-0.6-0.6v-1.7c0-0.3 0.3-0.6 0.6-0.6 0.4 0 0.6 0.3 0.6 0.6v1.7c0 0.4-0.2 0.6-0.6 0.6z"/><path class="z" d="m762.8 46.8c-0.3 0-0.6-0.2-0.6-0.6v-1.7c0-0.3 0.3-0.6 0.6-0.6 0.3 0 0.6 0.3 0.6 0.6v1.7c0 0.4-0.3 0.6-0.6 0.6z"/><path class="z" d="m767 46.8c-0.4 0-0.6-0.2-0.6-0.6v-1.7c0-0.3 0.2-0.6 0.6-0.6 0.3 0 0.6 0.3 0.6 0.6v1.7c0 0.4-0.3 0.6-0.6 0.6z"/><path class="z" d="m771.2 46.8c-0.4 0-0.7-0.2-0.7-0.6v-1.7c0-0.3 0.3-0.6 0.7-0.6 0.3 0 0.6 0.3 0.6 0.6v1.7c0 0.4-0.3 0.6-0.6 0.6z"/><path class="z" d="m775.3 46.8c-0.3 0-0.6-0.2-0.6-0.6v-1.7c0-0.3 0.3-0.6 0.6-0.6 0.4 0 0.6 0.3 0.6 0.6v1.7c0 0.4-0.2 0.6-0.6 0.6z"/><path class="z" d="m779.5 46.8c-0.3 0-0.6-0.2-0.6-0.6v-1.7c0-0.3 0.3-0.6 0.6-0.6 0.3 0 0.6 0.3 0.6 0.6v1.7c0 0.4-0.3 0.6-0.6 0.6z"/><path class="z" d="m783.7 46.8c-0.4 0-0.6-0.2-0.6-0.6v-1.7c0-0.3 0.2-0.6 0.6-0.6 0.3 0 0.6 0.3 0.6 0.6v1.7c0 0.4-0.3 0.6-0.6 0.6z"/><path class="z" d="m787.9 46.8c-0.4 0-0.6-0.2-0.6-0.6v-1.7c0-0.3 0.2-0.6 0.6-0.6 0.3 0 0.6 0.3 0.6 0.6v1.7c0 0.4-0.3 0.6-0.6 0.6z"/></g><g style="opacity:.4;mix-blend-mode:multiply"><path class="z" d="m498.3 167c-0.4 0-0.7-0.3-0.7-0.6v-1.8c0-0.3 0.3-0.6 0.7-0.6 0.3 0 0.6 0.3 0.6 0.6v1.8c0 0.3-0.3 0.6-0.6 0.6z"/><path class="z" d="m502.4 167c-0.3 0-0.6-0.3-0.6-0.6v-1.8c0-0.3 0.3-0.6 0.6-0.6 0.4 0 0.6 0.3 0.6 0.6v1.8c0 0.3-0.2 0.6-0.6 0.6z"/><path class="z" d="m506.6 167c-0.3 0-0.6-0.3-0.6-0.6v-1.8c0-0.3 0.3-0.6 0.6-0.6 0.3 0 0.6 0.3 0.6 0.6v1.8c0 0.3-0.3 0.6-0.6 0.6z"/><path class="z" d="m510.8 167c-0.4 0-0.6-0.3-0.6-0.6v-1.8c0-0.3 0.2-0.6 0.6-0.6 0.3 0 0.6 0.3 0.6 0.6v1.8c0 0.3-0.3 0.6-0.6 0.6z"/><path class="z" d="m515 167c-0.4 0-0.6-0.3-0.6-0.6v-1.8c0-0.3 0.2-0.6 0.6-0.6 0.3 0 0.6 0.3 0.6 0.6v1.8c0 0.3-0.3 0.6-0.6 0.6z"/><path class="z" d="m523.3 167c-0.3 0-0.6-0.3-0.6-0.6v-1.8c0-0.3 0.3-0.6 0.6-0.6 0.3 0 0.6 0.3 0.6 0.6v1.8c0 0.3-0.3 0.6-0.6 0.6z"/><path class="z" d="m527.5 167c-0.3 0-0.6-0.3-0.6-0.6v-1.8c0-0.3 0.3-0.6 0.6-0.6 0.3 0 0.6 0.3 0.6 0.6v1.8c0 0.3-0.3 0.6-0.6 0.6z"/><path class="z" d="m531.7 167c-0.4 0-0.6-0.3-0.6-0.6v-1.8c0-0.3 0.2-0.6 0.6-0.6 0.3 0 0.6 0.3 0.6 0.6v1.8c0 0.3-0.3 0.6-0.6 0.6z"/><path class="z" d="m535.8 167c-0.3 0-0.6-0.3-0.6-0.6v-1.8c0-0.3 0.3-0.6 0.6-0.6 0.4 0 0.6 0.3 0.6 0.6v1.8c0 0.3-0.2 0.6-0.6 0.6z"/><path class="z" d="m540 167c-0.3 0-0.6-0.3-0.6-0.6v-1.8c0-0.3 0.3-0.6 0.6-0.6 0.4 0 0.6 0.3 0.6 0.6v1.8c0 0.3-0.2 0.6-0.6 0.6z"/><path class="z" d="m544.2 167c-0.3 0-0.6-0.3-0.6-0.6v-1.8c0-0.3 0.3-0.6 0.6-0.6 0.3 0 0.6 0.3 0.6 0.6v1.8c0 0.3-0.3 0.6-0.6 0.6z"/><path class="z" d="m548.4 167c-0.4 0-0.6-0.3-0.6-0.6v-1.8c0-0.3 0.2-0.6 0.6-0.6 0.3 0 0.6 0.3 0.6 0.6v1.8c0 0.3-0.3 0.6-0.6 0.6z"/><path class="z" d="m552.5 167c-0.3 0-0.6-0.3-0.6-0.6v-1.8c0-0.3 0.3-0.6 0.6-0.6 0.4 0 0.7 0.3 0.7 0.6v1.8c0 0.3-0.3 0.6-0.7 0.6z"/></g><path fill-rule="evenodd" class="A" d="m539 282.4c-0.3 0-0.5-0.2-0.5-0.4 0-0.3 0.2-0.5 0.5-0.5 0.3 0 0.5 0.2 0.5 0.5 0 0.2-0.2 0.4-0.5 0.4zm3.2 0c-0.2 0-0.5-0.2-0.5-0.4 0-0.3 0.3-0.5 0.5-0.5 0.3 0 0.5 0.2 0.5 0.5 0 0.2-0.2 0.4-0.5 0.4zm3.3 0c-0.3 0-0.5-0.2-0.5-0.4 0-0.3 0.2-0.5 0.5-0.5 0.2 0 0.4 0.2 0.4 0.5 0 0.2-0.2 0.4-0.4 0.4zm3.2 0c-0.3 0-0.5-0.2-0.5-0.4 0-0.3 0.2-0.5 0.5-0.5 0.2 0 0.5 0.2 0.5 0.5 0 0.2-0.3 0.4-0.5 0.4zm3.2 0c-0.3 0-0.5-0.2-0.5-0.4 0-0.3 0.2-0.5 0.5-0.5 0.3 0 0.5 0.2 0.5 0.5 0 0.2-0.2 0.4-0.5 0.4zm-16.1 0c-0.3 0-0.5-0.2-0.5-0.4 0-0.3 0.2-0.5 0.5-0.5 0.3 0 0.5 0.2 0.5 0.5 0 0.2-0.2 0.4-0.5 0.4zm-3.2 0c-0.3 0-0.5-0.2-0.5-0.4 0-0.3 0.2-0.5 0.5-0.5 0.3 0 0.5 0.2 0.5 0.5 0 0.2-0.2 0.4-0.5 0.4zm-3.2 0c-0.3 0-0.5-0.2-0.5-0.4 0-0.3 0.2-0.5 0.5-0.5 0.2 0 0.5 0.2 0.5 0.5 0 0.2-0.3 0.4-0.5 0.4z"/><path fill-rule="evenodd" class="A" d="m507.8 282.4c-0.2 0-0.5-0.2-0.5-0.4 0-0.3 0.3-0.5 0.5-0.5 0.3 0 0.5 0.2 0.5 0.5 0 0.2-0.2 0.4-0.5 0.4zm3.3 0c-0.3 0-0.5-0.2-0.5-0.4 0-0.3 0.2-0.5 0.5-0.5 0.2 0 0.5 0.2 0.5 0.5 0 0.2-0.3 0.4-0.5 0.4zm3.2 0c-0.3 0-0.5-0.2-0.5-0.4 0-0.3 0.2-0.5 0.5-0.5 0.3 0 0.5 0.2 0.5 0.5 0 0.2-0.2 0.4-0.5 0.4zm3.2 0c-0.3 0-0.5-0.2-0.5-0.4 0-0.3 0.2-0.5 0.5-0.5 0.3 0 0.5 0.2 0.5 0.5 0 0.2-0.2 0.4-0.5 0.4zm3.2 0c-0.3 0-0.5-0.2-0.5-0.4 0-0.3 0.2-0.5 0.5-0.5 0.3 0 0.5 0.2 0.5 0.5 0 0.2-0.2 0.4-0.5 0.4zm-16.1 0c-0.2 0-0.5-0.2-0.5-0.4 0-0.3 0.3-0.5 0.5-0.5 0.3 0 0.5 0.2 0.5 0.5 0 0.2-0.2 0.4-0.5 0.4zm-3.2 0c-0.3 0-0.5-0.2-0.5-0.4 0-0.3 0.2-0.5 0.5-0.5 0.3 0 0.5 0.2 0.5 0.5 0 0.2-0.2 0.4-0.5 0.4zm-3.2 0c-0.3 0-0.5-0.2-0.5-0.4 0-0.3 0.2-0.5 0.5-0.5 0.3 0 0.5 0.2 0.5 0.5 0 0.2-0.2 0.4-0.5 0.4z"/><g style="opacity:.4;mix-blend-mode:multiply"><path fill-rule="evenodd" class="B" d="m559.8 187.9c0 0.3-0.3 0.5-0.5 0.5-0.3 0-0.5-0.2-0.5-0.5 0-0.3 0.2-0.5 0.5-0.5 0.2 0 0.5 0.2 0.5 0.5zm0 3.2c0 0.3-0.3 0.5-0.5 0.5-0.3 0-0.5-0.2-0.5-0.5 0-0.2 0.2-0.5 0.5-0.5 0.2 0 0.5 0.3 0.5 0.5zm0 3.2c0 0.3-0.3 0.5-0.5 0.5-0.3 0-0.5-0.2-0.5-0.5 0-0.2 0.2-0.4 0.5-0.4 0.2 0 0.5 0.2 0.5 0.4zm0 3.3c0 0.2-0.3 0.5-0.5 0.5-0.3 0-0.5-0.3-0.5-0.5 0-0.3 0.2-0.5 0.5-0.5 0.2 0 0.5 0.2 0.5 0.5zm0 3.2c0 0.3-0.3 0.5-0.5 0.5-0.3 0-0.5-0.2-0.5-0.5 0-0.3 0.2-0.5 0.5-0.5 0.2 0 0.5 0.2 0.5 0.5zm0 3.2c0 0.3-0.3 0.5-0.5 0.5-0.3 0-0.5-0.2-0.5-0.5 0-0.3 0.2-0.5 0.5-0.5 0.2 0 0.5 0.2 0.5 0.5zm0 3.2c0 0.3-0.3 0.5-0.5 0.5-0.3 0-0.5-0.2-0.5-0.5 0-0.3 0.2-0.5 0.5-0.5 0.2 0 0.5 0.2 0.5 0.5zm0 3.2c0 0.3-0.3 0.5-0.5 0.5-0.3 0-0.5-0.2-0.5-0.5 0-0.2 0.2-0.5 0.5-0.5 0.2 0 0.5 0.3 0.5 0.5zm0 3.3c0 0.2-0.3 0.5-0.5 0.5-0.3 0-0.5-0.3-0.5-0.5 0-0.3 0.2-0.5 0.5-0.5 0.2 0 0.5 0.2 0.5 0.5zm0 3.2c0 0.2-0.3 0.5-0.5 0.5-0.3 0-0.5-0.3-0.5-0.5 0-0.3 0.2-0.5 0.5-0.5 0.2 0 0.5 0.2 0.5 0.5zm0 3.2c0 0.3-0.3 0.5-0.5 0.5-0.3 0-0.5-0.2-0.5-0.5 0-0.3 0.2-0.5 0.5-0.5 0.2 0 0.5 0.2 0.5 0.5zm0 3.2c0 0.3-0.3 0.5-0.5 0.5-0.3 0-0.5-0.2-0.5-0.5 0-0.3 0.2-0.5 0.5-0.5 0.2 0 0.5 0.2 0.5 0.5zm0 3.2c0 0.3-0.3 0.5-0.5 0.5-0.3 0-0.5-0.2-0.5-0.5 0-0.2 0.2-0.5 0.5-0.5 0.2 0 0.5 0.3 0.5 0.5zm0 3.2c0 0.3-0.3 0.5-0.5 0.5-0.3 0-0.5-0.2-0.5-0.5 0-0.2 0.2-0.5 0.5-0.5 0.2 0 0.5 0.3 0.5 0.5zm0 3.3c0 0.2-0.3 0.5-0.5 0.5-0.3 0-0.5-0.3-0.5-0.5 0-0.3 0.2-0.5 0.5-0.5 0.2 0 0.5 0.2 0.5 0.5zm0 3.2c0 0.3-0.3 0.5-0.5 0.5-0.3 0-0.5-0.2-0.5-0.5 0-0.3 0.2-0.5 0.5-0.5 0.2 0 0.5 0.2 0.5 0.5zm0 3.2c0 0.3-0.3 0.5-0.5 0.5-0.3 0-0.5-0.2-0.5-0.5 0-0.3 0.2-0.5 0.5-0.5 0.2 0 0.5 0.2 0.5 0.5zm0 3.2c0 0.3-0.3 0.5-0.5 0.5-0.3 0-0.5-0.2-0.5-0.5 0-0.3 0.2-0.5 0.5-0.5 0.2 0 0.5 0.2 0.5 0.5zm0 3.2c0 0.3-0.3 0.5-0.5 0.5-0.3 0-0.5-0.2-0.5-0.5 0-0.2 0.2-0.5 0.5-0.5 0.2 0 0.5 0.3 0.5 0.5zm0 3.3c0 0.2-0.3 0.4-0.5 0.4-0.3 0-0.5-0.2-0.5-0.4 0-0.3 0.2-0.5 0.5-0.5 0.2 0 0.5 0.2 0.5 0.5zm0 3.2c0 0.2-0.3 0.5-0.5 0.5-0.3 0-0.5-0.3-0.5-0.5 0-0.3 0.2-0.5 0.5-0.5 0.2 0 0.5 0.2 0.5 0.5zm0 3.2c0 0.3-0.3 0.5-0.5 0.5-0.3 0-0.5-0.2-0.5-0.5 0-0.3 0.2-0.5 0.5-0.5 0.2 0 0.5 0.2 0.5 0.5zm0 3.2c0 0.3-0.3 0.5-0.5 0.5-0.3 0-0.5-0.2-0.5-0.5 0-0.3 0.2-0.5 0.5-0.5 0.2 0 0.5 0.2 0.5 0.5zm0 3.2c0 0.3-0.3 0.5-0.5 0.5-0.3 0-0.5-0.2-0.5-0.5 0-0.3 0.2-0.5 0.5-0.5 0.2 0 0.5 0.2 0.5 0.5zm0 3.2c0 0.3-0.3 0.5-0.5 0.5-0.3 0-0.5-0.2-0.5-0.5 0-0.2 0.2-0.5 0.5-0.5 0.2 0 0.5 0.3 0.5 0.5zm0 3.3c0 0.2-0.3 0.5-0.5 0.5-0.3 0-0.5-0.3-0.5-0.5 0-0.3 0.2-0.5 0.5-0.5 0.2 0 0.5 0.2 0.5 0.5zm0 3.2c0 0.2-0.3 0.5-0.5 0.5-0.3 0-0.5-0.3-0.5-0.5 0-0.3 0.2-0.5 0.5-0.5 0.2 0 0.5 0.2 0.5 0.5zm0 3.2c0 0.3-0.3 0.5-0.5 0.5-0.3 0-0.5-0.2-0.5-0.5 0-0.3 0.2-0.5 0.5-0.5 0.2 0 0.5 0.2 0.5 0.5z"/></g><g style="opacity:.4;mix-blend-mode:multiply"><path fill-rule="evenodd" class="B" d="m491.2 187.9c0 0.3-0.2 0.5-0.5 0.5-0.3 0-0.5-0.2-0.5-0.5 0-0.3 0.2-0.5 0.5-0.5 0.3 0 0.5 0.2 0.5 0.5zm0 3.2c0 0.3-0.2 0.5-0.5 0.5-0.3 0-0.5-0.2-0.5-0.5 0-0.2 0.2-0.5 0.5-0.5 0.3 0 0.5 0.3 0.5 0.5zm0 3.2c0 0.3-0.2 0.5-0.5 0.5-0.3 0-0.5-0.2-0.5-0.5 0-0.2 0.2-0.4 0.5-0.4 0.3 0 0.5 0.2 0.5 0.4zm0 3.3c0 0.2-0.2 0.5-0.5 0.5-0.3 0-0.5-0.3-0.5-0.5 0-0.3 0.2-0.5 0.5-0.5 0.3 0 0.5 0.2 0.5 0.5zm0 3.2c0 0.3-0.2 0.5-0.5 0.5-0.3 0-0.5-0.2-0.5-0.5 0-0.3 0.2-0.5 0.5-0.5 0.3 0 0.5 0.2 0.5 0.5zm0 3.2c0 0.3-0.2 0.5-0.5 0.5-0.3 0-0.5-0.2-0.5-0.5 0-0.3 0.2-0.5 0.5-0.5 0.3 0 0.5 0.2 0.5 0.5zm0 3.2c0 0.3-0.2 0.5-0.5 0.5-0.3 0-0.5-0.2-0.5-0.5 0-0.3 0.2-0.5 0.5-0.5 0.3 0 0.5 0.2 0.5 0.5zm0 3.2c0 0.3-0.2 0.5-0.5 0.5-0.3 0-0.5-0.2-0.5-0.5 0-0.2 0.2-0.5 0.5-0.5 0.3 0 0.5 0.3 0.5 0.5zm0 3.3c0 0.2-0.2 0.5-0.5 0.5-0.3 0-0.5-0.3-0.5-0.5 0-0.3 0.2-0.5 0.5-0.5 0.3 0 0.5 0.2 0.5 0.5zm0 3.2c0 0.2-0.2 0.5-0.5 0.5-0.3 0-0.5-0.3-0.5-0.5 0-0.3 0.2-0.5 0.5-0.5 0.3 0 0.5 0.2 0.5 0.5zm0 3.2c0 0.3-0.2 0.5-0.5 0.5-0.3 0-0.5-0.2-0.5-0.5 0-0.3 0.2-0.5 0.5-0.5 0.3 0 0.5 0.2 0.5 0.5zm0 3.2c0 0.3-0.2 0.5-0.5 0.5-0.3 0-0.5-0.2-0.5-0.5 0-0.3 0.2-0.5 0.5-0.5 0.3 0 0.5 0.2 0.5 0.5zm0 3.2c0 0.3-0.2 0.5-0.5 0.5-0.3 0-0.5-0.2-0.5-0.5 0-0.2 0.2-0.5 0.5-0.5 0.3 0 0.5 0.3 0.5 0.5zm0 3.2c0 0.3-0.2 0.5-0.5 0.5-0.3 0-0.5-0.2-0.5-0.5 0-0.2 0.2-0.5 0.5-0.5 0.3 0 0.5 0.3 0.5 0.5zm0 3.3c0 0.2-0.2 0.5-0.5 0.5-0.3 0-0.5-0.3-0.5-0.5 0-0.3 0.2-0.5 0.5-0.5 0.3 0 0.5 0.2 0.5 0.5zm0 3.2c0 0.3-0.2 0.5-0.5 0.5-0.3 0-0.5-0.2-0.5-0.5 0-0.3 0.2-0.5 0.5-0.5 0.3 0 0.5 0.2 0.5 0.5zm0 3.2c0 0.3-0.2 0.5-0.5 0.5-0.3 0-0.5-0.2-0.5-0.5 0-0.3 0.2-0.5 0.5-0.5 0.3 0 0.5 0.2 0.5 0.5zm0 3.2c0 0.3-0.2 0.5-0.5 0.5-0.3 0-0.5-0.2-0.5-0.5 0-0.3 0.2-0.5 0.5-0.5 0.3 0 0.5 0.2 0.5 0.5zm0 3.2c0 0.3-0.2 0.5-0.5 0.5-0.3 0-0.5-0.2-0.5-0.5 0-0.2 0.2-0.5 0.5-0.5 0.3 0 0.5 0.3 0.5 0.5zm0 3.3c0 0.2-0.2 0.4-0.5 0.4-0.3 0-0.5-0.2-0.5-0.4 0-0.3 0.2-0.5 0.5-0.5 0.3 0 0.5 0.2 0.5 0.5zm0 3.2c0 0.2-0.2 0.5-0.5 0.5-0.3 0-0.5-0.3-0.5-0.5 0-0.3 0.2-0.5 0.5-0.5 0.3 0 0.5 0.2 0.5 0.5zm0 3.2c0 0.3-0.2 0.5-0.5 0.5-0.3 0-0.5-0.2-0.5-0.5 0-0.3 0.2-0.5 0.5-0.5 0.3 0 0.5 0.2 0.5 0.5zm0 3.2c0 0.3-0.2 0.5-0.5 0.5-0.3 0-0.5-0.2-0.5-0.5 0-0.3 0.2-0.5 0.5-0.5 0.3 0 0.5 0.2 0.5 0.5zm0 3.2c0 0.3-0.2 0.5-0.5 0.5-0.3 0-0.5-0.2-0.5-0.5 0-0.3 0.2-0.5 0.5-0.5 0.3 0 0.5 0.2 0.5 0.5zm0 3.2c0 0.3-0.2 0.5-0.5 0.5-0.3 0-0.5-0.2-0.5-0.5 0-0.2 0.2-0.5 0.5-0.5 0.3 0 0.5 0.3 0.5 0.5zm0 3.3c0 0.2-0.2 0.5-0.5 0.5-0.3 0-0.5-0.3-0.5-0.5 0-0.3 0.2-0.5 0.5-0.5 0.3 0 0.5 0.2 0.5 0.5zm0 3.2c0 0.2-0.2 0.5-0.5 0.5-0.3 0-0.5-0.3-0.5-0.5 0-0.3 0.2-0.5 0.5-0.5 0.3 0 0.5 0.2 0.5 0.5zm0 3.2c0 0.3-0.2 0.5-0.5 0.5-0.3 0-0.5-0.2-0.5-0.5 0-0.3 0.2-0.5 0.5-0.5 0.3 0 0.5 0.2 0.5 0.5z"/></g><path class="C" d="m528.1 235.3c0 31.1-1.4 56.2-3.2 56.2-1.7 0-3.2-25.1-3.2-56.2 0-31 1.5-30.8 3.2-30.8 1.8 0 3.2-0.2 3.2 30.8z"/><path class="D" d="m508.3 82.7h33.3c-7.1-13.2-14.4-23.5-16.7-23.5-2.3 0-9.6 10.3-16.6 23.5z"/><path class="E" d="m521 91.7c-2.6 0-5 1.4-6.6 3.7-5.9 8.9-11.1 20.8-7.4 24.1 6.1 5.4 29.7 5.4 35.8 0 3.7-3.3-1.5-15.2-7.4-24.1-1.6-2.3-4-3.7-6.6-3.7z"/><path class="F" d="m524.9 122c-7.5 0-14.1-1.4-16.5-3.6-2-1.7 0.9-11.2 7.7-21.4 1.2-1.7 3-2.7 4.9-2.7h7.8c1.9 0 3.7 1 4.9 2.7 6.8 10.2 9.7 19.7 7.7 21.4-2.3 2.2-9 3.6-16.5 3.6z"/><path class="G" d="m532 97.7q-0.7-1-1.6-1.4l-10.1 22.9q2.2 0.2 4.6 0.2c2.7 0 5.1-0.2 7.2-0.5l5.2-11.8c-1.2-2.7-3-5.9-5.3-9.4z"/><path class="H" d="m521 95.8c-1.2 0-2.4 0.7-3.2 1.9q-0.3 0.5-0.6 1l-7.3 16.6q-0.1 0.8 0 1.2c0.7 0.6 2.1 1.2 4 1.7l9.9-22.4z"/></g></svg>