<svg version="1.2" xmlns="http://www.w3.org/2000/svg" viewBox="0 0 673 406" width="1024" height="618"><defs><clipPath clipPathUnits="userSpaceOnUse" id="cp1"><path d="m-3.76-2.43h676.72v408.04h-676.72z"/></clipPath><linearGradient id="P" gradientUnits="userSpaceOnUse"/><radialGradient id="g1" cx="40.2" cy="522.8" r="871.1" href="#P"><stop stop-color="#ffd301"/><stop offset="1" stop-color="#ff17d0"/></radialGradient><radialGradient id="g2" cx="67" cy="490.9" r="871.3" href="#P"><stop stop-color="#ffd301"/><stop offset="1" stop-color="#ff17d0"/></radialGradient><linearGradient id="g3" x1="550.6" y1="210.1" x2="550.6" y2="286.7" href="#P"><stop offset=".13" stop-color="#fff"/><stop offset="1" stop-color="#ffe2a5"/></linearGradient><linearGradient id="g4" x1="555.1" y1="228.1" x2="555.1" y2="297" href="#P"><stop offset=".31" stop-color="#fff"/><stop offset="1" stop-color="#ffe2a5"/></linearGradient><linearGradient id="g5" x1="522.6" y1="252.1" x2="522.6" y2="286.6" href="#P"><stop offset=".13" stop-color="#fff"/><stop offset="1" stop-color="#ffe2a5"/></linearGradient><linearGradient id="g6" x1="510.3" y1="210.2" x2="510.3" y2="197.8" href="#P"><stop stop-color="#bf2850"/><stop offset="1" stop-color="#3f003b"/></linearGradient><linearGradient id="g7" x1="499" y1="124" x2="523" y2="124" href="#P"><stop offset=".04" stop-color="#ff9066"/><stop offset=".24" stop-color="#bf0043"/><stop offset=".57" stop-color="#ff0043"/><stop offset="1" stop-color="#ffba71"/></linearGradient><linearGradient id="g8" x1="499" y1="98.4" x2="523" y2="98.4" href="#P"><stop offset=".04" stop-color="#ff9066"/><stop offset=".24" stop-color="#bf0043"/><stop offset=".57" stop-color="#ff0043"/><stop offset="1" stop-color="#ffba71"/></linearGradient><linearGradient id="g9" x1="578.6" y1="210.2" x2="578.6" y2="197.8" href="#P"><stop stop-color="#bf2850"/><stop offset="1" stop-color="#3f003b"/></linearGradient><linearGradient id="g10" x1="567.3" y1="124" x2="591.3" y2="124" href="#P"><stop offset=".04" stop-color="#ff9066"/><stop offset=".24" stop-color="#bf0043"/><stop offset=".57" stop-color="#ff0043"/><stop offset="1" stop-color="#ffba71"/></linearGradient><linearGradient id="g11" x1="567.3" y1="98.4" x2="591.3" y2="98.4" href="#P"><stop offset=".04" stop-color="#ff9066"/><stop offset=".24" stop-color="#bf0043"/><stop offset=".57" stop-color="#ff0043"/><stop offset="1" stop-color="#ffba71"/></linearGradient><linearGradient id="g12" x1="466.5" y1="106.2" x2="547.9" y2="106.2" href="#P"><stop stop-color="#fffff0"/><stop offset=".88" stop-color="#d9bf9b"/></linearGradient><linearGradient id="g13" x1="462" y1="122.9" x2="570.4" y2="146" href="#P"><stop stop-color="#fffff0"/><stop offset=".72" stop-color="#d9bf9b"/><stop offset="1" stop-color="#f1ffea"/></linearGradient><linearGradient id="g14" x1="462" y1="122.9" x2="570.4" y2="146" href="#P"><stop stop-color="#bf2850"/><stop offset="1" stop-color="#3f003b"/></linearGradient><linearGradient id="g15" x1="639.9" y1="194.5" x2="566.7" y2="194.5" href="#P"><stop stop-color="#fffff0"/><stop offset=".88" stop-color="#d9bf9b"/></linearGradient><linearGradient id="g16" x1="628.3" y1="122.9" x2="519.8" y2="146" href="#P"><stop stop-color="#bf2850"/><stop offset="1" stop-color="#3f003b"/></linearGradient><linearGradient id="g17" x1="544.8" y1="213.4" x2="544.8" y2="202.5" href="#P"><stop stop-color="#bf2850"/><stop offset="1" stop-color="#3f003b"/></linearGradient><linearGradient id="g18" x1="543.7" y1="213.5" x2="543.7" y2="196.9" href="#P"><stop stop-color="#bf2850"/><stop offset="1" stop-color="#3f003b"/></linearGradient><linearGradient id="g19" x1="523" y1="39.7" x2="567.3" y2="39.7" href="#P"><stop stop-color="#fffff0"/><stop offset=".72" stop-color="#d9bf9b"/><stop offset="1" stop-color="#f1ffea"/></linearGradient><linearGradient id="g20" x1="966.9" y1="145.5" x2="966.9" y2="218.5" href="#P"><stop stop-color="#bf2850"/><stop offset="1" stop-color="#3f003b"/></linearGradient><linearGradient id="g21" x1="551" y1="35.9" x2="551" y2="78.5" href="#P"><stop stop-color="#bf2850"/><stop offset="1" stop-color="#3f003b"/></linearGradient><linearGradient id="g22" x1="554.5" y1="65.3" x2="554.5" y2="126.3" href="#P"><stop stop-color="#bf4b50"/><stop offset="1" stop-color="#291a68"/></linearGradient><radialGradient id="g23" cx="507.2" cy="110.5" r="115.5" href="#P"><stop stop-color="#ffd301"/><stop offset="1" stop-color="#ff17d0"/></radialGradient><linearGradient id="g24" x1="565.9" y1="71.3" x2="549.3" y2="98" href="#P"><stop stop-color="#ffd35d" stop-opacity="1"/><stop offset="1" stop-color="#ffa4a3" stop-opacity="0"/></linearGradient><linearGradient id="g25" x1="559.1" y1="70.2" x2="543.9" y2="94.6" href="#P"><stop stop-color="#ffd35d" stop-opacity="1"/><stop offset="1" stop-color="#ffa4a3" stop-opacity="0"/></linearGradient></defs><style>.a{fill:url(#g1)}.b{fill:url(#g2)}.c{fill:#fffe00}.d{fill:#fff}.e{fill:#9b53dc}.f{fill:url(#g3)}.g{fill:url(#g4)}.h{fill:url(#g5)}.i{fill:url(#g6)}.j{fill:url(#g7)}.k{fill:url(#g8)}.l{fill:#973e56}.m{fill:url(#g9)}.n{fill:url(#g10)}.o{mix-blend-mode:multiply;fill:#973e56}.p{fill:url(#g11)}.q{fill:url(#g12)}.r{opacity:.3;mix-blend-mode:multiply;fill:#ddc4a3}.s{fill:url(#g13)}.t{fill:url(#g14)}.u{fill:url(#g15)}.v{fill:url(#g16)}.w{fill:url(#g17)}.x{fill:url(#g18)}.y{fill:url(#g19)}.z{fill:#e3d2b4}.A{opacity:.4;mix-blend-mode:multiply;fill:#e3d2b4}.B{opacity:.4;mix-blend-mode:multiply;fill:#cd2d2f}.C{fill:url(#g20)}.D{fill:url(#g21)}.E{fill:url(#g22)}.F{fill:url(#g23)}.G{fill:url(#g24)}.H{fill:url(#g25)}</style><g clip-path="url(#cp1)"><path class="a" d="m-8.3-5.2h685.8v413.5h-685.8z"/><path class="b" d="m625.8 205.4c-23.9-10.8-36.5-34.4-51.3-54.5-14.8-20.1-38.5-39.8-64.8-35.3-24.7 4.2-44.3 29-68.8 24.1-33.7-6.8-29-57.3-58.8-73.1-32.7-17.3-73 21.4-109.5 12.1-22.6-5.7-36.2-28.3-58.8-34-26.3-6.6-56.7 11.8-80.6-0.3-13.7-6.9-19.7-21.3-27.9-33.4-3.9-5.8-8.6-11.2-13.9-16.2h-99.7v129.8c7.7 6.2 14 13.8 18.1 22.3 10.3 21.2 7.5 45.5 8.9 68.6 1.4 23.2 9.6 49 32.5 59.6 41.9 19.3 93.4-27.3 136.7-10.8 27.8 10.6 39.8 43.4 68.4 51.9 38 11.2 74-27.4 113.9-25.7 34.8 1.4 57.9 31.5 79 56.5 18.8 22.4 40.2 43 63.8 61.3h164.5v-197.9c-18 2.3-35.5 2.3-51.7-5z"/><path class="c" d="m175.7 39.5c-0.6 0-1.2-0.5-1.2-1.2 0-0.6 0.6-1.2 1.2-1.2 0.7 0 1.2 0.6 1.2 1.2 0 0.7-0.5 1.2-1.2 1.2z"/><path class="c" d="m298.2 58.7c-0.7 0-1.2-0.5-1.2-1.1 0-0.7 0.5-1.2 1.2-1.2 0.6 0 1.2 0.5 1.2 1.2 0 0.6-0.6 1.1-1.2 1.1z"/><path class="c" d="m650.4 164.5c-0.6 0-1.2-0.5-1.2-1.1 0-0.7 0.6-1.2 1.2-1.2 0.7 0 1.2 0.5 1.2 1.2 0 0.6-0.5 1.1-1.2 1.1z"/><path class="c" d="m32 371c-0.5 0-0.9-0.4-0.9-0.8 0-0.5 0.4-0.9 0.9-0.9 0.5 0 0.9 0.4 0.9 0.9 0 0.4-0.4 0.8-0.9 0.8z"/><path class="c" d="m496.2 37.9c0.4 0.3 0.4 0.9 0.1 1.3-0.3 0.3-0.8 0.4-1.2 0.1-0.3-0.3-0.4-0.9-0.1-1.2 0.3-0.4 0.8-0.5 1.2-0.2z"/><path class="c" d="m630.6 137.1c-1.2 0-2.2-1-2.2-2.2 0-1.2 1-2.2 2.2-2.2 1.2 0 2.2 1 2.2 2.2 0 1.2-1 2.2-2.2 2.2z"/><path class="c" d="m302.9 66.8c-1.3 0-2.2-1-2.2-2.2 0-1.2 0.9-2.2 2.2-2.2 1.2 0 2.2 1 2.2 2.2 0 1.2-1 2.2-2.2 2.2z"/><path class="c" d="m590.1 53.8c-1.2 0-2.1-1-2.1-2.2 0-1.2 0.9-2.2 2.1-2.2 1.3 0 2.2 1 2.2 2.2 0 1.2-0.9 2.2-2.2 2.2z"/><path class="c" d="m16 346.7c-0.7 0-1.2-0.5-1.2-1.2 0-0.6 0.5-1.1 1.2-1.1 0.6 0 1.2 0.5 1.2 1.1 0 0.7-0.6 1.2-1.2 1.2z"/><path class="c" d="m488.9 40.7c-0.6 0-1.1-0.6-1.1-1.2 0-0.7 0.5-1.2 1.1-1.2 0.7 0 1.2 0.5 1.2 1.2 0 0.6-0.5 1.2-1.2 1.2z"/><path class="c" d="m430.2 188.2c-0.5 0-0.9-0.4-0.9-0.9 0-0.5 0.4-0.9 0.9-0.9 0.5 0 0.9 0.4 0.9 0.9 0 0.5-0.4 0.9-0.9 0.9z"/><path class="c" d="m417.9 206.4c-0.5 0-0.9-0.4-0.9-0.9 0-0.5 0.4-0.9 0.9-0.9 0.5 0 0.9 0.4 0.9 0.9 0 0.5-0.4 0.9-0.9 0.9z"/><path class="c" d="m501.4 283.8c0 0.3-0.2 0.5-0.5 0.5-0.2 0-0.5-0.2-0.5-0.5 0-0.2 0.3-0.5 0.5-0.5 0.3 0 0.5 0.3 0.5 0.5z"/><path class="c" d="m33 389.3c0 0.2-0.2 0.4-0.5 0.4-0.3 0-0.5-0.2-0.5-0.4 0-0.3 0.2-0.5 0.5-0.5 0.3 0 0.5 0.2 0.5 0.5z"/><path class="c" d="m553.9 361.8c0.3 0.3 0.4 0.9 0.1 1.2-0.3 0.4-0.9 0.5-1.2 0.2-0.4-0.3-0.5-0.9-0.2-1.3 0.3-0.3 0.9-0.4 1.3-0.1z"/><path class="c" d="m65.8 362c0.4 0.3 0.4 0.8 0.1 1.2-0.3 0.4-0.8 0.4-1.2 0.1-0.4-0.3-0.4-0.8-0.1-1.2 0.3-0.4 0.8-0.4 1.2-0.1z"/><path class="c" d="m161.8 53.8c0 0.3-0.2 0.5-0.5 0.5-0.3 0-0.5-0.2-0.5-0.5 0-0.3 0.2-0.5 0.5-0.5 0.3 0 0.5 0.2 0.5 0.5z"/><path class="c" d="m432.9 198.1c-0.1 0.2-0.4 0.4-0.6 0.2-0.3-0.1-0.4-0.4-0.3-0.6 0.1-0.2 0.4-0.4 0.6-0.3 0.3 0.2 0.4 0.4 0.3 0.7z"/><path class="c" d="m68.1 51.6c0 0.2-0.2 0.5-0.4 0.5-0.3 0-0.5-0.2-0.6-0.4 0-0.3 0.2-0.5 0.5-0.6 0.3 0 0.5 0.2 0.5 0.5z"/><path class="c" d="m562.6 349.3c0.1 0.2 0 0.5-0.2 0.6-0.3 0.1-0.6 0-0.7-0.3-0.1-0.2 0.1-0.5 0.3-0.6 0.3-0.1 0.5 0 0.6 0.3z"/><path class="d" d="m378.5 305l1.1 2.2c0.4 0.7 1 1.3 1.7 1.7l2.1 1.2c0.1 0.1 0.1 0.2 0 0.2l-2.1 1.2c-0.7 0.4-1.3 1-1.7 1.8l-1.1 2.1c-0.1 0.1-0.2 0.1-0.2 0l-1.2-2.1c-0.4-0.8-1-1.4-1.7-1.8l-2.1-1.2c-0.1 0-0.1-0.1 0-0.2l2.1-1.2c0.7-0.4 1.3-1 1.7-1.7l1.2-2.2c0-0.1 0.1-0.1 0.2 0z"/><path class="d" d="m615.8 300.8l1.2 2.2c0.4 0.7 1 1.3 1.7 1.7l2.1 1.2c0.1 0 0.1 0.2 0 0.2l-2.1 1.2c-0.7 0.4-1.3 1-1.7 1.8l-1.2 2.1c0 0.1-0.1 0.1-0.2 0l-1.1-2.1c-0.4-0.8-1-1.4-1.7-1.8l-2.1-1.2c-0.1 0-0.1-0.2 0-0.2l2.1-1.2c0.7-0.4 1.3-1 1.7-1.7l1.1-2.2c0.1-0.1 0.2-0.1 0.2 0z"/><path class="d" d="m418.9 76.5l1.2 2.1c0.4 0.8 1 1.4 1.8 1.8l2.1 1.2c0.1 0 0.1 0.1 0 0.2l-2.1 1.2c-0.8 0.4-1.4 1-1.8 1.7l-1.2 2.2c0 0.1-0.2 0.1-0.2 0l-1.2-2.2c-0.4-0.7-1-1.3-1.7-1.7l-2.2-1.2c-0.1-0.1-0.1-0.2 0-0.2l2.2-1.2c0.7-0.4 1.3-1 1.7-1.8l1.2-2.1c0-0.1 0.2-0.1 0.2 0z"/><path class="d" d="m211.3 65.4l0.4 0.8q0.3 0.5 0.7 0.7l0.8 0.5q0.1 0 0 0l-0.8 0.5q-0.4 0.2-0.7 0.6l-0.4 0.9q0 0-0.1 0l-0.4-0.9q-0.3-0.4-0.7-0.6l-0.8-0.5q-0.1 0 0 0l0.8-0.5q0.4-0.2 0.7-0.7l0.4-0.8q0.1 0 0.1 0z"/><path class="d" d="m156 353.2l0.4 0.8q0.3 0.4 0.7 0.6l0.8 0.5q0.1 0 0 0.1l-0.8 0.4q-0.4 0.2-0.7 0.7l-0.4 0.8q0 0-0.1 0l-0.4-0.8q-0.3-0.5-0.7-0.7l-0.8-0.4q-0.1-0.1 0-0.1l0.8-0.5q0.4-0.2 0.7-0.6l0.4-0.8q0.1-0.1 0.1 0z"/><path class="d" d="m528.4 10.9l0.5 0.8q0.2 0.4 0.6 0.7l0.9 0.4q0 0.1 0 0.1l-0.9 0.4q-0.4 0.3-0.6 0.7l-0.5 0.8q0 0.1 0 0l-0.5-0.8q-0.2-0.4-0.7-0.7l-0.8-0.4q0 0 0-0.1l0.8-0.4q0.5-0.3 0.7-0.7l0.5-0.8q0-0.1 0 0z"/><path class="d" d="m461.4 115.8l0.6 1q0.3 0.6 0.9 0.9l1 0.6c0.1 0 0.1 0.1 0 0.1l-1 0.6q-0.6 0.3-0.9 0.8l-0.6 1.1c0 0 0 0-0.1 0l-0.5-1.1q-0.3-0.5-0.9-0.8l-1.1-0.6c0 0 0-0.1 0-0.1l1.1-0.6q0.6-0.3 0.9-0.9l0.5-1c0.1-0.1 0.1-0.1 0.1 0z"/><path class="d" d="m628.1 67.4l0.5 1.1q0.3 0.5 0.9 0.8l1.1 0.6c0 0 0 0.1 0 0.1l-1.1 0.6q-0.6 0.3-0.9 0.9l-0.5 1c-0.1 0.1-0.1 0.1-0.1 0l-0.6-1q-0.3-0.6-0.9-0.9l-1-0.6c-0.1 0-0.1-0.1 0-0.1l1-0.6q0.6-0.3 0.9-0.8l0.6-1.1c0 0 0 0 0.1 0z"/><path class="d" d="m648.3 241.9l0.8 1.5c0.3 0.5 0.7 1 1.2 1.2l1.5 0.9c0.1 0 0.1 0.1 0 0.1l-1.5 0.8c-0.5 0.3-0.9 0.7-1.2 1.3l-0.8 1.5c0 0-0.1 0-0.2 0l-0.8-1.5c-0.3-0.6-0.7-1-1.2-1.3l-1.5-0.8c-0.1 0-0.1-0.1 0-0.1l1.5-0.9c0.5-0.2 0.9-0.7 1.2-1.2l0.8-1.5c0.1 0 0.2 0 0.2 0z"/><g style="opacity:.2;mix-blend-mode:multiply"><path class="e" d="m644.5 204.8c-1.6 0-3-1.3-3-3 0-1.7 1.4-3 3-3 1.7 0 3.1 1.3 3.1 3 0 1.7-1.4 3-3.1 3z"/><path class="e" d="m590.2 96.5c-1.1 0-2-0.9-2-2 0-1.1 0.9-2 2-2 1.2 0 2.1 0.9 2.1 2 0 1.1-0.9 2-2.1 2z"/><path class="e" d="m86.1 53.6c-1.3 0-2.4-1.1-2.4-2.4 0-1.4 1.1-2.4 2.4-2.4 1.4 0 2.5 1 2.5 2.4 0 1.3-1.1 2.4-2.5 2.4z"/><path class="e" d="m206.3 73c-0.7 0-1.3-0.5-1.3-1.2 0-0.6 0.6-1.2 1.3-1.2 0.6 0 1.2 0.6 1.2 1.2 0 0.7-0.6 1.2-1.2 1.2z"/><path class="e" d="m248.4 19c-0.6 0-1.1-0.5-1.1-1.1 0-0.6 0.5-1.1 1.1-1.1 0.7 0 1.2 0.5 1.2 1.1 0 0.6-0.5 1.1-1.2 1.1z"/><path class="e" d="m373.2 38.6c-1.8 0-3.3-1.5-3.3-3.3 0-1.9 1.5-3.4 3.3-3.4 1.9 0 3.4 1.5 3.4 3.4 0 1.8-1.5 3.3-3.4 3.3z"/><path class="e" d="m432.6 63.1c-0.9 0-1.7-0.8-1.7-1.7 0-0.9 0.8-1.7 1.7-1.7 0.9 0 1.7 0.8 1.7 1.7 0 0.9-0.8 1.7-1.7 1.7z"/><path class="e" d="m418.7 165.6c-1.3 0-2.4-1.1-2.4-2.4 0-1.3 1.1-2.4 2.4-2.4 1.3 0 2.4 1.1 2.4 2.4 0 1.3-1.1 2.4-2.4 2.4z"/><path class="e" d="m127.6 61.1c-0.8 0-1.4-0.6-1.4-1.4 0-0.8 0.6-1.4 1.4-1.4 0.7 0 1.3 0.6 1.3 1.4 0 0.8-0.6 1.4-1.3 1.4z"/><path class="e" d="m638.4 37.3c-1.1 0-2-0.9-2-2 0-1.2 0.9-2.1 2-2.1 1.1 0 2 0.9 2 2.1 0 1.1-0.9 2-2 2z"/><path class="e" d="m402.3 285.5c-1.3 0-2.4-1-2.4-2.4 0-1.3 1.1-2.3 2.4-2.3 1.3 0 2.4 1 2.4 2.3 0 1.4-1.1 2.4-2.4 2.4z"/><path class="e" d="m258.6 335.9c-0.8 0-1.4-0.7-1.4-1.5 0-0.8 0.6-1.5 1.4-1.5 0.9 0 1.5 0.7 1.5 1.5 0 0.8-0.6 1.5-1.5 1.5z"/><path class="e" d="m319.5 260.8c-0.7 0-1.3-0.5-1.3-1.3 0-0.7 0.6-1.2 1.3-1.2 0.7 0 1.3 0.5 1.3 1.2 0 0.8-0.6 1.3-1.3 1.3z"/><path class="e" d="m221.1 327.6c-0.4 0-0.7-0.3-0.7-0.7 0-0.4 0.3-0.8 0.7-0.8 0.4 0 0.8 0.4 0.8 0.8 0 0.4-0.4 0.7-0.8 0.7z"/><path class="e" d="m325.3 264.5c-0.5 0-0.8-0.4-0.8-0.9 0-0.4 0.3-0.8 0.8-0.8 0.5 0 0.9 0.4 0.9 0.8 0 0.5-0.4 0.9-0.9 0.9z"/><path class="e" d="m393.7 110.9c-1.2 0-2.1-1-2.1-2.1 0-1.2 0.9-2.1 2.1-2.1 1.2 0 2.1 0.9 2.1 2.1 0 1.1-0.9 2.1-2.1 2.1z"/><path class="e" d="m479.3 54.8c-1 0-1.8-0.8-1.8-1.8 0-1 0.8-1.8 1.8-1.8 1 0 1.8 0.8 1.8 1.8 0 1-0.8 1.8-1.8 1.8z"/><path class="e" d="m209.4 77.7c-0.3 0-0.5-0.2-0.5-0.5 0-0.4 0.2-0.6 0.5-0.6 0.3 0 0.6 0.2 0.6 0.6 0 0.3-0.3 0.5-0.6 0.5z"/><path class="e" d="m596.9 108.3c-1.1 0-1.9-0.8-1.9-1.8 0-1.1 0.8-1.9 1.9-1.9 1 0 1.9 0.8 1.9 1.9 0 1-0.9 1.8-1.9 1.8z"/><path class="e" d="m613.6 161.3c-1.1 0-2.1-0.9-2.1-2.1 0-1.1 1-2.1 2.1-2.1 1.2 0 2.1 1 2.1 2.1 0 1.2-0.9 2.1-2.1 2.1z"/><path class="e" d="m655 200.9c-1 0-1.8-0.8-1.8-1.8 0-1 0.8-1.8 1.8-1.8 1 0 1.8 0.8 1.8 1.8 0 1-0.8 1.8-1.8 1.8z"/><path class="e" d="m660.5 46c-0.7 0-1.2-0.5-1.2-1.2 0-0.7 0.5-1.2 1.2-1.2 0.6 0 1.1 0.5 1.1 1.2 0 0.7-0.5 1.2-1.1 1.2z"/></g><path class="f" d="m198.6 291.5c3.9-14.5 15.2-26.9 29.3-32.1 14.1-5.2 30.7-3 43.1 5.6 6.7-4.7 15.9-4.2 22.1 1 5.3-11.9 16.9-20.7 29.6-23.2 12.8-2.6 26.7 1.3 36.2 10.2 6.5-5.4 16.6-4.9 22.2 1.5 3.9-7 12.6-13.7 20.5-15.1 7.9-1.4 16.3 1 22.4 6.3 4.2-2.7 10.1-4.7 15-3.7 5 1.1 9.5 4.2 12.2 8.5 4.2-2.9 10.1-3.3 13.7 0.4 1.8-3.8 7-6.9 11.2-6.9 4.2-0.1 8.4 2.4 10.3 6.1 0.5-5.6 4.8-10.9 10.3-12.1-0.5-4.5 1.6-9.1 5.4-11.6l3.3-22.1h11.3l2 22c5.7 0 10.7 4.8 11.9 10.3 3.3-0.1 7.3 0.3 10 2.2 1.9 1.4 3.5 3.3 4.5 5.4 1.1-2.1 2.6-4 4.5-5.4 2.7-1.9 6.7-2.3 10-2.2 1.3-5.5 6.3-10.3 11.9-10.3l2-22h11.3l3.3 22.1c3.8 2.5 5.9 7.1 5.5 11.6 5.5 1.2 9.8 6.5 10.3 12.1 1.9-3.7 6-6.2 10.2-6.1 4.3 0 9.4 3.1 11.2 6.9 3.7-3.7 9.5-3.3 13.7-0.4 2.8-4.3 7.2-7.4 12.2-8.5 4.9-1 10.8 1 15.1 3.7 6-5.3 14.5-7.7 22.4-6.3 7.9 1.4 16.6 8.1 20.4 15.1 5.6-6.4 15.7-6.9 22.3-1.5 9.5-8.9 23.3-12.8 36.1-10.2 12.7 2.5 24.3 11.3 29.6 23.2 6.3-5.2 15.5-5.7 22.2-1 12.3-8.6 28.9-10.8 43-5.6 14.2 5.2 25.5 17.6 29.3 32.1z"/><path class="g" d="m788.4 292.4c-4.1-3.6-10-5-15.4-3.7-0.2-7.6-4.7-15.2-11.2-19.2-6.5-3.9-15-4.3-21.8-1-5-3.6-10.6-4.2-16.3-2-2.2-3.4-6.1-5.8-10-6.6-3.9-0.7-8.2 0.2-11.5 2.5-0.8-6.7-7.1-11.5-13.8-12.4-6.7-0.9-13.5 1.8-18.9 5.9-3.1-4.1-8.3-5.4-12.4-2.2-3-2.1-7.6-3.4-11.2-2.7-3.6 0.7-7 2.8-9.1 5.8-2.1-2.2-4.9-3.3-8-3.5-3.1-0.2-6.3 0.9-8.6 2.9-3.2-3.8-9.4-5.1-13.1-1.8-1.5-3.5-4.9-6.9-8.6-7.7-3.8-0.9-7.9 0.2-10.8 2.7-0.8-4.3-3.7-8-7.8-9.5-4.2-1.5-9.1-0.7-12.5 2.1 0.3-3.5-0.5-7.9-2.7-10.7-2.1-2.7-5.3-4.6-8.7-5.1l-4.2-18.3-6.7-0.2-6.7 0.2-4.1 18.3c-3.4 0.5-6.7 2.4-8.8 5.1-2.2 2.8-2.9 7.2-2.7 10.7-3.4-2.8-8.3-3.6-12.4-2.1-4.2 1.5-7 5.2-7.9 9.5-2.9-2.5-7-3.6-10.7-2.7-3.8 0.8-7.1 4.2-8.7 7.7-3.6-3.3-9.9-2-13 1.8-2.4-2-5.5-3.1-8.6-2.9-3.1 0.2-6 1.3-8.1 3.5-2.1-3-5.4-5.1-9-5.8-3.7-0.7-8.2 0.6-11.3 2.7-4.1-3.2-9.2-1.9-12.4 2.2-5.4-4.1-12.2-6.8-18.9-5.9-6.6 0.9-13 5.7-13.8 12.4-3.3-2.3-7.5-3.2-11.5-2.5-3.9 0.8-7.8 3.2-9.9 6.6-5.8-2.2-11.4-1.6-16.4 2-6.8-3.3-15.3-2.9-21.8 1-6.5 4-11 11.6-11.2 19.2-5.3-1.3-11.3 0.1-15.4 3.7-4.1 3.6-6.3 9.5-5.7 15h498c0.6-5.5-1.5-11.4-5.7-15z"/><path class="h" d="m643.8 294.7c-0.2-6.8-3.7-13.3-9.1-17.2-6-4.3-12.7-4.2-19.6-1.5-3.6-7.9-12.3-12.7-20.9-13.1-8.7-0.4-15.4 2.9-22.4 8-5.1-6.9-15-8.8-22.5-4.7-4.3-9.6-14.6-16.1-25.1-16-10.5 0.1-22.3 7.5-26.3 17.2-4.4-3.6-10.2-5.2-15.8-4.3-5.5 0.8-10.3 4-13.4 8.7-4.2-2.9-9.8-3.7-14.6-2.3-4.9 1.5-8.3 6.1-10.2 10.9-10.5-5.3-23.5-5.4-34.1-0.3-6.7 3.2-12.3 8.3-16.3 14.6z"/><path class="i" d="m520.4 200.8h-18.9l-2.5 5.7h24z"/><path class="j" d="m500.3 201.4h21.4c0.7 0 1.3-0.6 1.3-1.3v-76.1h-24v76.1c0 0.7 0.5 1.3 1.3 1.3z"/><path class="k" d="m511 98.4c-3.3 0-12 19.9-12 25.6h12 12c0-5.7-8.8-25.6-12-25.6z"/><g style="opacity:.2;mix-blend-mode:multiply"><path class="l" d="m523 199.8v0.3q0 0 0 0h-24q0 0 0 0v-0.3z"/><path class="l" d="m499 140.4v-0.5l3.2 3.2v-17.1h0.4v1.8h20.4v0.4h-20.4v15.3 9.7q0 0-0.1 0.1l-3.5 3.5v-0.5l3.2-3.2v-9.5z"/><path class="l" d="m508 101.2q0.2-0.3 0.4-0.5v23.3h-0.4z"/><path class="l" d="m518.9 117.1q0 0.1-0.1 0.1 0 0 0 0-0.1 0-0.2-0.1l-4-9.9q0-0.1 0-0.2l1.7-1.7q0.1 0.2 0.2 0.3l-1.5 1.6 3.9 9.5 1.7-1.8q0.1 0.2 0.2 0.4z"/></g><path class="m" d="m588.7 200.8h-18.9l-2.5 5.7h24z"/><path class="n" d="m568.6 201.4h21.4c0.7 0 1.3-0.6 1.3-1.3v-76.1h-24v76.1c0 0.7 0.5 1.3 1.3 1.3z"/><g style="opacity:.3;mix-blend-mode:multiply"><path class="o" d="m499 124h24v2h-24z"/><path class="o" d="m567.3 124h24v2h-24z"/></g><path class="p" d="m579.3 98.4c-3.3 0-12 19.9-12 25.6h12 12c0-5.7-8.8-25.6-12-25.6z"/><g style="opacity:.2;mix-blend-mode:multiply"><path class="l" d="m567.3 199.8v0.3q0 0 0 0h24q0 0 0 0v-0.3z"/><path class="l" d="m591.3 140.4v-0.5l-3.3 3.2v-17.1h-0.3v1.8h-20.4v0.4h20.4v15.3 9.7q0 0 0 0.1l3.6 3.5v-0.5l-3.3-3.2v-9.5z"/><path class="l" d="m582.2 101.2q-0.1-0.3-0.3-0.5v23.3h0.3z"/><path class="l" d="m571.3 117.1q0.1 0.1 0.1 0.1 0.1 0 0.1 0 0.1 0 0.1-0.1l4-9.9q0.1-0.1 0-0.2l-1.7-1.7q-0.1 0.2-0.2 0.3l1.6 1.6-3.9 9.5-1.8-1.8q-0.1 0.2-0.1 0.4z"/></g><path class="q" d="m523 106.2c0 53.7-49.3 64.5-49.3 88.3h71.4z"/><path class="r" d="m487.4 190.9q0.1-0.1 0.1-0.1h18.1v-19.9l-2.3-2.2q0-0.1 0-0.2v-12.2q0.2-0.2 0.4-0.4v12.6l1.9 1.9v-16.7q0.2-0.2 0.4-0.5v37.6h7.7c0.1 0 0.2 0.1 0.2 0.2v3.5h-0.3v-3.3h-26l-2.7 3.3h-0.4z"/><path class="s" d="m516 137.8c-13.5 27.9-42.3 38.6-42.3 56.7h4.1c3.4-18.9 30.3-28.7 41.7-56.7z"/><path class="t" d="m516 137.8c-13.5 27.9-42.3 38.6-42.3 56.7h4.1c3.4-18.9 30.3-28.7 41.7-56.7z"/><path class="u" d="m567.3 106.2c0 53.7 49.2 64.5 49.2 88.3h-71.4z"/><path class="r" d="m605.8 194.5h-0.5l-2.7-3.3h-25.9v3.3h-0.4v-3.5c0-0.1 0.1-0.2 0.2-0.2h7.8v-37.6q0.2 0.3 0.3 0.5v16.7l2-1.9v-12.6q0.2 0.2 0.3 0.4v12.2q0 0.1 0 0.2l-2.3 2.2v19.9h18.1q0.1 0 0.1 0.1z"/><path class="v" d="m574.2 137.8c13.6 27.9 42.3 38.6 42.3 56.7h-4.1c-3.3-18.9-30.2-28.7-41.6-56.7z"/><path class="w" d="m556.5 207h-22.7l-3.1 4h28.8z"/><path class="x" d="m524.7 196.8c2.5 5.3 4.6 9.1 5.4 10.4 0.1 0.3 0.6 0.5 1.1 0.5h13.9 13.9c0.5 0 1-0.2 1.2-0.5 0.7-1.3 2.8-5.1 5.3-10.4z"/><path class="y" d="m545.1 39.7c3.3 0 22.2 31.4 22.2 46.8v110.3c0 1.6-1.4 2.9-3 2.9h-38.4c-1.6 0-2.9-1.3-2.9-2.9v-110.3c0-15.4 18.8-46.8 22.1-46.8z"/><g style="opacity:.2;mix-blend-mode:multiply"><path class="z" d="m541 117.2v-34.2h-0.3v34.2h-14-3.7v0.4h3.5v64.2h-3.5v0.4h3.7c0.1 0 0.2-0.1 0.2-0.2v-64.4h40.4v-0.4z"/><path class="z" d="m563.6 139.8h3.7v-0.3h-3.9c-0.1 0-0.2 0.1-0.2 0.2v7.3h-4.9c-0.1 0-0.1 0.1-0.1 0.2v14.3c0 0.1 0 0.2 0.1 0.2h9v-0.3h-8.8v-14h8.8v-0.4h-3.7z"/><path class="z" d="m527.7 104.3v-15.2c0-0.1-0.1-0.2-0.2-0.2h-4.5v0.4h4.3v14.8h-4.3v0.4h4.5c0.1 0 0.2-0.1 0.2-0.2z"/><path class="z" d="m532.4 58.1h22.6c5.1 9.5 9.1 22.5 9.1 28v12.1c0 0.1 0.1 0.2 0.2 0.2h3v-0.4h-2.9v-11.9c0-5.7-3.5-16.4-7.4-24.8h2.4q0-0.1-0.1-0.3h-2.4c-1.2-2.5-2.3-4.7-3.5-6.5l-0.3 0.2q0.9 1.4 1.7 3h-22.2q-0.1 0.2-0.2 0.4z"/></g><g style="opacity:.4;mix-blend-mode:multiply"><path class="z" d="m710.6 31c-0.2 0-0.4-0.2-0.4-0.4v-1.3c0-0.2 0.2-0.4 0.4-0.4 0.3 0 0.5 0.2 0.5 0.4v1.3c0 0.2-0.2 0.4-0.5 0.4z"/><path class="z" d="m713.6 31c-0.3 0-0.4-0.2-0.4-0.4v-1.3c0-0.2 0.1-0.4 0.4-0.4 0.2 0 0.4 0.2 0.4 0.4v1.3c0 0.2-0.2 0.4-0.4 0.4z"/><path class="z" d="m716.5 31c-0.2 0-0.4-0.2-0.4-0.4v-1.3c0-0.2 0.2-0.4 0.4-0.4 0.3 0 0.5 0.2 0.5 0.4v1.3c0 0.2-0.2 0.4-0.5 0.4z"/><path class="z" d="m719.5 31c-0.2 0-0.4-0.2-0.4-0.4v-1.3c0-0.2 0.2-0.4 0.4-0.4 0.2 0 0.4 0.2 0.4 0.4v1.3c0 0.2-0.2 0.4-0.4 0.4z"/><path class="z" d="m722.5 31c-0.3 0-0.5-0.2-0.5-0.4v-1.3c0-0.2 0.2-0.4 0.5-0.4 0.2 0 0.4 0.2 0.4 0.4v1.3c0 0.2-0.2 0.4-0.4 0.4z"/><path class="z" d="m725.4 31c-0.2 0-0.4-0.2-0.4-0.4v-1.3c0-0.2 0.2-0.4 0.4-0.4 0.2 0 0.4 0.2 0.4 0.4v1.3c0 0.2-0.2 0.4-0.4 0.4z"/><path class="z" d="m728.4 31c-0.3 0-0.5-0.2-0.5-0.4v-1.3c0-0.2 0.2-0.4 0.5-0.4 0.2 0 0.4 0.2 0.4 0.4v1.3c0 0.2-0.2 0.4-0.4 0.4z"/><path class="z" d="m731.3 31c-0.2 0-0.4-0.2-0.4-0.4v-1.3c0-0.2 0.2-0.4 0.4-0.4 0.3 0 0.5 0.2 0.5 0.4v1.3c0 0.2-0.2 0.4-0.5 0.4z"/></g><g style="opacity:.4;mix-blend-mode:multiply"><path class="z" d="m526.2 116.1c-0.2 0-0.4-0.2-0.4-0.5v-1.2c0-0.2 0.2-0.4 0.4-0.4 0.3 0 0.5 0.2 0.5 0.4v1.2c0 0.3-0.2 0.5-0.5 0.5z"/><path class="z" d="m529.2 116.1c-0.2 0-0.4-0.2-0.4-0.5v-1.2c0-0.2 0.2-0.4 0.4-0.4 0.2 0 0.4 0.2 0.4 0.4v1.2c0 0.3-0.2 0.5-0.4 0.5z"/><path class="z" d="m532.2 116.1c-0.3 0-0.5-0.2-0.5-0.5v-1.2c0-0.2 0.2-0.4 0.5-0.4 0.2 0 0.4 0.2 0.4 0.4v1.2c0 0.3-0.2 0.5-0.4 0.5z"/><path class="z" d="m535.1 116.1c-0.2 0-0.4-0.2-0.4-0.5v-1.2c0-0.2 0.2-0.4 0.4-0.4 0.2 0 0.4 0.2 0.4 0.4v1.2c0 0.3-0.2 0.5-0.4 0.5z"/><path class="z" d="m538.1 116.1c-0.3 0-0.5-0.2-0.5-0.5v-1.2c0-0.2 0.2-0.4 0.5-0.4 0.2 0 0.4 0.2 0.4 0.4v1.2c0 0.3-0.2 0.5-0.4 0.5z"/><path class="z" d="m544 116.1c-0.3 0-0.4-0.2-0.4-0.5v-1.2c0-0.2 0.1-0.4 0.4-0.4 0.2 0 0.4 0.2 0.4 0.4v1.2c0 0.3-0.2 0.5-0.4 0.5z"/><path class="z" d="m546.9 116.1c-0.2 0-0.4-0.2-0.4-0.5v-1.2c0-0.2 0.2-0.4 0.4-0.4 0.3 0 0.5 0.2 0.5 0.4v1.2c0 0.3-0.2 0.5-0.5 0.5z"/><path class="z" d="m549.9 116.1c-0.2 0-0.4-0.2-0.4-0.5v-1.2c0-0.2 0.2-0.4 0.4-0.4 0.2 0 0.4 0.2 0.4 0.4v1.2c0 0.3-0.2 0.5-0.4 0.5z"/><path class="z" d="m552.9 116.1c-0.3 0-0.5-0.2-0.5-0.5v-1.2c0-0.2 0.2-0.4 0.5-0.4 0.2 0 0.4 0.2 0.4 0.4v1.2c0 0.3-0.2 0.5-0.4 0.5z"/><path class="z" d="m555.8 116.1c-0.2 0-0.4-0.2-0.4-0.5v-1.2c0-0.2 0.2-0.4 0.4-0.4 0.3 0 0.4 0.2 0.4 0.4v1.2c0 0.3-0.1 0.5-0.4 0.5z"/><path class="z" d="m558.8 116.1c-0.3 0-0.5-0.2-0.5-0.5v-1.2c0-0.2 0.2-0.4 0.5-0.4 0.2 0 0.4 0.2 0.4 0.4v1.2c0 0.3-0.2 0.5-0.4 0.5z"/><path class="z" d="m561.7 116.1c-0.2 0-0.4-0.2-0.4-0.5v-1.2c0-0.2 0.2-0.4 0.4-0.4 0.3 0 0.5 0.2 0.5 0.4v1.2c0 0.3-0.2 0.5-0.5 0.5z"/><path class="z" d="m564.7 116.1c-0.2 0-0.4-0.2-0.4-0.5v-1.2c0-0.2 0.2-0.4 0.4-0.4 0.2 0 0.4 0.2 0.4 0.4v1.2c0 0.3-0.2 0.5-0.4 0.5z"/></g><path fill-rule="evenodd" class="A" d="m555.1 197.8c-0.2 0-0.3-0.1-0.3-0.3 0-0.2 0.1-0.4 0.3-0.4 0.2 0 0.4 0.2 0.4 0.4 0 0.2-0.2 0.3-0.4 0.3zm2.3 0c-0.2 0-0.4-0.1-0.4-0.3 0-0.2 0.2-0.4 0.4-0.4 0.2 0 0.3 0.2 0.3 0.4 0 0.2-0.1 0.3-0.3 0.3zm2.3 0c-0.2 0-0.4-0.1-0.4-0.3 0-0.2 0.2-0.4 0.4-0.4 0.2 0 0.3 0.2 0.3 0.4 0 0.2-0.1 0.3-0.3 0.3zm2.2 0c-0.2 0-0.3-0.1-0.3-0.3 0-0.2 0.1-0.4 0.3-0.4 0.2 0 0.4 0.2 0.4 0.4 0 0.2-0.2 0.3-0.4 0.3zm2.3 0c-0.2 0-0.3-0.1-0.3-0.3 0-0.2 0.1-0.4 0.3-0.4 0.2 0 0.4 0.2 0.4 0.4 0 0.2-0.2 0.3-0.4 0.3zm-11.4 0c-0.2 0-0.3-0.1-0.3-0.3 0-0.2 0.1-0.4 0.3-0.4 0.2 0 0.4 0.2 0.4 0.4 0 0.2-0.2 0.3-0.4 0.3zm-2.3 0c-0.1 0-0.3-0.1-0.3-0.3 0-0.2 0.2-0.4 0.3-0.4 0.2 0 0.4 0.2 0.4 0.4 0 0.2-0.2 0.3-0.4 0.3zm-2.2 0c-0.2 0-0.4-0.1-0.4-0.3 0-0.2 0.2-0.4 0.4-0.4 0.2 0 0.3 0.2 0.3 0.4 0 0.2-0.1 0.3-0.3 0.3z"/><path fill-rule="evenodd" class="A" d="m533 197.8c-0.2 0-0.3-0.1-0.3-0.3 0-0.2 0.1-0.4 0.3-0.4 0.2 0 0.4 0.2 0.4 0.4 0 0.2-0.2 0.3-0.4 0.3zm2.3 0c-0.2 0-0.3-0.1-0.3-0.3 0-0.2 0.1-0.4 0.3-0.4 0.2 0 0.4 0.2 0.4 0.4 0 0.2-0.2 0.3-0.4 0.3zm2.3 0c-0.2 0-0.4-0.1-0.4-0.3 0-0.2 0.2-0.4 0.4-0.4 0.2 0 0.3 0.2 0.3 0.4 0 0.2-0.1 0.3-0.3 0.3zm2.3 0c-0.2 0-0.4-0.1-0.4-0.3 0-0.2 0.2-0.4 0.4-0.4 0.2 0 0.3 0.2 0.3 0.4 0 0.2-0.1 0.3-0.3 0.3zm2.2 0c-0.1 0-0.3-0.1-0.3-0.3 0-0.2 0.2-0.4 0.3-0.4 0.2 0 0.4 0.2 0.4 0.4 0 0.2-0.2 0.3-0.4 0.3zm-11.3 0c-0.2 0-0.4-0.1-0.4-0.3 0-0.2 0.2-0.4 0.4-0.4 0.1 0 0.3 0.2 0.3 0.4 0 0.2-0.2 0.3-0.3 0.3zm-2.3 0c-0.2 0-0.4-0.1-0.4-0.3 0-0.2 0.2-0.4 0.4-0.4 0.2 0 0.3 0.2 0.3 0.4 0 0.2-0.1 0.3-0.3 0.3zm-2.3 0c-0.2 0-0.4-0.1-0.4-0.3 0-0.2 0.2-0.4 0.4-0.4 0.2 0 0.3 0.2 0.3 0.4 0 0.2-0.1 0.3-0.3 0.3z"/><g style="opacity:.4;mix-blend-mode:multiply"><path fill-rule="evenodd" class="B" d="m569.8 130.9c0 0.2-0.2 0.3-0.4 0.3-0.2 0-0.3-0.1-0.3-0.3 0-0.2 0.1-0.4 0.3-0.4 0.2 0 0.4 0.2 0.4 0.4zm0 2.3c0 0.2-0.2 0.3-0.4 0.3-0.2 0-0.3-0.1-0.3-0.3 0-0.2 0.1-0.4 0.3-0.4 0.2 0 0.4 0.2 0.4 0.4zm0 2.3c0 0.1-0.2 0.3-0.4 0.3-0.2 0-0.3-0.2-0.3-0.3 0-0.2 0.1-0.4 0.3-0.4 0.2 0 0.4 0.2 0.4 0.4zm0 2.2c0 0.2-0.2 0.4-0.4 0.4-0.2 0-0.3-0.2-0.3-0.4 0-0.2 0.1-0.3 0.3-0.3 0.2 0 0.4 0.1 0.4 0.3zm0 2.3c0 0.2-0.2 0.4-0.4 0.4-0.2 0-0.3-0.2-0.3-0.4 0-0.2 0.1-0.3 0.3-0.3 0.2 0 0.4 0.1 0.4 0.3zm0 2.3c0 0.2-0.2 0.3-0.4 0.3-0.2 0-0.3-0.1-0.3-0.3 0-0.2 0.1-0.4 0.3-0.4 0.2 0 0.4 0.2 0.4 0.4zm0 2.3c0 0.2-0.2 0.3-0.4 0.3-0.2 0-0.3-0.1-0.3-0.3 0-0.2 0.1-0.4 0.3-0.4 0.2 0 0.4 0.2 0.4 0.4zm0 2.2c0 0.2-0.2 0.4-0.4 0.4-0.2 0-0.3-0.2-0.3-0.4 0-0.1 0.1-0.3 0.3-0.3 0.2 0 0.4 0.2 0.4 0.3zm0 2.3c0 0.2-0.2 0.4-0.4 0.4-0.2 0-0.3-0.2-0.3-0.4 0-0.2 0.1-0.3 0.3-0.3 0.2 0 0.4 0.1 0.4 0.3zm0 2.3c0 0.2-0.2 0.4-0.4 0.4-0.2 0-0.3-0.2-0.3-0.4 0-0.2 0.1-0.3 0.3-0.3 0.2 0 0.4 0.1 0.4 0.3zm0 2.3c0 0.2-0.2 0.3-0.4 0.3-0.2 0-0.3-0.1-0.3-0.3 0-0.2 0.1-0.4 0.3-0.4 0.2 0 0.4 0.2 0.4 0.4zm0 2.3c0 0.2-0.2 0.3-0.4 0.3-0.2 0-0.3-0.1-0.3-0.3 0-0.2 0.1-0.4 0.3-0.4 0.2 0 0.4 0.2 0.4 0.4zm0 2.2c0 0.2-0.2 0.4-0.4 0.4-0.2 0-0.3-0.2-0.3-0.4 0-0.2 0.1-0.3 0.3-0.3 0.2 0 0.4 0.1 0.4 0.3zm0 2.3c0 0.2-0.2 0.4-0.4 0.4-0.2 0-0.3-0.2-0.3-0.4 0-0.2 0.1-0.3 0.3-0.3 0.2 0 0.4 0.1 0.4 0.3zm0 2.3c0 0.2-0.2 0.4-0.4 0.4-0.2 0-0.3-0.2-0.3-0.4 0-0.2 0.1-0.4 0.3-0.4 0.2 0 0.4 0.2 0.4 0.4zm0 2.3c0 0.2-0.2 0.3-0.4 0.3-0.2 0-0.3-0.1-0.3-0.3 0-0.2 0.1-0.4 0.3-0.4 0.2 0 0.4 0.2 0.4 0.4zm0 2.3c0 0.2-0.2 0.3-0.4 0.3-0.2 0-0.3-0.1-0.3-0.3 0-0.2 0.1-0.4 0.3-0.4 0.2 0 0.4 0.2 0.4 0.4zm0 2.2c0 0.2-0.2 0.4-0.4 0.4-0.2 0-0.3-0.2-0.3-0.4 0-0.2 0.1-0.3 0.3-0.3 0.2 0 0.4 0.1 0.4 0.3zm0 2.3c0 0.2-0.2 0.4-0.4 0.4-0.2 0-0.3-0.2-0.3-0.4 0-0.2 0.1-0.3 0.3-0.3 0.2 0 0.4 0.1 0.4 0.3zm0 2.3c0 0.2-0.2 0.3-0.4 0.3-0.2 0-0.3-0.1-0.3-0.3 0-0.2 0.1-0.4 0.3-0.4 0.2 0 0.4 0.2 0.4 0.4zm0 2.3c0 0.2-0.2 0.3-0.4 0.3-0.2 0-0.3-0.1-0.3-0.3 0-0.2 0.1-0.4 0.3-0.4 0.2 0 0.4 0.2 0.4 0.4zm0 2.3c0 0.1-0.2 0.3-0.4 0.3-0.2 0-0.3-0.2-0.3-0.3 0-0.2 0.1-0.4 0.3-0.4 0.2 0 0.4 0.2 0.4 0.4zm0 2.2c0 0.2-0.2 0.4-0.4 0.4-0.2 0-0.3-0.2-0.3-0.4 0-0.2 0.1-0.3 0.3-0.3 0.2 0 0.4 0.1 0.4 0.3zm0 2.3c0 0.2-0.2 0.4-0.4 0.4-0.2 0-0.3-0.2-0.3-0.4 0-0.2 0.1-0.3 0.3-0.3 0.2 0 0.4 0.1 0.4 0.3zm0 2.3c0 0.2-0.2 0.3-0.4 0.3-0.2 0-0.3-0.1-0.3-0.3 0-0.2 0.1-0.4 0.3-0.4 0.2 0 0.4 0.2 0.4 0.4zm0 2.3c0 0.2-0.2 0.3-0.4 0.3-0.2 0-0.3-0.1-0.3-0.3 0-0.2 0.1-0.4 0.3-0.4 0.2 0 0.4 0.2 0.4 0.4zm0 2.2c0 0.2-0.2 0.4-0.4 0.4-0.2 0-0.3-0.2-0.3-0.4 0-0.1 0.1-0.3 0.3-0.3 0.2 0 0.4 0.2 0.4 0.3zm0 2.3c0 0.2-0.2 0.4-0.4 0.4-0.2 0-0.3-0.2-0.3-0.4 0-0.2 0.1-0.3 0.3-0.3 0.2 0 0.4 0.1 0.4 0.3z"/></g><g style="opacity:.4;mix-blend-mode:multiply"><path fill-rule="evenodd" class="B" d="m521.3 130.9c0 0.2-0.2 0.3-0.4 0.3-0.2 0-0.3-0.1-0.3-0.3 0-0.2 0.1-0.4 0.3-0.4 0.2 0 0.4 0.2 0.4 0.4zm0 2.3c0 0.2-0.2 0.3-0.4 0.3-0.2 0-0.3-0.1-0.3-0.3 0-0.2 0.1-0.4 0.3-0.4 0.2 0 0.4 0.2 0.4 0.4zm0 2.3c0 0.1-0.2 0.3-0.4 0.3-0.2 0-0.3-0.2-0.3-0.3 0-0.2 0.1-0.4 0.3-0.4 0.2 0 0.4 0.2 0.4 0.4zm0 2.2c0 0.2-0.2 0.4-0.4 0.4-0.2 0-0.3-0.2-0.3-0.4 0-0.2 0.1-0.3 0.3-0.3 0.2 0 0.4 0.1 0.4 0.3zm0 2.3c0 0.2-0.2 0.4-0.4 0.4-0.2 0-0.3-0.2-0.3-0.4 0-0.2 0.1-0.3 0.3-0.3 0.2 0 0.4 0.1 0.4 0.3zm0 2.3c0 0.2-0.2 0.3-0.4 0.3-0.2 0-0.3-0.1-0.3-0.3 0-0.2 0.1-0.4 0.3-0.4 0.2 0 0.4 0.2 0.4 0.4zm0 2.3c0 0.2-0.2 0.3-0.4 0.3-0.2 0-0.3-0.1-0.3-0.3 0-0.2 0.1-0.4 0.3-0.4 0.2 0 0.4 0.2 0.4 0.4zm0 2.2c0 0.2-0.2 0.4-0.4 0.4-0.2 0-0.3-0.2-0.3-0.4 0-0.1 0.1-0.3 0.3-0.3 0.2 0 0.4 0.2 0.4 0.3zm0 2.3c0 0.2-0.2 0.4-0.4 0.4-0.2 0-0.3-0.2-0.3-0.4 0-0.2 0.1-0.3 0.3-0.3 0.2 0 0.4 0.1 0.4 0.3zm0 2.3c0 0.2-0.2 0.4-0.4 0.4-0.2 0-0.3-0.2-0.3-0.4 0-0.2 0.1-0.3 0.3-0.3 0.2 0 0.4 0.1 0.4 0.3zm0 2.3c0 0.2-0.2 0.3-0.4 0.3-0.2 0-0.3-0.1-0.3-0.3 0-0.2 0.1-0.4 0.3-0.4 0.2 0 0.4 0.2 0.4 0.4zm0 2.3c0 0.2-0.2 0.3-0.4 0.3-0.2 0-0.3-0.1-0.3-0.3 0-0.2 0.1-0.4 0.3-0.4 0.2 0 0.4 0.2 0.4 0.4zm0 2.2c0 0.2-0.2 0.4-0.4 0.4-0.2 0-0.3-0.2-0.3-0.4 0-0.2 0.1-0.3 0.3-0.3 0.2 0 0.4 0.1 0.4 0.3zm0 2.3c0 0.2-0.2 0.4-0.4 0.4-0.2 0-0.3-0.2-0.3-0.4 0-0.2 0.1-0.3 0.3-0.3 0.2 0 0.4 0.1 0.4 0.3zm0 2.3c0 0.2-0.2 0.4-0.4 0.4-0.2 0-0.3-0.2-0.3-0.4 0-0.2 0.1-0.4 0.3-0.4 0.2 0 0.4 0.2 0.4 0.4zm0 2.3c0 0.2-0.2 0.3-0.4 0.3-0.2 0-0.3-0.1-0.3-0.3 0-0.2 0.1-0.4 0.3-0.4 0.2 0 0.4 0.2 0.4 0.4zm0 2.3c0 0.2-0.2 0.3-0.4 0.3-0.2 0-0.3-0.1-0.3-0.3 0-0.2 0.1-0.4 0.3-0.4 0.2 0 0.4 0.2 0.4 0.4zm0 2.2c0 0.2-0.2 0.4-0.4 0.4-0.2 0-0.3-0.2-0.3-0.4 0-0.2 0.1-0.3 0.3-0.3 0.2 0 0.4 0.1 0.4 0.3zm0 2.3c0 0.2-0.2 0.4-0.4 0.4-0.2 0-0.3-0.2-0.3-0.4 0-0.2 0.1-0.3 0.3-0.3 0.2 0 0.4 0.1 0.4 0.3zm0 2.3c0 0.2-0.2 0.3-0.4 0.3-0.2 0-0.3-0.1-0.3-0.3 0-0.2 0.1-0.4 0.3-0.4 0.2 0 0.4 0.2 0.4 0.4zm0 2.3c0 0.2-0.2 0.3-0.4 0.3-0.2 0-0.3-0.1-0.3-0.3 0-0.2 0.1-0.4 0.3-0.4 0.2 0 0.4 0.2 0.4 0.4zm0 2.3c0 0.1-0.2 0.3-0.4 0.3-0.2 0-0.3-0.2-0.3-0.3 0-0.2 0.1-0.4 0.3-0.4 0.2 0 0.4 0.2 0.4 0.4zm0 2.2c0 0.2-0.2 0.4-0.4 0.4-0.2 0-0.3-0.2-0.3-0.4 0-0.2 0.1-0.3 0.3-0.3 0.2 0 0.4 0.1 0.4 0.3zm0 2.3c0 0.2-0.2 0.4-0.4 0.4-0.2 0-0.3-0.2-0.3-0.4 0-0.2 0.1-0.3 0.3-0.3 0.2 0 0.4 0.1 0.4 0.3zm0 2.3c0 0.2-0.2 0.3-0.4 0.3-0.2 0-0.3-0.1-0.3-0.3 0-0.2 0.1-0.4 0.3-0.4 0.2 0 0.4 0.2 0.4 0.4zm0 2.3c0 0.2-0.2 0.3-0.4 0.3-0.2 0-0.3-0.1-0.3-0.3 0-0.2 0.1-0.4 0.3-0.4 0.2 0 0.4 0.2 0.4 0.4zm0 2.2c0 0.2-0.2 0.4-0.4 0.4-0.2 0-0.3-0.2-0.3-0.4 0-0.1 0.1-0.3 0.3-0.3 0.2 0 0.4 0.2 0.4 0.3zm0 2.3c0 0.2-0.2 0.4-0.4 0.4-0.2 0-0.3-0.2-0.3-0.4 0-0.2 0.1-0.3 0.3-0.3 0.2 0 0.4 0.1 0.4 0.3z"/></g><path class="C" d="m547.4 164.5c0 22-1 39.8-2.3 39.8-1.2 0-2.2-17.8-2.2-39.8 0-22 1-21.9 2.2-21.9 1.3 0 2.3-0.1 2.3 21.9z"/><path class="D" d="m533.3 56.4h23.6c-5-9.3-10.2-16.7-11.8-16.7-1.6 0-6.8 7.4-11.8 16.7z"/><path class="E" d="m542.3 62.8c-1.8 0-3.5 0.9-4.6 2.6-4.2 6.2-7.9 14.7-5.3 17 4.3 3.9 21.1 3.9 25.4 0 2.6-2.3-1-10.8-5.3-17-1.1-1.7-2.8-2.6-4.6-2.6z"/><path class="F" d="m545.1 84.2c-5.3 0-10-1-11.7-2.5-1.4-1.2 0.7-8 5.5-15.2 0.8-1.2 2.1-1.9 3.4-1.9h5.6c1.3 0 2.6 0.7 3.4 1.9 4.9 7.2 6.9 14 5.5 15.2-1.7 1.5-6.4 2.5-11.7 2.5z"/><path class="G" d="m550.1 67q-0.4-0.7-1.1-1l-7.1 16.3q1.5 0.1 3.2 0.1c1.9 0 3.6-0.1 5.1-0.4l3.7-8.3c-0.9-2-2.1-4.2-3.8-6.7z"/><path class="H" d="m542.3 65.7c-0.8 0-1.6 0.5-2.2 1.3q-0.2 0.4-0.5 0.7l-5.1 11.8q-0.1 0.6 0 0.8c0.5 0.4 1.5 0.9 2.8 1.2l7-15.8z"/></g></svg>