<svg version="1.2" xmlns="http://www.w3.org/2000/svg" width="1024" height="200"><defs><clipPath clipPathUnits="userSpaceOnUse" id="cp1"><path d="m1318.89 795.05h-1318.38v-794.9h1318.38z"/></clipPath><linearGradient id="P" gradientUnits="userSpaceOnUse"/><radialGradient id="g1" cx="86.2" cy="1023.3" r="1697" href="#P"><stop stop-color="#ffd301"/><stop offset="1" stop-color="#ff17d0"/></radialGradient><radialGradient id="g2" cx="138.3" cy="961.2" r="1697.3" href="#P"><stop stop-color="#ffd301"/><stop offset="1" stop-color="#ff17d0"/></radialGradient><linearGradient id="g3" x1="1045.6" y1="588.9" x2="1045.6" y2="799.5" href="#P"><stop offset=".13" stop-color="#fff"/><stop offset="1" stop-color="#ffe2a5"/></linearGradient><linearGradient id="g4" x1="1057.9" y1="638.2" x2="1057.9" y2="827.9" href="#P"><stop offset=".31" stop-color="#fff"/><stop offset="1" stop-color="#ffe2a5"/></linearGradient><linearGradient id="g5" x1="968.6" y1="704.4" x2="968.6" y2="799.3" href="#P"><stop offset=".13" stop-color="#fff"/><stop offset="1" stop-color="#ffe2a5"/></linearGradient><linearGradient id="g6" x1="934.7" y1="589" x2="934.7" y2="554.9" href="#P"><stop stop-color="#bf2850"/><stop offset="1" stop-color="#3f003b"/></linearGradient><linearGradient id="g7" x1="903.5" y1="352.1" x2="969.6" y2="352.1" href="#P"><stop offset=".04" stop-color="#ff9066"/><stop offset=".24" stop-color="#bf0043"/><stop offset=".57" stop-color="#ff0043"/><stop offset="1" stop-color="#ffba71"/></linearGradient><linearGradient id="g8" x1="903.5" y1="281.5" x2="969.6" y2="281.5" href="#P"><stop offset=".04" stop-color="#ff9066"/><stop offset=".24" stop-color="#bf0043"/><stop offset=".57" stop-color="#ff0043"/><stop offset="1" stop-color="#ffba71"/></linearGradient><linearGradient id="g9" x1="1122.5" y1="589" x2="1122.5" y2="554.9" href="#P"><stop stop-color="#bf2850"/><stop offset="1" stop-color="#3f003b"/></linearGradient><linearGradient id="g10" x1="1091.4" y1="352.1" x2="1157.5" y2="352.1" href="#P"><stop offset=".04" stop-color="#ff9066"/><stop offset=".24" stop-color="#bf0043"/><stop offset=".57" stop-color="#ff0043"/><stop offset="1" stop-color="#ffba71"/></linearGradient><linearGradient id="g11" x1="1091.4" y1="281.5" x2="1157.5" y2="281.5" href="#P"><stop offset=".04" stop-color="#ff9066"/><stop offset=".24" stop-color="#bf0043"/><stop offset=".57" stop-color="#ff0043"/><stop offset="1" stop-color="#ffba71"/></linearGradient><linearGradient id="g12" x1="814.3" y1="302.9" x2="1038.2" y2="302.9" href="#P"><stop stop-color="#fffff0"/><stop offset=".88" stop-color="#d9bf9b"/></linearGradient><linearGradient id="g13" x1="801.7" y1="348.8" x2="1100" y2="412.4" href="#P"><stop stop-color="#fffff0"/><stop offset=".72" stop-color="#d9bf9b"/><stop offset="1" stop-color="#f1ffea"/></linearGradient><linearGradient id="g14" x1="801.7" y1="348.8" x2="1100" y2="412.4" href="#P"><stop stop-color="#bf2850"/><stop offset="1" stop-color="#3f003b"/></linearGradient><linearGradient id="g15" x1="1291.2" y1="546" x2="1089.9" y2="546" href="#P"><stop stop-color="#fffff0"/><stop offset=".88" stop-color="#d9bf9b"/></linearGradient><linearGradient id="g16" x1="1259.2" y1="348.8" x2="960.9" y2="412.4" href="#P"><stop stop-color="#bf2850"/><stop offset="1" stop-color="#3f003b"/></linearGradient><linearGradient id="g17" x1="1029.7" y1="597.8" x2="1029.7" y2="567.9" href="#P"><stop stop-color="#bf2850"/><stop offset="1" stop-color="#3f003b"/></linearGradient><linearGradient id="g18" x1="1026.4" y1="598.2" x2="1026.4" y2="552.4" href="#P"><stop stop-color="#bf2850"/><stop offset="1" stop-color="#3f003b"/></linearGradient><linearGradient id="g19" x1="969.6" y1="120.2" x2="1091.4" y2="120.2" href="#P"><stop stop-color="#fffff0"/><stop offset=".72" stop-color="#d9bf9b"/><stop offset="1" stop-color="#f1ffea"/></linearGradient><linearGradient id="g20" x1="2190.9" y1="411.1" x2="2190.9" y2="612" href="#P"><stop stop-color="#bf2850"/><stop offset="1" stop-color="#3f003b"/></linearGradient><linearGradient id="g21" x1="1046.6" y1="109.7" x2="1046.6" y2="226.9" href="#P"><stop stop-color="#bf2850"/><stop offset="1" stop-color="#3f003b"/></linearGradient><linearGradient id="g22" x1="1056.2" y1="190.6" x2="1056.2" y2="358.2" href="#P"><stop stop-color="#bf4b50"/><stop offset="1" stop-color="#291a68"/></linearGradient><radialGradient id="g23" cx="926.1" cy="313.9" r="317.7" href="#P"><stop stop-color="#ffd301"/><stop offset="1" stop-color="#ff17d0"/></radialGradient><linearGradient id="g24" x1="1087.8" y1="207.1" x2="1042" y2="280.4" href="#P"><stop stop-color="#ffd35d" stop-opacity="1"/><stop offset="1" stop-color="#ffa4a3" stop-opacity="0"/></linearGradient><linearGradient id="g25" x1="1069.1" y1="203.9" x2="1027" y2="271.1" href="#P"><stop stop-color="#ffd35d" stop-opacity="1"/><stop offset="1" stop-color="#ffa4a3" stop-opacity="0"/></linearGradient></defs><style>.a{fill:url(#g1)}.b{fill:url(#g2)}.c{fill:#fffe00}.d{fill:#fff}.e{fill:#9b53dc}.f{fill:url(#g3)}.g{fill:url(#g4)}.h{fill:url(#g5)}.i{fill:url(#g6)}.j{fill:url(#g7)}.k{fill:url(#g8)}.l{fill:#973e56}.m{fill:url(#g9)}.n{fill:url(#g10)}.o{mix-blend-mode:multiply;fill:#973e56}.p{fill:url(#g11)}.q{fill:url(#g12)}.r{opacity:.3;mix-blend-mode:multiply;fill:#ddc4a3}.s{fill:url(#g13)}.t{fill:url(#g14)}.u{fill:url(#g15)}.v{fill:url(#g16)}.w{fill:url(#g17)}.x{fill:url(#g18)}.y{fill:url(#g19)}.z{fill:#e3d2b4}.A{opacity:.4;mix-blend-mode:multiply;fill:#e3d2b4}.B{opacity:.4;mix-blend-mode:multiply;fill:#cd2d2f}.C{fill:url(#g20)}.D{fill:url(#g21)}.E{fill:url(#g22)}.F{fill:url(#g23)}.G{fill:url(#g24)}.H{fill:url(#g25)}</style><g clip-path="url(#cp1)"><path class="a" d="m1327.7 800.3h-1336v-805.4h1336z"/><path class="b" d="m1227 405c-46.6-21.1-71.1-67-100-106.2-28.8-39.2-74.9-77.5-126.1-68.8-48.1 8.2-86.3 56.5-134.1 47-65.7-13.1-56.4-111.6-114.5-142.3-63.7-33.8-142.3 41.6-213.4 23.5-44-11.2-70.4-55.2-114.5-66.2-51.3-13-110.6 22.9-157.1-0.6-26.6-13.4-38.4-41.5-54.3-65-7.7-11.4-16.8-22-27-31.6h-194.3v252.8c15 12.1 27.2 26.8 35.2 43.4 20.1 41.4 14.6 88.6 17.4 133.8 2.7 45.1 18.7 95.4 63.3 116 81.6 37.6 182-53.3 266.4-21 54 20.6 77.4 84.5 133.2 101 74 21.9 144.1-53.4 221.9-50.1 67.7 2.8 112.8 61.4 153.8 110.2 36.7 43.6 78.4 83.6 124.3 119.4h320.5v-385.6c-35.1 4.5-69.2 4.5-100.7-9.7z"/><path class="c" d="m352.5 79.5c0 1.3-1.1 2.3-2.3 2.3-1.3 0-2.3-1-2.3-2.3 0-1.3 1-2.3 2.3-2.3 1.2 0 2.3 1 2.3 2.3z"/><path class="c" d="m591 117c0 1.3-1 2.3-2.3 2.3-1.2 0-2.3-1-2.3-2.3 0-1.3 1.1-2.3 2.3-2.3 1.3 0 2.3 1 2.3 2.3z"/><path class="c" d="m1277.3 323.1c0 1.3-1.1 2.3-2.3 2.3-1.3 0-2.3-1-2.3-2.3 0-1.3 1-2.3 2.3-2.3 1.2 0 2.3 1 2.3 2.3z"/><path class="c" d="m71.9 726c0 0.9-0.7 1.7-1.7 1.7-0.9 0-1.7-0.8-1.7-1.7 0-1 0.8-1.7 1.7-1.7 1 0 1.7 0.7 1.7 1.7z"/><path class="c" d="m974.5 78.8c0.7 0.6 0.8 1.6 0.3 2.4-0.6 0.7-1.6 0.8-2.4 0.2-0.7-0.6-0.8-1.6-0.2-2.4 0.6-0.7 1.6-0.8 2.3-0.2z"/><path class="c" d="m1240.6 267.7c0 2.4-1.9 4.3-4.2 4.3-2.4 0-4.3-1.9-4.3-4.3 0-2.3 1.9-4.2 4.3-4.2 2.3 0 4.2 1.9 4.2 4.2z"/><path class="c" d="m602.1 130.8c0 2.3-1.9 4.3-4.2 4.3-2.4 0-4.3-2-4.3-4.3 0-2.4 1.9-4.3 4.3-4.3 2.3 0 4.2 1.9 4.2 4.3z"/><path class="c" d="m1161.8 105.4c0 2.4-1.9 4.3-4.2 4.3-2.4 0-4.3-1.9-4.3-4.3 0-2.3 1.9-4.2 4.3-4.2 2.3 0 4.2 1.9 4.2 4.2z"/><path class="c" d="m41.3 678c0 1.3-1 2.3-2.3 2.3-1.3 0-2.3-1-2.3-2.3 0-1.3 1-2.3 2.3-2.3 1.3 0 2.3 1 2.3 2.3z"/><path class="c" d="m962.7 81.8c0 1.3-1 2.3-2.3 2.3-1.3 0-2.3-1-2.3-2.3 0-1.3 1-2.3 2.3-2.3 1.3 0 2.3 1 2.3 2.3z"/><path class="c" d="m847.8 369.8c0 1-0.8 1.8-1.8 1.8-0.9 0-1.7-0.8-1.7-1.8 0-1 0.8-1.8 1.7-1.8 1 0 1.8 0.8 1.8 1.8z"/><path class="c" d="m822 407c-1 0-1.8-0.8-1.8-1.7 0-1 0.8-1.8 1.8-1.8 1 0 1.8 0.8 1.8 1.8 0 0.9-0.8 1.7-1.8 1.7z"/><path class="c" d="m984.7 557.8c0 0.5-0.4 0.9-1 0.9-0.5 0-0.9-0.4-0.9-0.9 0-0.5 0.4-1 0.9-1 0.6 0 1 0.5 1 1z"/><path class="c" d="m72.1 763.2c0 0.5-0.4 0.9-1 0.9-0.5 0-0.9-0.4-0.9-0.9 0-0.5 0.4-1 0.9-1 0.6 0 1 0.5 1 1z"/><path class="c" d="m1086.9 709.7c0.7 0.6 0.8 1.7 0.2 2.4-0.5 0.7-1.6 0.9-2.4 0.3-0.7-0.6-0.8-1.7-0.2-2.4 0.6-0.8 1.6-0.9 2.4-0.3z"/><path class="c" d="m136 710c0.7 0.6 0.9 1.7 0.3 2.4-0.6 0.7-1.7 0.9-2.4 0.3-0.8-0.6-0.9-1.7-0.3-2.4 0.6-0.8 1.7-0.9 2.4-0.3z"/><path class="c" d="m323 109.7c0 0.5-0.4 1-0.9 1-0.6 0-1-0.5-1-1 0-0.5 0.4-0.9 1-0.9 0.5 0 0.9 0.4 0.9 0.9z"/><path class="c" d="m851.2 390.8c-0.2 0.5-0.8 0.7-1.2 0.5-0.5-0.2-0.7-0.8-0.5-1.3 0.2-0.5 0.7-0.7 1.2-0.5 0.5 0.2 0.7 0.8 0.5 1.3z"/><path class="c" d="m140.5 105.4c0.1 0.5-0.3 0.9-0.8 1-0.6 0-1-0.4-1.1-0.9 0-0.5 0.4-1 0.9-1 0.5-0.1 1 0.3 1 0.9z"/><path class="c" d="m1104 685.3c0.2 0.4-0.1 1-0.5 1.2-0.5 0.2-1.1 0-1.3-0.5-0.2-0.5 0-1.1 0.5-1.3 0.5-0.2 1.1 0.1 1.3 0.6z"/><path class="d" d="m745.1 599.1l2.3 4.2c0.7 1.4 1.9 2.6 3.3 3.4l4.1 2.3c0.1 0.1 0.1 0.3 0 0.4l-4.1 2.3c-1.4 0.8-2.6 2-3.3 3.5l-2.3 4.1c0 0.2-0.3 0.2-0.4 0l-2.2-4.1c-0.7-1.5-1.9-2.7-3.3-3.5l-4.1-2.3c-0.1-0.1-0.1-0.3 0-0.4l4.1-2.3c1.4-0.8 2.6-2 3.3-3.4l2.2-4.2c0.1-0.2 0.4-0.2 0.4 0z"/><path class="d" d="m1207.6 590.9l2.2 4.2c0.8 1.4 2 2.6 3.4 3.4l4 2.3c0.2 0.1 0.2 0.3 0 0.4l-4 2.3c-1.4 0.8-2.6 2-3.4 3.4l-2.2 4.2c-0.1 0.2-0.3 0.2-0.4 0l-2.2-4.2c-0.8-1.4-1.9-2.6-3.4-3.4l-4-2.3c-0.2-0.1-0.2-0.3 0-0.4l4-2.3c1.5-0.8 2.6-2 3.4-3.4l2.2-4.2c0.1-0.2 0.3-0.2 0.4 0z"/><path class="d" d="m824 153.8l2.3 4.2c0.8 1.5 1.9 2.7 3.4 3.5l4.2 2.3c0.2 0.1 0.2 0.3 0 0.4l-4.2 2.3c-1.5 0.8-2.6 2-3.4 3.4l-2.3 4.2c-0.1 0.2-0.4 0.2-0.4 0l-2.3-4.2c-0.8-1.4-2-2.6-3.5-3.4l-4.2-2.3c-0.1-0.1-0.1-0.3 0-0.4l4.2-2.3c1.5-0.8 2.7-2 3.5-3.5l2.3-4.2c0-0.1 0.3-0.1 0.4 0z"/><path class="d" d="m419.5 132.3l0.9 1.6c0.3 0.6 0.7 1 1.3 1.3l1.6 0.9c0 0 0 0.1 0 0.1l-1.6 0.9c-0.6 0.3-1 0.8-1.3 1.3l-0.9 1.6c0 0.1-0.1 0.1-0.2 0l-0.8-1.6c-0.3-0.5-0.8-1-1.3-1.3l-1.6-0.9c-0.1 0-0.1-0.1 0-0.1l1.6-0.9c0.5-0.3 1-0.7 1.3-1.3l0.8-1.6c0.1 0 0.2 0 0.2 0z"/><path class="d" d="m311.8 692.9l0.8 1.5c0.3 0.6 0.8 1 1.3 1.3l1.6 0.9c0.1 0.1 0.1 0.1 0 0.2l-1.6 0.8c-0.5 0.3-1 0.8-1.3 1.3l-0.8 1.6c-0.1 0.1-0.2 0.1-0.2 0l-0.9-1.6c-0.3-0.5-0.7-1-1.3-1.3l-1.6-0.8c0-0.1 0-0.1 0-0.2l1.6-0.9c0.6-0.3 1-0.7 1.3-1.3l0.9-1.5c0-0.1 0.1-0.1 0.2 0z"/><path class="d" d="m1037.3 26.1l0.9 1.6c0.3 0.5 0.8 1 1.3 1.3l1.6 0.8c0 0.1 0 0.2 0 0.2l-1.6 0.9c-0.5 0.3-1 0.7-1.3 1.3l-0.9 1.6c0 0-0.1 0-0.1 0l-0.9-1.6c-0.3-0.6-0.7-1-1.3-1.3l-1.6-0.9c0 0 0-0.1 0-0.2l1.6-0.8c0.6-0.3 1-0.8 1.3-1.3l0.9-1.6c0-0.1 0.1-0.1 0.1 0z"/><path class="d" d="m906.8 230.4l1.1 2.1c0.4 0.7 1 1.3 1.7 1.7l2.1 1.1c0.1 0 0.1 0.2 0 0.2l-2.1 1.1c-0.7 0.4-1.3 1-1.7 1.7l-1.1 2.1c0 0-0.1 0-0.2 0l-1.1-2.1c-0.4-0.7-1-1.3-1.7-1.7l-2-1.1c-0.1 0-0.1-0.2 0-0.2l2-1.1c0.7-0.4 1.3-1 1.7-1.7l1.1-2.1c0.1-0.1 0.2-0.1 0.2 0z"/><path class="d" d="m1231.4 136.2l1.2 2.1c0.3 0.7 0.9 1.3 1.6 1.7l2.1 1.1c0.1 0 0.1 0.2 0 0.2l-2.1 1.1c-0.7 0.4-1.3 1-1.6 1.7l-1.2 2.1c0 0-0.1 0-0.2 0l-1.1-2.1c-0.4-0.7-1-1.3-1.7-1.7l-2-1.1c-0.1 0-0.1-0.2 0-0.2l2-1.1c0.7-0.4 1.3-1 1.7-1.7l1.1-2.1c0.1 0 0.2 0 0.2 0z"/><path class="d" d="m1270.8 476.1l1.6 3c0.6 1 1.4 1.8 2.4 2.4l3 1.6c0.1 0 0.1 0.2 0 0.3l-3 1.6c-1 0.5-1.8 1.3-2.4 2.4l-1.6 2.9c0 0.1-0.2 0.1-0.3 0l-1.6-2.9c-0.5-1.1-1.3-1.9-2.4-2.4l-2.9-1.6c-0.1-0.1-0.1-0.3 0-0.3l2.9-1.6c1.1-0.6 1.9-1.4 2.4-2.4l1.6-3c0.1-0.1 0.3-0.1 0.3 0z"/><g style="opacity:.2;mix-blend-mode:multiply"><path class="e" d="m1269.4 398c0 3.3-2.6 5.9-5.9 5.9-3.2 0-5.8-2.6-5.8-5.9 0-3.2 2.6-5.9 5.8-5.9 3.3 0 5.9 2.7 5.9 5.9z"/><path class="e" d="m1161.7 189c0 2.2-1.8 4-4 4-2.2 0-4-1.8-4-4 0-2.2 1.8-4 4-4 2.2 0 4 1.8 4 4z"/><path class="e" d="m180.4 104.6c0 2.6-2.1 4.7-4.7 4.7-2.6 0-4.7-2.1-4.7-4.7 0-2.6 2.1-4.7 4.7-4.7 2.6 0 4.7 2.1 4.7 4.7z"/><path class="e" d="m412 144.8c0 1.3-1 2.3-2.3 2.3-1.3 0-2.4-1-2.4-2.3 0-1.3 1.1-2.4 2.4-2.4 1.3 0 2.3 1.1 2.3 2.4z"/><path class="e" d="m494.1 39.8c0 1.2-1 2.2-2.2 2.2-1.3 0-2.3-1-2.3-2.2 0-1.3 1-2.3 2.3-2.3 1.2 0 2.2 1 2.2 2.3z"/><path class="e" d="m741.6 73.6c0 3.6-2.9 6.6-6.6 6.6-3.7 0-6.6-3-6.6-6.6 0-3.7 2.9-6.7 6.6-6.7 3.7 0 6.6 3 6.6 6.7z"/><path class="e" d="m854 124.5c0 1.8-1.5 3.3-3.4 3.3-1.8 0-3.3-1.5-3.3-3.3 0-1.8 1.5-3.3 3.3-3.3 1.9 0 3.4 1.5 3.4 3.3z"/><path class="e" d="m828.1 322.9c0 2.5-2 4.6-4.6 4.6-2.6 0-4.6-2.1-4.6-4.6 0-2.6 2-4.7 4.6-4.7 2.6 0 4.6 2.1 4.6 4.7z"/><path class="e" d="m259 121.2c0 1.4-1.1 2.6-2.6 2.6-1.5 0-2.7-1.2-2.7-2.6 0-1.5 1.2-2.7 2.7-2.7 1.5 0 2.6 1.2 2.6 2.7z"/><path class="e" d="m1255.5 73.6c0 2.2-1.7 3.9-3.9 3.9-2.2 0-4-1.7-4-3.9 0-2.2 1.8-4 4-4 2.2 0 3.9 1.8 3.9 4z"/><path class="e" d="m796.2 556.5c0 2.5-2.1 4.6-4.7 4.6-2.5 0-4.6-2.1-4.6-4.6 0-2.6 2.1-4.7 4.6-4.7 2.6 0 4.7 2.1 4.7 4.7z"/><path class="e" d="m514.6 656.3c0 1.6-1.3 2.9-2.9 2.9-1.5 0-2.8-1.3-2.8-2.9 0-1.5 1.3-2.8 2.8-2.8 1.6 0 2.9 1.3 2.9 2.8z"/><path class="e" d="m632.8 510.5c0 1.4-1.2 2.5-2.5 2.5-1.4 0-2.6-1.1-2.6-2.5 0-1.4 1.2-2.5 2.6-2.5 1.3 0 2.5 1.1 2.5 2.5z"/><path class="e" d="m440.1 641.6c0 0.8-0.7 1.4-1.4 1.4-0.8 0-1.4-0.6-1.4-1.4 0-0.7 0.6-1.4 1.4-1.4 0.7 0 1.4 0.7 1.4 1.4z"/><path class="e" d="m643.3 518.5c0 0.9-0.8 1.6-1.7 1.6-0.9 0-1.6-0.7-1.6-1.6 0-0.9 0.7-1.7 1.6-1.7 0.9 0 1.7 0.8 1.7 1.7z"/><path class="e" d="m778.9 216.8c0 2.2-1.8 4.1-4.1 4.1-2.2 0-4-1.9-4-4.1 0-2.3 1.8-4.1 4-4.1 2.3 0 4.1 1.8 4.1 4.1z"/><path class="e" d="m945.1 108.1c0 2-1.6 3.5-3.5 3.5-2 0-3.6-1.5-3.6-3.5 0-1.9 1.6-3.5 3.6-3.5 1.9 0 3.5 1.6 3.5 3.5z"/><path class="e" d="m416.9 155.2c0 0.6-0.4 1.1-1.1 1.1-0.6 0-1.1-0.5-1.1-1.1 0-0.6 0.5-1.1 1.1-1.1 0.7 0 1.1 0.5 1.1 1.1z"/><path class="e" d="m1174.3 212.3c0 2-1.6 3.6-3.6 3.6-2 0-3.7-1.6-3.7-3.6 0-2 1.7-3.7 3.7-3.7 2 0 3.6 1.7 3.6 3.7z"/><path class="e" d="m1207.4 315.1c0 2.2-1.8 4.1-4.1 4.1-2.3 0-4.1-1.9-4.1-4.1 0-2.3 1.8-4.1 4.1-4.1 2.3 0 4.1 1.8 4.1 4.1z"/><path class="e" d="m1287.4 392.7c0 1.9-1.5 3.5-3.5 3.5-1.9 0-3.4-1.6-3.4-3.5 0-1.9 1.5-3.5 3.4-3.5 2 0 3.5 1.6 3.5 3.5z"/><path class="e" d="m1296.9 92.1c0 1.3-1.1 2.4-2.4 2.4-1.2 0-2.3-1.1-2.3-2.4 0-1.2 1.1-2.3 2.3-2.3 1.3 0 2.4 1.1 2.4 2.3z"/></g><path class="f" d="m77.2 812.7c10.7-40 41.7-74 80.6-88.3 38.8-14.2 84.5-8.3 118.5 15.3 18.4-12.7 43.7-11.3 61 2.9 14.6-32.7 46.3-56.9 81.4-64 35.1-7 73.3 3.8 99.4 28.2 18.1-14.8 45.9-13.5 61.1 4.1 10.7-19.3 34.6-37.8 56.4-41.5 21.7-3.8 45 2.7 61.6 17.3 11.7-7.5 27.9-13 41.5-10 13.6 3 25.9 11.5 33.4 23.2 11.7-8 27.6-9 37.6 1 5-10.4 19.3-18.8 30.9-19 11.6-0.1 23 6.7 28.3 17 1.3-15.4 13.2-30.1 28.3-33.2-1.2-12.5 4.5-25.1 14.9-32l9.1-60.9h31.1l5.5 60.5c15.6 0 29.3 13.3 32.7 28.5 9.1-0.4 20.2 0.7 27.6 6 5.2 3.9 9.5 9 12.4 14.8 2.8-5.8 7.1-10.9 12.4-14.8 7.3-5.3 18.4-6.4 27.5-6 3.4-15.2 17.1-28.5 32.8-28.5l5.5-60.5h31l9.1 60.9c10.4 6.9 16.1 19.5 15 32 15 3.1 27 17.8 28.3 33.2 5.3-10.3 16.7-17.1 28.3-17 11.5 0.2 25.8 8.6 30.8 19 10-10 26-9 37.6-1 7.6-11.7 19.9-20.2 33.5-23.2 13.6-3 29.7 2.5 41.4 10 16.6-14.6 39.9-21.1 61.7-17.3 21.7 3.7 45.6 22.2 56.3 41.5 15.3-17.6 43.1-18.9 61.1-4.1 26.2-24.4 64.4-35.2 99.4-28.2 35.1 7.1 66.9 31.3 81.5 64 17.3-14.2 42.5-15.6 61-2.9 33.9-23.6 79.6-29.5 118.5-15.3 38.9 14.3 69.9 48.3 80.5 88.3z"/><path class="g" d="m1699.8 815.2c-11.3-9.9-27.7-13.8-42.3-10.2-0.7-20.8-13-41.9-30.9-52.7-17.8-10.8-41.2-11.9-60-2.8-13.6-10.1-29-11.6-44.9-5.5-6-9.3-16.6-16-27.4-18.1-10.9-2.1-22.5 0.4-31.6 6.7-2.2-18.5-19.7-31.5-38.1-34-18.4-2.5-37 4.9-51.8 16.1-8.8-11.1-23-14.6-34.2-6-8.4-5.8-21-9.2-30.9-7.4-10 1.8-19.1 7.7-24.9 16.1-5.8-6.3-13.7-9.3-22.2-9.8-8.5-0.5-17.2 2.4-23.6 8-8.7-10.3-25.9-13.9-36-4.9-4.2-9.7-13.4-18.9-23.7-21.3-10.4-2.3-21.7 0.6-29.7 7.5-2.3-11.9-10.1-22-21.5-26.2-11.4-4.1-24.9-1.9-34.3 5.8 0.7-9.6-1.4-21.8-7.4-29.3-5.9-7.5-14.7-12.7-24.1-14.2l-11.3-50.3-18.5-0.5-18.6 0.5-11.2 50.3c-9.5 1.5-18.3 6.7-24.2 14.2-5.9 7.5-8.1 19.7-7.3 29.3-9.5-7.7-23-9.9-34.4-5.8-11.4 4.2-19.2 14.3-21.5 26.2-8-6.9-19.3-9.8-29.6-7.5-10.3 2.4-19.5 11.6-23.8 21.3-10.1-9-27.3-5.4-35.9 4.9-6.5-5.6-15.2-8.5-23.7-8-8.5 0.5-16.4 3.5-22.2 9.8-5.7-8.4-14.9-14.3-24.8-16.1-10-1.8-22.6 1.6-30.9 7.4-11.3-8.6-25.4-5.1-34.2 6-14.8-11.2-33.5-18.6-51.9-16.1-18.4 2.5-35.9 15.5-38.1 34-9.1-6.3-20.7-8.8-31.5-6.7-10.9 2.1-21.4 8.8-27.5 18.1-15.8-6.1-31.2-4.6-44.9 5.5-18.8-9.1-42.1-8-60 2.8-17.9 10.8-30.2 31.9-30.8 52.7-14.7-3.6-31 0.3-42.4 10.2-11.4 9.9-17.4 26.2-15.7 41.2h1370.1c1.7-15-4.3-31.3-15.7-41.2z"/><path class="h" d="m1302.1 821.4c-0.8-18.5-10.3-36.5-25.3-47.3-16.4-11.8-34.9-11.4-53.7-4.1-10-21.7-33.9-34.9-57.7-35.9-23.8-1-42.3 7.8-61.5 21.9-14-18.8-41.3-24.2-61.8-12.8-11.9-26.4-40.2-44.5-69.2-44.1-28.9 0.3-61.2 20.6-72.4 47.3-11.9-9.8-28.1-14.2-43.3-11.9-15.3 2.3-28.5 11.2-37 24.1-11.6-8-26.8-10.4-40.2-6.3-13.4 4.1-22.8 16.8-27.9 29.8-29-14.4-64.7-14.7-93.9-0.8-18.4 8.7-33.9 22.9-44.8 40.1z"/><path class="i" d="m962.5 563.3h-52l-7 15.7h66.1z"/><path class="j" d="m907 564.9h59c2 0 3.6-1.6 3.6-3.5v-209.3h-66.1v209.3c0 1.9 1.6 3.5 3.5 3.5z"/><path class="k" d="m936.5 281.5c-8.9 0-33 54.8-33 70.6h33 33.1c0-15.8-24.2-70.6-33.1-70.6z"/><g style="opacity:.2;mix-blend-mode:multiply"><path class="l" d="m969.6 560.4v1q0 0 0 0h-66.1q0 0 0 0v-1z"/><path class="l" d="m903.5 397v-1.4l8.9 8.9v-47h1v4.9h56.2v1h-56.2v42.3 26.5q0 0.2-0.2 0.4l-9.7 9.7v-1.4l8.9-8.9v-26z"/><path class="l" d="m928.3 289.3q0.5-0.8 1-1.4v64.2h-1z"/><path class="l" d="m958.4 333.1q-0.1 0.2-0.3 0.2-0.1 0-0.1 0-0.3-0.1-0.4-0.3l-11.1-27.2c-0.1-0.2 0-0.4 0.1-0.6l4.7-4.7q0.3 0.5 0.5 1l-4.3 4.2 10.8 26.2 4.8-4.8q0.2 0.5 0.4 1z"/></g><path class="m" d="m1150.4 563.3h-52l-7 15.7h66.1z"/><path class="n" d="m1094.9 564.9h59c2 0 3.6-1.6 3.6-3.5v-209.3h-66.1v209.3c0 1.9 1.6 3.5 3.5 3.5z"/><g style="opacity:.3;mix-blend-mode:multiply"><path class="o" d="m903.5 357.5h66.1v-5.4h-66.1z"/><path class="o" d="m1091.4 352.1v5.4h66.1v-5.4z"/></g><path class="p" d="m1124.4 281.5c-8.9 0-33 54.8-33 70.6h33 33.1c0-15.8-24.2-70.6-33.1-70.6z"/><g style="opacity:.2;mix-blend-mode:multiply"><path class="l" d="m1091.4 560.4v1q0 0 0 0h66.1q0 0 0 0v-1z"/><path class="l" d="m1157.5 397v-1.4l-9 8.9v-47h-1v4.9h-56.1v1h56.1v42.3 26.5q0 0.2 0.2 0.4l9.8 9.7v-1.4l-9-8.9v-26z"/><path class="l" d="m1132.6 289.3q-0.5-0.8-1-1.4v64.2h1z"/><path class="l" d="m1102.5 333.1q0.2 0.2 0.4 0.2 0 0 0.1 0 0.2-0.1 0.3-0.3l11.1-27.2c0.1-0.2 0.1-0.4-0.1-0.6l-4.7-4.7q-0.2 0.5-0.5 1l4.3 4.2-10.7 26.2-4.8-4.8q-0.2 0.5-0.4 1z"/></g><path class="q" d="m969.6 302.9c0 147.7-135.5 177.7-135.5 243.1h196.4z"/><path class="r" d="m871.7 536q0.1-0.2 0.4-0.2h49.6v-54.8l-6.1-6.1q-0.2-0.2-0.2-0.4v-33.6q0.5-0.5 1-1.1v34.5l5.3 5.3v-46q0.5-0.6 1-1.2v103.4h21.4c0.3 0 0.5 0.2 0.5 0.5v9.7h-1v-9.2h-71.3l-7.4 9.2h-1.3z"/><path class="s" d="m950.5 389.8c-37.3 76.9-116.4 106.2-116.4 156.2h11.2c9.3-52.1 83.2-79.1 114.6-156.2z"/><path class="t" d="m950.5 389.8c-37.3 76.9-116.4 106.2-116.4 156.2h11.2c9.3-52.1 83.2-79.1 114.6-156.2z"/><path class="u" d="m1091.4 302.9c0 147.7 135.4 177.7 135.4 243.1h-196.3z"/><path class="r" d="m1197.3 546h-1.3l-7.4-9.2h-71.3v9.2h-1v-9.7c0-0.3 0.2-0.5 0.5-0.5h21.4v-103.4q0.5 0.6 1 1.2v46l5.3-5.3v-34.5q0.5 0.6 1 1.1v33.6q0 0.2-0.1 0.4l-6.2 6.1v54.8h49.7q0.2 0 0.4 0.2z"/><path class="v" d="m1110.4 389.8c37.4 76.9 116.4 106.2 116.4 156.2h-11.2c-9.2-52.1-83.2-79.1-114.5-156.2z"/><path class="w" d="m1061.7 580.3h-62.5l-8.4 11h79.3z"/><path class="x" d="m974.4 552.1c6.9 14.8 12.6 25.2 14.6 28.7 0.5 0.8 1.8 1.4 3.2 1.4h38.3 38.2c1.4 0 2.7-0.6 3.2-1.4 2-3.5 7.8-13.9 14.6-28.7z"/><path class="y" d="m1030.5 120.2c9.1 0 60.9 86.3 60.9 128.7v303.4c0 4.4-3.6 8-8.1 8h-105.7c-4.4 0-8-3.6-8-8v-303.4c0-42.4 51.7-128.7 60.9-128.7z"/><g style="opacity:.2;mix-blend-mode:multiply"><path class="z" d="m1019.2 333.3v-94h-1v94h-38.5-10.1v1h9.6v176.8h-9.6v1h10.1c0.3 0 0.5-0.3 0.5-0.5v-177.3h111.2v-1z"/><path class="z" d="m1081.2 395.6h10.2v-1h-10.7c-0.3 0-0.5 0.2-0.5 0.5v20.2h-13.3c-0.3 0-0.5 0.2-0.5 0.5v39.5c0 0.2 0.2 0.5 0.5 0.5h24.5v-1h-24v-38.5h24v-1h-10.2z"/><path class="z" d="m982.4 297.8v-41.8c0-0.3-0.2-0.5-0.5-0.5h-12.3v1h11.8v40.8h-11.8v1h12.3c0.3 0 0.5-0.2 0.5-0.5z"/><path class="z" d="m995.6 170.6h62.1c13.9 26.1 24.9 62 24.9 77.1v33.4c0 0.3 0.3 0.5 0.5 0.5h8.3v-1h-7.8v-32.9c0-15.7-9.7-45.2-20.3-68.1h6.6q-0.3-0.5-0.5-1h-6.6c-3.1-6.7-6.4-12.7-9.4-17.7l-0.9 0.6q2.4 3.8 4.7 8.1h-61.1q-0.3 0.5-0.5 1z"/></g><g style="opacity:.4;mix-blend-mode:multiply"><path class="z" d="m1485.8 96.1c-0.7 0-1.2-0.5-1.2-1.2v-3.3c0-0.7 0.5-1.2 1.2-1.2 0.6 0 1.2 0.5 1.2 1.2v3.3c0 0.7-0.6 1.2-1.2 1.2z"/><path class="z" d="m1493.9 96.1c-0.6 0-1.2-0.5-1.2-1.2v-3.3c0-0.7 0.6-1.2 1.2-1.2 0.7 0 1.2 0.5 1.2 1.2v3.3c0 0.7-0.5 1.2-1.2 1.2z"/><path class="z" d="m1502.1 96.1c-0.7 0-1.2-0.5-1.2-1.2v-3.3c0-0.7 0.5-1.2 1.2-1.2 0.6 0 1.1 0.5 1.1 1.2v3.3c0 0.7-0.5 1.2-1.1 1.2z"/><path class="z" d="m1510.2 96.1c-0.7 0-1.2-0.5-1.2-1.2v-3.3c0-0.7 0.5-1.2 1.2-1.2 0.6 0 1.2 0.5 1.2 1.2v3.3c0 0.7-0.6 1.2-1.2 1.2z"/><path class="z" d="m1518.3 96.1c-0.6 0-1.2-0.5-1.2-1.2v-3.3c0-0.7 0.6-1.2 1.2-1.2 0.7 0 1.2 0.5 1.2 1.2v3.3c0 0.7-0.5 1.2-1.2 1.2z"/><path class="z" d="m1526.5 96.1c-0.7 0-1.2-0.5-1.2-1.2v-3.3c0-0.7 0.5-1.2 1.2-1.2 0.6 0 1.1 0.5 1.1 1.2v3.3c0 0.7-0.5 1.2-1.1 1.2z"/><path class="z" d="m1534.6 96.1c-0.7 0-1.2-0.5-1.2-1.2v-3.3c0-0.7 0.5-1.2 1.2-1.2 0.7 0 1.2 0.5 1.2 1.2v3.3c0 0.7-0.5 1.2-1.2 1.2z"/><path class="z" d="m1542.7 96.1c-0.6 0-1.1-0.5-1.1-1.2v-3.3c0-0.7 0.5-1.2 1.1-1.2 0.7 0 1.2 0.5 1.2 1.2v3.3c0 0.7-0.5 1.2-1.2 1.2z"/></g><g style="opacity:.4;mix-blend-mode:multiply"><path class="z" d="m978.5 330.1c-0.6 0-1.2-0.5-1.2-1.1v-3.4c0-0.7 0.6-1.2 1.2-1.2 0.7 0 1.2 0.5 1.2 1.2v3.4c0 0.6-0.5 1.1-1.2 1.1z"/><path class="z" d="m986.7 330.1c-0.7 0-1.2-0.5-1.2-1.1v-3.4c0-0.7 0.5-1.2 1.2-1.2 0.6 0 1.1 0.5 1.1 1.2v3.4c0 0.6-0.5 1.1-1.1 1.1z"/><path class="z" d="m994.8 330.1c-0.6 0-1.2-0.5-1.2-1.1v-3.4c0-0.7 0.6-1.2 1.2-1.2 0.7 0 1.2 0.5 1.2 1.2v3.4c0 0.6-0.5 1.1-1.2 1.1z"/><path class="z" d="m1002.9 330.1c-0.6 0-1.1-0.5-1.1-1.1v-3.4c0-0.7 0.5-1.2 1.1-1.2 0.7 0 1.2 0.5 1.2 1.2v3.4c0 0.6-0.5 1.1-1.2 1.1z"/><path class="z" d="m1011.1 330.1c-0.7 0-1.2-0.5-1.2-1.1v-3.4c0-0.7 0.5-1.2 1.2-1.2 0.6 0 1.2 0.5 1.2 1.2v3.4c0 0.6-0.6 1.1-1.2 1.1z"/><path class="z" d="m1027.4 330.1c-0.7 0-1.2-0.5-1.2-1.1v-3.4c0-0.7 0.5-1.2 1.2-1.2 0.6 0 1.1 0.5 1.1 1.2v3.4c0 0.6-0.5 1.1-1.1 1.1z"/><path class="z" d="m1035.5 330.1c-0.7 0-1.2-0.5-1.2-1.1v-3.4c0-0.7 0.5-1.2 1.2-1.2 0.6 0 1.2 0.5 1.2 1.2v3.4c0 0.6-0.6 1.1-1.2 1.1z"/><path class="z" d="m1043.6 330.1c-0.6 0-1.2-0.5-1.2-1.1v-3.4c0-0.7 0.6-1.2 1.2-1.2 0.7 0 1.2 0.5 1.2 1.2v3.4c0 0.6-0.5 1.1-1.2 1.1z"/><path class="z" d="m1051.8 330.1c-0.7 0-1.2-0.5-1.2-1.1v-3.4c0-0.7 0.5-1.2 1.2-1.2 0.6 0 1.1 0.5 1.1 1.2v3.4c0 0.6-0.5 1.1-1.1 1.1z"/><path class="z" d="m1059.9 330.1c-0.7 0-1.2-0.5-1.2-1.1v-3.4c0-0.7 0.5-1.2 1.2-1.2 0.7 0 1.2 0.5 1.2 1.2v3.4c0 0.6-0.5 1.1-1.2 1.1z"/><path class="z" d="m1068 330.1c-0.6 0-1.1-0.5-1.1-1.1v-3.4c0-0.7 0.5-1.2 1.1-1.2 0.7 0 1.2 0.5 1.2 1.2v3.4c0 0.6-0.5 1.1-1.2 1.1z"/><path class="z" d="m1076.2 330.1c-0.7 0-1.2-0.5-1.2-1.1v-3.4c0-0.7 0.5-1.2 1.2-1.2 0.6 0 1.2 0.5 1.2 1.2v3.4c0 0.6-0.6 1.1-1.2 1.1z"/><path class="z" d="m1084.3 330.1c-0.6 0-1.2-0.5-1.2-1.1v-3.4c0-0.7 0.6-1.2 1.2-1.2 0.7 0 1.2 0.5 1.2 1.2v3.4c0 0.6-0.5 1.1-1.2 1.1z"/></g><path fill-rule="evenodd" class="A" d="m1057.9 555.1c-0.5 0-0.9-0.4-0.9-0.9 0-0.6 0.4-1 0.9-1 0.6 0 1 0.4 1 1 0 0.5-0.4 0.9-1 0.9zm6.3 0c-0.5 0-0.9-0.4-0.9-0.9 0-0.6 0.4-1 0.9-1 0.5 0 1 0.4 1 1 0 0.5-0.5 0.9-1 0.9zm6.3 0c-0.5 0-1-0.4-1-0.9 0-0.6 0.5-1 1-1 0.5 0 0.9 0.4 0.9 1 0 0.5-0.4 0.9-0.9 0.9zm6.3 0c-0.6 0-1-0.4-1-0.9 0-0.6 0.4-1 1-1 0.5 0 0.9 0.4 0.9 1 0 0.5-0.4 0.9-0.9 0.9zm6.2 0c-0.5 0-0.9-0.4-0.9-0.9 0-0.6 0.4-1 0.9-1 0.6 0 1 0.4 1 1 0 0.5-0.4 0.9-1 0.9zm-31.3 0c-0.6 0-1-0.4-1-0.9 0-0.6 0.4-1 1-1 0.5 0 0.9 0.4 0.9 1 0 0.5-0.4 0.9-0.9 0.9zm-6.3 0c-0.5 0-1-0.4-1-0.9 0-0.6 0.5-1 1-1 0.5 0 1 0.4 1 1 0 0.5-0.5 0.9-1 0.9zm-6.3 0c-0.5 0-0.9-0.4-0.9-0.9 0-0.6 0.4-1 0.9-1 0.6 0 1 0.4 1 1 0 0.5-0.4 0.9-1 0.9z"/><path fill-rule="evenodd" class="A" d="m997.2 555.1c-0.5 0-0.9-0.4-0.9-0.9 0-0.6 0.4-1 0.9-1 0.6 0 1 0.4 1 1 0 0.5-0.4 0.9-1 0.9zm6.3 0c-0.5 0-1-0.4-1-0.9 0-0.6 0.5-1 1-1 0.5 0 1 0.4 1 1 0 0.5-0.5 0.9-1 0.9zm6.3 0c-0.6 0-1-0.4-1-0.9 0-0.6 0.4-1 1-1 0.5 0 0.9 0.4 0.9 1 0 0.5-0.4 0.9-0.9 0.9zm6.2 0c-0.5 0-0.9-0.4-0.9-0.9 0-0.6 0.4-1 0.9-1 0.6 0 1 0.4 1 1 0 0.5-0.4 0.9-1 0.9zm6.3 0c-0.5 0-1-0.4-1-0.9 0-0.6 0.5-1 1-1 0.5 0 1 0.4 1 1 0 0.5-0.5 0.9-1 0.9zm-31.4 0c-0.5 0-0.9-0.4-0.9-0.9 0-0.6 0.4-1 0.9-1 0.6 0 1 0.4 1 1 0 0.5-0.4 0.9-1 0.9zm-6.2 0c-0.6 0-1-0.4-1-0.9 0-0.6 0.4-1 1-1 0.5 0 0.9 0.4 0.9 1 0 0.5-0.4 0.9-0.9 0.9zm-6.3 0c-0.5 0-1-0.4-1-0.9 0-0.6 0.5-1 1-1 0.5 0 1 0.4 1 1 0 0.5-0.5 0.9-1 0.9z"/><g style="opacity:.4;mix-blend-mode:multiply"><path fill-rule="evenodd" class="B" d="m1098.3 371c0 0.5-0.4 0.9-0.9 0.9-0.5 0-1-0.4-1-0.9 0-0.6 0.5-1 1-1 0.5 0 0.9 0.4 0.9 1zm0 6.2c0 0.6-0.4 1-0.9 1-0.5 0-1-0.4-1-1 0-0.5 0.5-0.9 1-0.9 0.5 0 0.9 0.4 0.9 0.9zm0 6.3c0 0.5-0.4 1-0.9 1-0.5 0-1-0.5-1-1 0-0.5 0.5-1 1-1 0.5 0 0.9 0.5 0.9 1zm0 6.3c0 0.5-0.4 0.9-0.9 0.9-0.5 0-1-0.4-1-0.9 0-0.6 0.5-1 1-1 0.5 0 0.9 0.4 0.9 1zm0 6.2c0 0.6-0.4 1-0.9 1-0.5 0-1-0.4-1-1 0-0.5 0.5-0.9 1-0.9 0.5 0 0.9 0.4 0.9 0.9zm0 6.3c0 0.5-0.4 1-0.9 1-0.5 0-1-0.5-1-1 0-0.5 0.5-1 1-1 0.5 0 0.9 0.5 0.9 1zm0 6.3c0 0.5-0.4 0.9-0.9 0.9-0.5 0-1-0.4-1-0.9 0-0.6 0.5-1 1-1 0.5 0 0.9 0.4 0.9 1zm0 6.2c0 0.6-0.4 1-0.9 1-0.5 0-1-0.4-1-1 0-0.5 0.5-0.9 1-0.9 0.5 0 0.9 0.4 0.9 0.9zm0 6.3c0 0.5-0.4 1-0.9 1-0.5 0-1-0.5-1-1 0-0.5 0.5-1 1-1 0.5 0 0.9 0.5 0.9 1zm0 6.3c0 0.5-0.4 0.9-0.9 0.9-0.5 0-1-0.4-1-0.9 0-0.6 0.5-1 1-1 0.5 0 0.9 0.4 0.9 1zm0 6.2c0 0.6-0.4 1-0.9 1-0.5 0-1-0.4-1-1 0-0.5 0.5-0.9 1-0.9 0.5 0 0.9 0.4 0.9 0.9zm0 6.3c0 0.5-0.4 1-0.9 1-0.5 0-1-0.5-1-1 0-0.5 0.5-1 1-1 0.5 0 0.9 0.5 0.9 1zm0 6.3c0 0.5-0.4 0.9-0.9 0.9-0.5 0-1-0.4-1-0.9 0-0.6 0.5-1 1-1 0.5 0 0.9 0.4 0.9 1zm0 6.2c0 0.6-0.4 1-0.9 1-0.5 0-1-0.4-1-1 0-0.5 0.5-0.9 1-0.9 0.5 0 0.9 0.4 0.9 0.9zm0 6.3c0 0.5-0.4 1-0.9 1-0.5 0-1-0.5-1-1 0-0.5 0.5-1 1-1 0.5 0 0.9 0.5 0.9 1zm0 6.3c0 0.5-0.4 0.9-0.9 0.9-0.5 0-1-0.4-1-0.9 0-0.6 0.5-1 1-1 0.5 0 0.9 0.4 0.9 1zm0 6.2c0 0.6-0.4 1-0.9 1-0.5 0-1-0.4-1-1 0-0.5 0.5-0.9 1-0.9 0.5 0 0.9 0.4 0.9 0.9zm0 6.3c0 0.6-0.4 1-0.9 1-0.5 0-1-0.4-1-1 0-0.5 0.5-0.9 1-0.9 0.5 0 0.9 0.4 0.9 0.9zm0 6.3c0 0.5-0.4 1-0.9 1-0.5 0-1-0.5-1-1 0-0.5 0.5-1 1-1 0.5 0 0.9 0.5 0.9 1zm0 6.3c0 0.5-0.4 0.9-0.9 0.9-0.5 0-1-0.4-1-0.9 0-0.6 0.5-1 1-1 0.5 0 0.9 0.4 0.9 1zm0 6.2c0 0.6-0.4 1-0.9 1-0.5 0-1-0.4-1-1 0-0.5 0.5-0.9 1-0.9 0.5 0 0.9 0.4 0.9 0.9zm0 6.3c0 0.5-0.4 1-0.9 1-0.5 0-1-0.5-1-1 0-0.5 0.5-1 1-1 0.5 0 0.9 0.5 0.9 1zm0 6.3c0 0.5-0.4 0.9-0.9 0.9-0.5 0-1-0.4-1-0.9 0-0.6 0.5-1 1-1 0.5 0 0.9 0.4 0.9 1zm0 6.2c0 0.6-0.4 1-0.9 1-0.5 0-1-0.4-1-1 0-0.5 0.5-0.9 1-0.9 0.5 0 0.9 0.4 0.9 0.9zm0 6.3c0 0.5-0.4 1-0.9 1-0.5 0-1-0.5-1-1 0-0.5 0.5-1 1-1 0.5 0 0.9 0.5 0.9 1zm0 6.3c0 0.5-0.4 0.9-0.9 0.9-0.5 0-1-0.4-1-0.9 0-0.6 0.5-1 1-1 0.5 0 0.9 0.4 0.9 1zm0 6.2c0 0.6-0.4 1-0.9 1-0.5 0-1-0.4-1-1 0-0.5 0.5-0.9 1-0.9 0.5 0 0.9 0.4 0.9 0.9zm0 6.3c0 0.5-0.4 1-0.9 1-0.5 0-1-0.5-1-1 0-0.5 0.5-1 1-1 0.5 0 0.9 0.5 0.9 1z"/></g><g style="opacity:.4;mix-blend-mode:multiply"><path fill-rule="evenodd" class="B" d="m964.8 371c0 0.5-0.4 0.9-1 0.9-0.5 0-0.9-0.4-0.9-0.9 0-0.6 0.4-1 0.9-1 0.6 0 1 0.4 1 1zm0 6.2c0 0.6-0.4 1-1 1-0.5 0-0.9-0.4-0.9-1 0-0.5 0.4-0.9 0.9-0.9 0.6 0 1 0.4 1 0.9zm0 6.3c0 0.5-0.4 1-1 1-0.5 0-0.9-0.5-0.9-1 0-0.5 0.4-1 0.9-1 0.6 0 1 0.5 1 1zm0 6.3c0 0.5-0.4 0.9-1 0.9-0.5 0-0.9-0.4-0.9-0.9 0-0.6 0.4-1 0.9-1 0.6 0 1 0.4 1 1zm0 6.2c0 0.6-0.4 1-1 1-0.5 0-0.9-0.4-0.9-1 0-0.5 0.4-0.9 0.9-0.9 0.6 0 1 0.4 1 0.9zm0 6.3c0 0.5-0.4 1-1 1-0.5 0-0.9-0.5-0.9-1 0-0.5 0.4-1 0.9-1 0.6 0 1 0.5 1 1zm0 6.3c0 0.5-0.4 0.9-1 0.9-0.5 0-0.9-0.4-0.9-0.9 0-0.6 0.4-1 0.9-1 0.6 0 1 0.4 1 1zm0 6.2c0 0.6-0.4 1-1 1-0.5 0-0.9-0.4-0.9-1 0-0.5 0.4-0.9 0.9-0.9 0.6 0 1 0.4 1 0.9zm0 6.3c0 0.5-0.4 1-1 1-0.5 0-0.9-0.5-0.9-1 0-0.5 0.4-1 0.9-1 0.6 0 1 0.5 1 1zm0 6.3c0 0.5-0.4 0.9-1 0.9-0.5 0-0.9-0.4-0.9-0.9 0-0.6 0.4-1 0.9-1 0.6 0 1 0.4 1 1zm0 6.2c0 0.6-0.4 1-1 1-0.5 0-0.9-0.4-0.9-1 0-0.5 0.4-0.9 0.9-0.9 0.6 0 1 0.4 1 0.9zm0 6.3c0 0.5-0.4 1-1 1-0.5 0-0.9-0.5-0.9-1 0-0.5 0.4-1 0.9-1 0.6 0 1 0.5 1 1zm0 6.3c0 0.5-0.4 0.9-1 0.9-0.5 0-0.9-0.4-0.9-0.9 0-0.6 0.4-1 0.9-1 0.6 0 1 0.4 1 1zm0 6.2c0 0.6-0.4 1-1 1-0.5 0-0.9-0.4-0.9-1 0-0.5 0.4-0.9 0.9-0.9 0.6 0 1 0.4 1 0.9zm0 6.3c0 0.5-0.4 1-1 1-0.5 0-0.9-0.5-0.9-1 0-0.5 0.4-1 0.9-1 0.6 0 1 0.5 1 1zm0 6.3c0 0.5-0.4 0.9-1 0.9-0.5 0-0.9-0.4-0.9-0.9 0-0.6 0.4-1 0.9-1 0.6 0 1 0.4 1 1zm0 6.2c0 0.6-0.4 1-1 1-0.5 0-0.9-0.4-0.9-1 0-0.5 0.4-0.9 0.9-0.9 0.6 0 1 0.4 1 0.9zm0 6.3c0 0.6-0.4 1-1 1-0.5 0-0.9-0.4-0.9-1 0-0.5 0.4-0.9 0.9-0.9 0.6 0 1 0.4 1 0.9zm0 6.3c0 0.5-0.4 1-1 1-0.5 0-0.9-0.5-0.9-1 0-0.5 0.4-1 0.9-1 0.6 0 1 0.5 1 1zm0 6.3c0 0.5-0.4 0.9-1 0.9-0.5 0-0.9-0.4-0.9-0.9 0-0.6 0.4-1 0.9-1 0.6 0 1 0.4 1 1zm0 6.2c0 0.6-0.4 1-1 1-0.5 0-0.9-0.4-0.9-1 0-0.5 0.4-0.9 0.9-0.9 0.6 0 1 0.4 1 0.9zm0 6.3c0 0.5-0.4 1-1 1-0.5 0-0.9-0.5-0.9-1 0-0.5 0.4-1 0.9-1 0.6 0 1 0.5 1 1zm0 6.3c0 0.5-0.4 0.9-1 0.9-0.5 0-0.9-0.4-0.9-0.9 0-0.6 0.4-1 0.9-1 0.6 0 1 0.4 1 1zm0 6.2c0 0.6-0.4 1-1 1-0.5 0-0.9-0.4-0.9-1 0-0.5 0.4-0.9 0.9-0.9 0.6 0 1 0.4 1 0.9zm0 6.3c0 0.5-0.4 1-1 1-0.5 0-0.9-0.5-0.9-1 0-0.5 0.4-1 0.9-1 0.6 0 1 0.5 1 1zm0 6.3c0 0.5-0.4 0.9-1 0.9-0.5 0-0.9-0.4-0.9-0.9 0-0.6 0.4-1 0.9-1 0.6 0 1 0.4 1 1zm0 6.2c0 0.6-0.4 1-1 1-0.5 0-0.9-0.4-0.9-1 0-0.5 0.4-0.9 0.9-0.9 0.6 0 1 0.4 1 0.9zm0 6.3c0 0.5-0.4 1-1 1-0.5 0-0.9-0.5-0.9-1 0-0.5 0.4-1 0.9-1 0.6 0 1 0.5 1 1z"/></g><path class="C" d="m1036.7 463.4c0 60.4-2.8 109.4-6.2 109.4-3.5 0-6.2-49-6.2-109.4 0-60.5 2.7-60.1 6.2-60.1 3.4 0 6.2-0.4 6.2 60.1z"/><path class="D" d="m998 165.9h64.9c-13.7-25.6-28-45.7-32.4-45.7-4.4 0-18.8 20.1-32.5 45.7z"/><path class="E" d="m1022.8 183.6c-5 0-9.7 2.6-12.7 7.1-11.7 17.3-21.7 40.5-14.5 46.9 11.8 10.6 57.9 10.6 69.8 0 7.1-6.4-2.9-29.6-14.5-46.9-3.1-4.5-7.8-7.1-12.8-7.1z"/><path class="F" d="m1030.5 241.5c-14.7 0-27.6-2.8-32.3-6.9-3.8-3.4 1.9-21.9 15.2-41.7 2.2-3.3 5.8-5.3 9.4-5.3h15.3c3.7 0 7.2 1.9 9.4 5.3 13.3 19.8 19 38.3 15.2 41.7-4.6 4.1-17.6 6.9-32.2 6.9z"/><path class="G" d="m1044.2 195.2c-0.8-1.3-1.8-2.2-3-2.8l-19.7 44.8q4.2 0.3 9 0.3c5.2 0 9.9-0.3 14-0.9l10.1-23c-2.4-5.3-5.8-11.6-10.4-18.4z"/><path class="H" d="m1022.8 191.6c-2.3 0-4.6 1.3-6.1 3.6q-0.7 1-1.3 2l-14.3 32.3c-0.1 1.1-0.1 1.9 0.1 2.3 1.4 1.2 4.2 2.4 7.8 3.3l19.2-43.5z"/></g></svg>