<svg id="visual" viewBox="0 0 1024 245" width="1024" height="245" xmlns="http://www.w3.org/2000/svg" xmlns:xlink="http://www.w3.org/1999/xlink" version="1.1"><path d="M644 245L603 245L603 123L839 123L839 0L1024 0L1024 123L1024 123L1024 245L1024 245Z" fill="#fa7268"></path><path d="M306 245L470 245L470 123L409 123L409 0L840 0L840 123L604 123L604 245L645 245Z" fill="#e45765"></path><path d="M173 245L235 245L235 123L163 123L163 0L410 0L410 123L471 123L471 245L307 245Z" fill="#cb3d62"></path><path d="M0 245L0 245L0 123L0 123L0 0L164 0L164 123L236 123L236 245L174 245Z" fill="#b0235f"></path></svg>