<svg id="visual" viewBox="0 0 1024 245" width="1024" height="245" xmlns="http://www.w3.org/2000/svg" xmlns:xlink="http://www.w3.org/1999/xlink" version="1.1"><path d="M0 82L93 70L186 48L279 70L372 67L465 77L559 50L652 60L745 97L838 45L931 65L1024 97L1024 0L931 0L838 0L745 0L652 0L559 0L465 0L372 0L279 0L186 0L93 0L0 0Z" fill="#41baec"></path><path d="M0 148L93 133L186 136L279 126L372 153L465 160L559 131L652 143L745 158L838 131L931 116L1024 165L1024 95L931 63L838 43L745 95L652 58L559 48L465 75L372 65L279 68L186 46L93 68L0 80Z" fill="#38b3e8"></path><path d="M0 177L93 207L186 182L279 163L372 177L465 182L559 190L652 173L745 187L838 190L931 180L1024 202L1024 163L931 114L838 129L745 156L652 141L559 129L465 158L372 151L279 124L186 134L93 131L0 146Z" fill="#2eace3"></path><path d="M0 212L93 229L186 217L279 212L372 217L465 207L559 214L652 214L745 209L838 209L931 209L1024 219L1024 200L931 178L838 188L745 185L652 171L559 188L465 180L372 175L279 161L186 180L93 205L0 175Z" fill="#23a5df"></path><path d="M0 246L93 246L186 246L279 246L372 246L465 246L559 246L652 246L745 246L838 246L931 246L1024 246L1024 217L931 207L838 207L745 207L652 212L559 212L465 205L372 215L279 210L186 215L93 227L0 210Z" fill="#169fda"></path></svg>