<svg id="visual" viewBox="0 0 1024 245" width="1024" height="245" xmlns="http://www.w3.org/2000/svg" xmlns:xlink="http://www.w3.org/1999/xlink" version="1.1"><path d="M1013 245L808 245L808 184L951 184L951 123L859 123L859 61L880 61L880 0L1024 0L1024 61L1024 61L1024 123L1024 123L1024 184L1024 184L1024 245L1024 245Z" fill="#fa7268"></path><path d="M951 245L706 245L706 184L921 184L921 123L726 123L726 61L849 61L849 0L881 0L881 61L860 61L860 123L952 123L952 184L809 184L809 245L1014 245Z" fill="#f76b69"></path><path d="M828 245L695 245L695 184L880 184L880 123L572 123L572 61L757 61L757 0L850 0L850 61L727 61L727 123L922 123L922 184L707 184L707 245L952 245Z" fill="#f5646b"></path><path d="M491 245L501 245L501 184L327 184L327 123L388 123L388 61L562 61L562 0L758 0L758 61L573 61L573 123L881 123L881 184L696 184L696 245L829 245Z" fill="#f15d6d"></path><path d="M327 245L316 245L316 184L316 184L316 123L255 123L255 61L378 61L378 0L563 0L563 61L389 61L389 123L328 123L328 184L502 184L502 245L492 245Z" fill="#ee566f"></path><path d="M316 245L255 245L255 184L214 184L214 123L245 123L245 61L224 61L224 0L379 0L379 61L256 61L256 123L317 123L317 184L317 184L317 245L328 245Z" fill="#ea5071"></path><path d="M224 245L153 245L153 184L173 184L173 123L224 123L224 61L163 61L163 0L225 0L225 61L246 61L246 123L215 123L215 184L256 184L256 245L317 245Z" fill="#e64974"></path><path d="M132 245L132 245L132 184L81 184L81 123L214 123L214 61L153 61L153 0L164 0L164 61L225 61L225 123L174 123L174 184L154 184L154 245L225 245Z" fill="#e14376"></path><path d="M50 245L9 245L9 184L50 184L50 123L81 123L81 61L91 61L91 0L154 0L154 61L215 61L215 123L82 123L82 184L133 184L133 245L133 245Z" fill="#dc3d79"></path><path d="M0 245L0 245L0 184L0 184L0 123L0 123L0 61L0 61L0 0L92 0L92 61L82 61L82 123L51 123L51 184L10 184L10 245L51 245Z" fill="#d7377c"></path></svg>