<svg xmlns="http://www.w3.org/2000/svg" width="200" height="54.4" viewBox="0 0 200 54.42307692">
<!--Arrow-->
  <path fill-rule="evenodd" clip-rule="evenodd" d="M15.09615 39.9999995.096152 46.9230755h7.499999v7.499999z" fill="#D96098"/>
<!--Name-->
  <path d="M12.1931107.0000071c4.2250395 0 7.7829675 1.778964 9.9621984 5.5147884l-5.336892 2.5350237c-1.1563266-.9784302-2.0902827-1.8679122-4.5363582-1.8679122-2.668446 0-5.3813661 2.0458086-5.3813661 5.8261071 0 3.7358244 2.7129201 5.6926848 5.3813661 5.6926848 2.4460755 0 3.3800316-.8005338 4.5363582-1.778964l5.4258402 2.5350237c-2.2681791 3.7358244-5.7371589 5.4258402-10.0511466 5.4258402-5.1589956 0-12.0969552-3.6913503-12.0969552-11.8745847 0-8.0498121 6.9379596-12.008007 12.0969552-12.008007zm25.1278665 0c5.2479438 0 12.1859034 3.9581949 12.1859034 12.0524811 0 8.1387603-6.9379596 11.9190588-12.1859034 11.9190588s-12.1859034-3.7802985-12.1859034-11.9190588c0-8.0942862 6.9379596-12.0524811 12.1859034-12.0524811zm0 6.1818999c-2.668446 0-5.3813661 2.0458086-5.3813661 5.8705812 0 3.6913503 2.7129201 5.7371589 5.3813661 5.7371589s5.4258402-2.0458086 5.4258402-5.7371589c0-3.8247726-2.7573942-5.8705812-5.4258402-5.8705812zM84.2411527.0444812c4.9366251 0 9.2950869 3.2021352 9.2950869 11.0295768v12.452748h-7.0269078V11.2964285c0-2.9352906-1.2452748-5.1589956-4.4918841-5.1589956-2.7129201 0-4.5363582 2.4016014-5.0700474 4.5363582V23.526806h-7.0269078V11.2964285c0-2.9352906-1.8234381-5.1589956-4.4918841-5.1589956-2.8908165 0-4.6253064 1.9568604-5.0700474 4.5363582V23.526806h-7.0269078V.400274h7.0269078v4.2250395c.0889482-1.0673784 2.3571273-4.5808323 6.8934855-4.5808323 3.3355575 0 6.5376927 1.778964 8.450079 5.0255733.5336892-1.2452748 3.2021352-5.0255733 8.5390272-5.0255733zm26.5955118-.0444741c5.2924179 0 11.3853696 3.9581949 11.3853696 11.9190588 0 8.2721826-6.0929517 12.0524811-11.3853696 12.0524811-3.557928 0-5.6482107-1.9568604-5.9595294-2.7573942V31.976885h-7.0269078V.400274h7.0269078v2.1347568c.3113187-.4892151 2.4016014-2.5350237 5.9595294-2.5350237zm-1.0229043 17.78964c3.0242388 0 5.6037366-2.0458086 5.6037366-5.8705812 0-3.6913503-2.5794978-5.7371589-5.6037366-5.7371589-2.8908165 0-5.2479438 2.0013345-5.2479438 5.7371589 0 3.8692467 2.3571273 5.8705812 5.2479438 5.8705812zM142.6801201.400274h7.0269078v23.126532h-7.0269078v-2.3126532c-.3113187.8005338-2.4016014 2.7573942-5.9595294 2.7573942-5.2924179 0-11.3853696-3.7802985-11.3853696-12.0524811 0-7.9608639 6.0929517-11.9190588 11.3853696-11.9190588 3.557928 0 5.6482107 2.0458086 5.9595294 2.5350237V.400274zm-4.9366251 17.3893731c2.8908165 0 5.2479438-2.0013345 5.2479438-5.8705812 0-3.7358244-2.3571273-5.7371589-5.2479438-5.7371589-3.0242388 0-5.6037366 2.0458086-5.6037366 5.7371589 0 3.8247726 2.5794978 5.8705812 5.6037366 5.8705812zM170.8766995.400274h7.0269078v23.126532h-7.0269078v-2.3126532c-.3113187.8005338-2.4016014 2.7573942-5.9595294 2.7573942-5.2924179 0-11.3853696-3.7802985-11.3853696-12.0524811 0-7.9608639 6.0929517-11.9190588 11.3853696-11.9190588 3.557928 0 5.6482107 2.0458086 5.9595294 2.5350237V.400274zm-4.9366251 17.3893731c2.8908165 0 5.2479438-2.0013345 5.2479438-5.8705812 0-3.7358244-2.3571273-5.7371589-5.2479438-5.7371589-3.0242388 0-5.6037366 2.0458086-5.6037366 5.7371589 0 3.8247726 2.5794978 5.8705812 5.6037366 5.8705812zm27.4849938-10.0956207c-.6226374-1.6010676-1.5565935-2.1347568-2.5794978-2.1347568-.9339561 0-1.8679122.5336892-1.8679122 1.4231712 0 .8450079.5336892 1.334223 1.5565935 1.6900158l2.9352906 1.0229043c3.2910834 1.2008007 6.6266409 2.4016014 6.6266409 7.0269078 0 4.6697805-4.6697805 7.3382265-9.4729833 7.3382265-4.3139877 0-8.3611308-2.5350237-9.339561-6.5821668l5.5147884-1.7344899c.5781633 1.2897489 1.6010676 2.7573942 3.8247726 2.7573942 1.5121194 0 2.4905496-.9784302 2.4905496-1.8679122 0-.444741-.3557928-1.0229043-1.4676453-1.4676453l-2.7129201-.9784302c-4.6253064-1.6900158-6.8045373-4.0471431-6.8045373-7.3382265 0-4.3139877 4.002669-6.8490114 8.4056049-6.8490114 4.4918841 0 7.4716488 2.4460755 8.8058718 6.1374258z"/>
<!--Slogan-->
  <path d="M13.48 9.96H11.6c-.54-2.52-2.64-2.98-4.02-2.98-2.6 0-4.7 1.92-4.7 5.7 0 3.38 1.2 5.98 4.76 5.98 1.26 0 3.44-.6 4.1-3.94h1.88c-.8 5.42-5.2 5.66-6.28 5.66-3.26 0-6.46-2.12-6.46-7.64 0-4.42 2.52-7.48 6.7-7.48 3.7 0 5.62 2.3 5.9 4.7zm7.752-4.32v12.64h7.28V20h-9.22V5.64h1.94zm23.772 7.18c0-3.38-1.88-5.84-5-5.84s-5 2.46-5 5.84 1.88 5.84 5 5.84 5-2.46 5-5.84zm2 0c0 3.1-1.64 7.56-7 7.56s-7-4.46-7-7.56 1.64-7.56 7-7.56 7 4.46 7 7.56zm15.052-7.18h1.94v9.32c0 2.94-1.84 5.42-5.78 5.42-3.86 0-5.52-2.48-5.52-5.16V5.64h1.94v9.04c0 3.12 1.9 3.98 3.64 3.98 1.78 0 3.78-.82 3.78-3.94V5.64zM70.508 20V5.64h5.82c3.74 0 6.04 2.84 6.04 6.98 0 3.22-1.4 7.38-6.12 7.38h-5.74zm1.94-12.7v11.04h3.76c2.52 0 4.16-1.98 4.16-5.6s-1.66-5.44-4.3-5.44h-3.62zm34.144 9.94V5.64h1.88V20h-2.18l-7.3-11.6h-.04V20h-1.88V5.64h2.3l7.18 11.6h.04zm16.272-1.42h-5.76l-1.5 4.18h-2l5.4-14.36h2.2l5.2 14.36h-2.12zm-5.16-1.72h4.46l-2.12-6.32h-.04zm18.992 3.78 4.06-12.24h2.18L137.696 20h-2.06l-5.24-14.36h2.16l4.1 12.24h.04zm13.732-12.24V20h-1.94V5.64h1.94zm12.912 8.34v-1.66h6.3V20h-1.26l-.46-1.86c-.98 1.36-2.78 2.24-4.74 2.24-2.46 0-3.66-.9-4.4-1.62-2.2-2.08-2.26-4.54-2.26-6.06 0-3.5 2.12-7.44 6.8-7.44 2.68 0 5.66 1.52 6.08 4.74h-1.88c-.62-2.5-2.72-3.02-4.3-3.02-2.58 0-4.7 2.06-4.7 5.82 0 2.92.96 5.92 4.78 5.92.72 0 1.88-.08 2.94-.92 1.26-1 1.58-2.28 1.58-3.82h-4.48zm20.652 1.84h-5.76l-1.5 4.18h-2l5.4-14.36h2.2l5.2 14.36h-2.12zm-5.16-1.72h4.46l-2.12-6.32h-.04zm12.572-6.74V5.64h11.66v1.72h-4.86V20h-1.94V7.36h-4.86zm28.052 5.46c0-3.38-1.88-5.84-5-5.84s-5 2.46-5 5.84 1.88 5.84 5 5.84 5-2.46 5-5.84zm2 0c0 3.1-1.64 7.56-7 7.56s-7-4.46-7-7.56 1.64-7.56 7-7.56 7 4.46 7 7.56zm7.812 1.02V20h-1.94V5.64h6.64c2.36 0 4.72.82 4.72 3.86 0 2.12-1.08 2.9-2 3.44.82.34 1.64.7 1.72 2.7l.12 2.6c.02.8.12 1.1.72 1.44V20h-2.38c-.28-.88-.34-3.06-.34-3.6 0-1.18-.24-2.56-2.56-2.56h-4.7zm0-6.54v4.88h4.5c1.42 0 2.92-.36 2.92-2.48 0-2.22-1.62-2.4-2.58-2.4h-4.84z" transform="translate(19.50547 38.469326) scale(.67123)"/>
</svg>
